SplineFontDB: 3.0
FontName: SWIFTDAY3Bold
FullName: SWIFTDAY3 Bold
FamilyName: SWIFTDAY3
Weight: Bold
Copyright: Copyright (c) 2015, kelvin,,,
UComments: "2015-2-16: Created with FontForge (http://fontforge.org)"
Version: 001.000
ItalicAngle: 0
UnderlinePosition: -100
UnderlineWidth: 50
Ascent: 770
Descent: 230
InvalidEm: 0
LayerCount: 2
Layer: 0 0 "Back" 1
Layer: 1 0 "Fore" 0
XUID: [1021 664 -1180520147 15462304]
FSType: 0
OS2Version: 0
OS2_WeightWidthSlopeOnly: 0
OS2_UseTypoMetrics: 1
CreationTime: 1424125131
ModificationTime: 1427578237
PfmFamily: 17
TTFWeight: 700
TTFWidth: 5
LineGap: 0
VLineGap: 0
OS2TypoAscent: 0
OS2TypoAOffset: 1
OS2TypoDescent: 0
OS2TypoDOffset: 1
OS2TypoLinegap: 90
OS2WinAscent: 0
OS2WinAOffset: 1
OS2WinDescent: 0
OS2WinDOffset: 1
HheadAscent: -168
HheadAOffset: 1
HheadDescent: 753
HheadDOffset: 1
OS2CapHeight: 0
OS2XHeight: 0
OS2Vendor: 'PfEd'
Lookup: 4 0 1 "'dlig' Discretionary Ligatures lookup 3" { "'dlig' Discretionary Ligatures lookup 3-1"  } ['liga' ('DFLT' <'dflt' > 'grek' <'dflt' > 'latn' <'dflt' > ) ]
Lookup: 1 0 0 "'onum' Oldstyle Figures lookup 0" { "'onum' Oldstyle Figures lookup 0-1" ("oldstyle-proportional") } ['onum' ('DFLT' <'dflt' > 'grek' <'dflt' > 'latn' <'dflt' > ) ]
Lookup: 4 0 1 "Opentypeshortcuts" { "Opentypeshortcuts subtable"  } ['liga' ('latn' <'dflt' > 'grek' <'dflt' > 'DFLT' <'dflt' > ) ]
Lookup: 4 0 1 "Oldstyleinitialize" { "Oldstyleinitialize subtable"  } ['liga' ('math' <'dflt' > 'latn' <'dflt' > 'grek' <'dflt' > 'DFLT' <'dflt' > ) ]
Lookup: 6 0 0 "Oldstylechaining" { "Oldstylechaining subtable"  } ['calt' ('math' <'dflt' > 'latn' <'dflt' > 'grek' <'dflt' > 'DFLT' <'dflt' > ) ]
Lookup: 1 0 0 "Single Substitution lookup 5" { "Single Substitution lookup 5 subtable"  } []
Lookup: 6 0 0 "Oldstylerendering" { "Oldstylerendering subtable"  } ['calt' ('math' <'dflt' > 'latn' <'dflt' > 'grek' <'dflt' > 'DFLT' <'dflt' > ) ]
Lookup: 1 0 0 "Single Substitution lookup 7" { "Single Substitution lookup 7 subtable"  } []

StartChar: exclam
Encoding: 1 33 1
Width: 286
VWidth: 0
Flags: HMW
LayerCount: 2
Back
Fore
SplineSet
79 634 m 1
 191 650 l 1
 206 644 l 1
 177 218 l 1
 110 210 l 1
 79 634 l 1
EndSplineSet
Refer: 14 46 N 1 0 0 1 13 0 2
Validated: 1
Ligature2: "SmallCapsClose subtable" exclam.smcpflag less slash s c greater
Substitution2: "Single Substitution lookup 16 subtable" exclam.smcpflag
EndChar

StartChar: quotedbl
Encoding: 2 34 2
Width: 350
VWidth: -3
Flags: HMW
LayerCount: 2
Back
Fore
SplineSet
218 634 m 1
 295 650 l 1
 310 644 l 1
 291 462 l 1
 239 454 l 1
 218 634 l 1
40 634 m 1
 117 650 l 1
 132 644 l 1
 113 462 l 1
 61 454 l 1
 40 634 l 1
EndSplineSet
Validated: 1
Ligature2: "SmallCapsClose subtable" quotedbl.smcpflag less slash s c greater
Substitution2: "Single Substitution lookup 16 subtable" quotedbl.smcpflag
EndChar

StartChar: numbersign
Encoding: 3 35 3
Width: 437
VWidth: 0
Flags: HMW
LayerCount: 2
Back
Fore
SplineSet
10 199 m 1
 10 250 l 1
 379 250 l 1
 379 199 l 1
 10 199 l 1
58 380 m 1
 58 431 l 1
 427 431 l 1
 427 380 l 1
 58 380 l 1
334 593 m 1
 375 584 l 1
 247 30 l 1
 206 39 l 1
 334 593 l 1
194 593 m 1
 235 584 l 1
 107 30 l 1
 66 39 l 1
 194 593 l 1
EndSplineSet
Validated: 5
EndChar

StartChar: dollar
Encoding: 4 36 4
Width: 475
VWidth: 0
Flags: HMW
LayerCount: 2
Back
Fore
SplineSet
113 71 m 1
 153 53 182 47 220 47 c 3
 279 47 323 82 323 143 c 3
 323 200 302 225 216 265 c 0
 109 314 53 365 53 460 c 3
 53 542 121 608 239 608 c 3
 308 608 362 596 384 591 c 1
 384 479 l 1
 339 477 l 1
 323 560 l 1
 305 566 278 575 238 575 c 3
 186 575 143 546 143 484 c 3
 143 429 173 404 252 368 c 0
 359 319 425 274 425 176 c 3
 425 85 357 12 214 12 c 3
 150 12 97 21 54 35 c 1
 50 159 l 1
 94 161 l 1
 113 71 l 1
215 690 m 1
 245 690 l 1
 245 -86 l 1
 215 -86 l 1
 215 690 l 1
EndSplineSet
Validated: 5
Substitution2: "Single Substitution lookup 16 subtable" dollar.smcpflag
Substitution2: "'smcp' Lowercase to Small Capitals lookup 12-1" dollar.smcp
Substitution2: "onumOldstyleFigureslookup0 subtable" dollar.oldstyleproportional
Substitution2: "Single Substitution lookup 5 subtable" dollar.onumflag
Substitution2: "'onum' Oldstyle Figures lookup 0-1" dollar.oldstyleproportional
EndChar

StartChar: percent
Encoding: 5 37 5
Width: 917
VWidth: 0
Flags: HMW
LayerCount: 2
Back
Fore
SplineSet
673 311 m 7
 640 311 632 304 615 289 c 5
 597 262 585 235 585 173 c 7
 585 78 619 25 670 25 c 7
 703 25 710 33 727 48 c 5
 745 75 754 101 754 163 c 7
 754 258 724 311 673 311 c 7
657 -12 m 7
 587 -12 498 32 498 157 c 7
 498 277 569 347 681 347 c 7
 751 347 841 304 841 179 c 7
 841 59 769 -12 657 -12 c 7
251 602 m 3
 218 602 210 595 193 580 c 1
 175 553 163 526 163 464 c 3
 163 369 197 316 248 316 c 3
 281 316 288 324 305 339 c 1
 323 366 332 392 332 454 c 3
 332 549 302 602 251 602 c 3
235 279 m 3
 165 279 76 323 76 448 c 3
 76 568 147 638 259 638 c 3
 329 638 419 595 419 470 c 3
 419 350 347 279 235 279 c 3
622 637 m 1
 655 617 l 1
 292 -10 l 1
 259 10 l 1
 622 637 l 1
EndSplineSet
Validated: 1
Substitution2: "Single Substitution lookup 16 subtable" percent.smcpflag
Substitution2: "'smcp' Lowercase to Small Capitals lookup 12-1" percent.smcp
Substitution2: "onumOldstyleFigureslookup0 subtable" percent.oldstyleproportional
Substitution2: "Single Substitution lookup 5 subtable" percent.onumflag
Substitution2: "'onum' Oldstyle Figures lookup 0-1" percent.oldstyleproportional
EndChar

StartChar: ampersand
Encoding: 6 38 6
Width: 700
VWidth: 0
Flags: HMW
LayerCount: 2
Back
Fore
SplineSet
211 337 m 1
 160 291 149 242 149 188 c 3
 149 125 199 66 263 66 c 3
 322 66 348 76 395 111 c 1
 211 337 l 1
190 359 m 1
 157 397 116 445 116 506 c 3
 116 585 168 650 265 650 c 3
 350 650 384 590 384 535 c 3
 384 469 347 431 288 387 c 1
 456 188 l 1
 497 248 527 341 531 384 c 1
 449 404 l 1
 449 425 l 1
 639 425 l 1
 639 404 l 1
 587 385 l 1
 569 326 525 231 479 164 c 1
 574 57 l 1
 625 21 l 1
 625 0 l 1
 486 0 l 1
 414 90 l 1
 361 31 308 -12 220 -12 c 3
 111 -12 50 63 50 153 c 3
 50 239 118 302 190 359 c 1
266 409 m 1
 299 446 313 490 313 532 c 3
 313 588 292 617 256 617 c 3
 218 617 200 588 200 543 c 3
 200 487 238 442 266 409 c 1
EndSplineSet
Validated: 1
Ligature2: "SmallCapsClose subtable" ampersand.smcpflag less slash s c greater
Substitution2: "Single Substitution lookup 16 subtable" ampersand.smcpflag
EndChar

StartChar: quotesingle
Encoding: 7 39 7
Width: 172
VWidth: -3
Flags: HMW
LayerCount: 2
Back
Fore
SplineSet
40 634 m 5
 117 650 l 5
 132 644 l 5
 113 462 l 5
 61 454 l 5
 40 634 l 5
EndSplineSet
Validated: 1
Ligature2: "SmallCapsClose subtable" quotesingle.smcpflag less slash s c greater
Substitution2: "Single Substitution lookup 16 subtable" quotesingle.smcpflag
EndChar

StartChar: parenleft
Encoding: 8 40 8
Width: 310
VWidth: 0
Flags: HMW
LayerCount: 2
Back
Fore
SplineSet
129 265 m 3
 129 66 183 -64 260 -138 c 1
 245 -159 l 1
 148 -90 50 57 50 265 c 3
 50 473 153 620 245 689 c 1
 260 668 l 1
 183 594 129 464 129 265 c 3
EndSplineSet
Validated: 1
Ligature2: "SmallCapsClose subtable" parenleft.smcpflag less slash s c greater
Substitution2: "Single Substitution lookup 16 subtable" parenleft.smcpflag
EndChar

StartChar: parenright
Encoding: 9 41 9
Width: 310
VWidth: 0
Flags: HMW
LayerCount: 2
Back
Fore
SplineSet
181 265 m 7
 181 464 127 594 50 668 c 1
 65 689 l 1
 162 620 260 473 260 265 c 3
 260 57 157 -90 65 -159 c 1
 50 -138 l 1
 127 -64 181 66 181 265 c 7
EndSplineSet
Validated: 1
Ligature2: "SmallCapsClose subtable" parenright.smcpflag less slash s c greater
Substitution2: "Single Substitution lookup 16 subtable" parenright.smcpflag
EndChar

StartChar: asterisk
Encoding: 10 42 10
Width: 443
VWidth: 0
Flags: HMW
LayerCount: 2
Back
Fore
SplineSet
209 516 m 1
 209 650 l 1
 221 662 l 1
 273 652 l 1
 280 637 l 1
 233 511 l 1
 361 551 l 1
 376 544 l 1
 383 491 l 1
 370 480 l 1
 236 486 l 1
 314 376 l 1
 311 359 l 1
 264 336 l 1
 249 345 l 1
 213 475 l 1
 133 367 l 1
 116 364 l 1
 80 402 l 1
 83 419 l 1
 196 493 l 1
 68 536 l 1
 60 551 l 1
 86 598 l 1
 102 599 l 1
 209 516 l 1
EndSplineSet
Validated: 1
EndChar

StartChar: plus
Encoding: 11 43 11
Width: 460
VWidth: 0
Flags: HMW
LayerCount: 2
Back
Fore
SplineSet
208 425 m 1
 252 425 l 1
 252 49 l 1
 208 49 l 1
 208 425 l 1
42 215 m 1
 42 259 l 1
 418 259 l 1
 418 215 l 1
 42 215 l 1
EndSplineSet
Validated: 5
EndChar

StartChar: comma
Encoding: 12 44 12
Width: 259
VWidth: -3
GlyphClass: 3
Flags: HMW
LayerCount: 2
Back
Fore
SplineSet
120 131 m 3
 162 131 192 100 192 44 c 3
 192 -43 141 -109 63 -149 c 1
 52 -129 l 1
 101 -99 132 -55 132 -19 c 3
 132 -12 132 -5 129 2 c 1
 90 2 57 27 57 66 c 3
 57 103 83 131 120 131 c 3
EndSplineSet
Validated: 1
Ligature2: "SmallCapsClose subtable" comma.smcpflag less slash s c greater
Substitution2: "Single Substitution lookup 16 subtable" comma.smcpflag
Ligature2: "Oldstyleclosingtag subtable" comma.onumflag less slash o n u m greater
Substitution2: "Single Substitution lookup 5 subtable" comma.onumflag
EndChar

StartChar: hyphen
Encoding: 13 45 13
Width: 300
VWidth: 0
GlyphClass: 3
Flags: HMW
LayerCount: 2
Back
Fore
SplineSet
45 200 m 1
 45 264 l 1
 255 264 l 1
 255 200 l 1
 45 200 l 1
EndSplineSet
Validated: 1
Ligature2: "SmallCapsClose subtable" hyphen.smcpflag less slash s c greater
Substitution2: "Single Substitution lookup 16 subtable" hyphen.smcpflag
Ligature2: "Oldstyleclosingtag subtable" hyphen.onumflag less slash o n u m greater
Substitution2: "Single Substitution lookup 5 subtable" hyphen.onumflag
EndChar

StartChar: period
Encoding: 14 46 14
Width: 259
VWidth: -3
GlyphClass: 3
Flags: HMW
LayerCount: 2
Back
Fore
SplineSet
129 133 m 3
 168 133 199 103 199 64 c 3
 199 25 168 -6 129 -6 c 3
 90 -6 60 25 60 64 c 3
 60 103 90 133 129 133 c 3
EndSplineSet
Validated: 1
Ligature2: "SmallCapsClose subtable" period.smcpflag less slash s c greater
Substitution2: "Single Substitution lookup 16 subtable" period.smcpflag
Ligature2: "Oldstyleclosingtag subtable" period.onumflag less slash o n u m greater
Substitution2: "Single Substitution lookup 5 subtable" period.onumflag
EndChar

StartChar: slash
Encoding: 15 47 15
Width: 286
VWidth: 0
Flags: HMW
LayerCount: 2
Back
Fore
SplineSet
264 686 m 1
 306 671 l 1
 70 -53 l 1
 28 -38 l 1
 264 686 l 1
EndSplineSet
Validated: 1
EndChar

StartChar: zero
Encoding: 16 48 16
Width: 576
VWidth: 0
Flags: HMW
LayerCount: 2
Back
Fore
SplineSet
298 596 m 3
 254 596 230 582 207 548 c 1
 182 497 176 449 176 324 c 3
 176 137 211 32 286 32 c 3
 330 32 344 47 367 81 c 1
 392 132 399 179 399 304 c 3
 399 491 373 596 298 596 c 3
272 -12 m 3
 178 -12 60 62 60 294 c 3
 60 518 154 638 306 638 c 3
 400 638 516 566 516 334 c 3
 516 110 424 -12 272 -12 c 3
EndSplineSet
Validated: 1
Substitution2: "Single Substitution lookup 16 subtable" zero.smcpflag
Substitution2: "'smcp' Lowercase to Small Capitals lookup 12-1" zero.smcp
Substitution2: "onumOldstyleFigureslookup0 subtable" zero.oldstyleproportional
Substitution2: "Single Substitution lookup 5 subtable" zero.onumflag
Substitution2: "'onum' Oldstyle Figures lookup 0-1" zero.oldstyleproportional
EndChar

StartChar: one
Encoding: 17 49 17
Width: 406
VWidth: -3
Flags: HMW
LayerCount: 2
Back
Fore
SplineSet
267 38 m 1
 356 18 l 1
 356 0 l 1
 60 0 l 1
 60 18 l 1
 155 43 l 1
 155 595 l 1
 70 607 l 1
 70 625 l 1
 267 641 l 1
 267 38 l 1
EndSplineSet
Validated: 1
Substitution2: "Single Substitution lookup 16 subtable" one.smcpflag
Substitution2: "'smcp' Lowercase to Small Capitals lookup 12-1" one.smcp
Substitution2: "onumOldstyleFigureslookup0 subtable" one.oldstyleproportional
Substitution2: "Single Substitution lookup 5 subtable" one.onumflag
Substitution2: "'onum' Oldstyle Figures lookup 0-1" one.oldstyleproportional
EndChar

StartChar: two
Encoding: 18 50 18
Width: 500
VWidth: 0
Flags: HMW
LayerCount: 2
Back
Fore
SplineSet
203 571 m 3
 156 571 138 565 98 555 c 1
 86 581 l 1
 142 618 196 638 260 638 c 3
 362 638 420 573 420 468 c 3
 420 312 263 156 177 94 c 1
 402 94 l 9
 429 133 l 1
 450 128 l 1
 433 0 l 1
 56 0 l 1
 50 42 l 1
 207 159 304 291 304 459 c 3
 304 531 262.016601562 571 203 571 c 3
EndSplineSet
Validated: 1
Substitution2: "Single Substitution lookup 16 subtable" two.smcpflag
Substitution2: "'smcp' Lowercase to Small Capitals lookup 12-1" two.smcp
Substitution2: "onumOldstyleFigureslookup0 subtable" two.oldstyleproportional
Substitution2: "Single Substitution lookup 5 subtable" two.onumflag
Substitution2: "'onum' Oldstyle Figures lookup 0-1" two.oldstyleproportional
EndChar

StartChar: three
Encoding: 19 51 19
Width: 446
VWidth: 0
Flags: HMW
LayerCount: 2
Back
Fore
SplineSet
396 197 m 3
 396 48 249 -12 49 -12 c 1
 49 23 l 1
 229 23 283 90.9951457455 283 178 c 3
 283 223 270.421184753 254.047090662 237 275 c 0
 206.599985718 294.05883193 189 294 144 295 c 1
 139 327 l 1
 211 369 232 425 232 490 c 3
 232 552 200 576 154 576 c 3
 112 576 100 571 65 556 c 1
 50 581 l 1
 103 618 151 638 213 638 c 3
 297 638 348 588 348 509 c 3
 348 423 277 362 227 339 c 1
 256 338 280 334 302 326 c 0
 362 304 396 265 396 197 c 3
EndSplineSet
Validated: 1
Substitution2: "Single Substitution lookup 16 subtable" three.smcpflag
Substitution2: "'smcp' Lowercase to Small Capitals lookup 12-1" three.smcp
Substitution2: "onumOldstyleFigureslookup0 subtable" three.oldstyleproportional
Substitution2: "Single Substitution lookup 5 subtable" three.onumflag
Substitution2: "'onum' Oldstyle Figures lookup 0-1" three.oldstyleproportional
EndChar

StartChar: four
Encoding: 20 52 20
Width: 570
VWidth: -3
Flags: HMW
LayerCount: 2
Back
Fore
SplineSet
310 629 m 1
 412 623 l 1
 412 215 l 1
 530 215 l 1
 530 154 l 1
 412 154 l 1
 412 34 l 1
 471 18 l 1
 471 0 l 1
 235 0 l 1
 235 18 l 1
 300 43 l 1
 300 154 l 1
 49 154 l 1
 40 175 l 1
 310 629 l 1
300 547 m 1
 107 215 l 1
 300 215 l 1
 300 547 l 1
EndSplineSet
Validated: 1
Substitution2: "Single Substitution lookup 16 subtable" four.smcpflag
Substitution2: "'smcp' Lowercase to Small Capitals lookup 12-1" four.smcp
Substitution2: "onumOldstyleFigureslookup0 subtable" four.oldstyleproportional
Substitution2: "Single Substitution lookup 5 subtable" four.onumflag
Substitution2: "'onum' Oldstyle Figures lookup 0-1" four.oldstyleproportional
EndChar

StartChar: five
Encoding: 21 53 21
Width: 439
VWidth: 0
Flags: HMW
LayerCount: 2
Back
Fore
SplineSet
50 -12 m 1
 50 23 l 1
 221 23 265 98 265 185 c 3
 265 221 253.057803275 262.428764015 208 281 c 0
 174.827790473 294.6724138 135 297 67 297 c 1
 57 316 l 1
 102 626 l 1
 335 626 l 5
 342 613 l 5
 329 532 l 5
 129 532 l 1
 106 366 l 1
 185 366 243 362 287 344 c 0
 348 318 379 276 379 207 c 3
 379 56 236 -12 50 -12 c 1
EndSplineSet
Validated: 1
Substitution2: "Single Substitution lookup 16 subtable" five.smcpflag
Substitution2: "'smcp' Lowercase to Small Capitals lookup 12-1" five.smcp
Substitution2: "onumOldstyleFigureslookup0 subtable" five.oldstyleproportional
Substitution2: "Single Substitution lookup 5 subtable" five.onumflag
Substitution2: "'onum' Oldstyle Figures lookup 0-1" five.oldstyleproportional
EndChar

StartChar: six
Encoding: 22 54 22
Width: 516
VWidth: 0
Flags: HMW
LayerCount: 2
Back
SplineSet
175 275 m 1
 175 313 l 1
 205 345 242 361 299 361 c 3
 410 361 470 293 470 194 c 3
 470 77 390 -13 264 -13 c 3
 128 -13 60 62 60 219 c 3
 60 437 232 576 393 638 c 9
 409 611 l 17
 290 550 175 440 175 226 c 3
 175 89 224 29 271 29 c 3
 328 29 360 68 360 162 c 3
 360 264 309 303 258 303 c 3
 226 303 202 298 175 275 c 1
EndSplineSet
Fore
SplineSet
258 303 m 3
 227 303 203 298 177 277 c 1
 175 261 175 244 175 226 c 3
 175 89 224 29 271 29 c 3
 328 29 360 68 360 162 c 3
 360 264 309 303 258 303 c 3
393 638 m 1
 409 611 l 1
 309 560 212 474 183 321 c 1
 212 347 247 361 299 361 c 3
 410 361 470 293 470 194 c 3
 470 77 390 -13 264 -13 c 3
 128 -13 60 62 60 219 c 3
 60 437 232 576 393 638 c 1
EndSplineSet
Validated: 1
Substitution2: "Single Substitution lookup 16 subtable" six.smcpflag
Substitution2: "'smcp' Lowercase to Small Capitals lookup 12-1" six.smcp
Substitution2: "onumOldstyleFigureslookup0 subtable" six.oldstyleproportional
Substitution2: "Single Substitution lookup 5 subtable" six.onumflag
Substitution2: "'onum' Oldstyle Figures lookup 0-1" six.oldstyleproportional
EndChar

StartChar: seven
Encoding: 23 55 23
Width: 400
VWidth: 0
Flags: HMW
LayerCount: 2
Back
Fore
SplineSet
17 549 m 1
 30 626 l 1
 364 626 l 1
 380 607 l 1
 153 -15 l 9
 75 12 l 17
 166 192 238 351 309 532 c 1
 27 532 l 1
 17 549 l 1
EndSplineSet
Validated: 1
Substitution2: "Single Substitution lookup 16 subtable" seven.smcpflag
Substitution2: "'smcp' Lowercase to Small Capitals lookup 12-1" seven.smcp
Substitution2: "onumOldstyleFigureslookup0 subtable" seven.oldstyleproportional
Substitution2: "Single Substitution lookup 5 subtable" seven.onumflag
Substitution2: "'onum' Oldstyle Figures lookup 0-1" seven.oldstyleproportional
EndChar

StartChar: eight
Encoding: 24 56 24
Width: 518
VWidth: 0
Flags: HMW
LayerCount: 2
Back
SplineSet
302 334 m 9
 277 361 l 1
 327 391 339 446 339 496 c 3
 339 567 309 603 258 603 c 3
 213 603 185 562 185 505 c 3
 185 360 458 331 458 162 c 3
 458 66 379 -12 253 -12 c 3
 130 -12 60 38 60 141 c 3
 60 223 149 294 212 325 c 9
 232 296 l 17
 170 257 147 223 147 146 c 3
 147 67 192 27 253 27 c 3
 312 27 348 67 348 137 c 3
 348 258 83 308 83 480 c 3
 83 559 143 638 260 638 c 3
 382 638 423 577 423 500 c 3
 423 419 342 356 302 334 c 9
EndSplineSet
Fore
SplineSet
219 287 m 1
 167 251 147 217 147 146 c 3
 147 67 192 27 253 27 c 3
 312 27 348 67 348 137 c 3
 348 197 284 239 219 287 c 1
260 638 m 3
 382 638 423 577 423 500 c 3
 423 429 361 372 319 344 c 1
 388 297 458 248 458 162 c 3
 458 66 379 -12 253 -12 c 3
 130 -12 60 38 60 141 c 3
 60 213 128 275 187 311 c 1
 132 355 83 406 83 480 c 3
 83 559 143 638 260 638 c 3
286 367 m 1
 329 398 339 449 339 496 c 3
 339 567 309 603 258 603 c 3
 213 603 185 562 185 505 c 3
 185 445 231 405 286 367 c 1
EndSplineSet
Validated: 1
Substitution2: "Single Substitution lookup 16 subtable" eight.smcpflag
Substitution2: "'smcp' Lowercase to Small Capitals lookup 12-1" eight.smcp
Substitution2: "onumOldstyleFigureslookup0 subtable" eight.oldstyleproportional
Substitution2: "Single Substitution lookup 5 subtable" eight.onumflag
Substitution2: "'onum' Oldstyle Figures lookup 0-1" eight.oldstyleproportional
EndChar

StartChar: nine
Encoding: 25 57 25
Width: 496
VWidth: 0
Flags: HMW
LayerCount: 2
Back
SplineSet
330 355 m 1
 330 317 l 1
 300 285 268 269 211 269 c 3
 105 269 45 332 45 431 c 3
 45 548 120 638 246 638 c 3
 382 638 445 563 445 406 c 3
 445 188 273 49 112 -13 c 9
 96 14 l 17
 215 75 330 185 330 399 c 3
 330 536 286 596 239 596 c 3
 182 596 155 557 155 463 c 3
 155 361 201 327 252 327 c 3
 284 327 303 332 330 355 c 1
EndSplineSet
Fore
SplineSet
239 596 m 3
 182 596 155 557 155 463 c 3
 155 361 201 327 252 327 c 3
 283 327 302 331 328 353 c 1
 329 368 330 383 330 399 c 3
 330 536 286 596 239 596 c 3
246 638 m 3
 382 638 445 563 445 406 c 3
 445 188 273 49 112 -13 c 1
 96 14 l 1
 197 66 296 153 323 309 c 1
 295 282 263 269 211 269 c 3
 105 269 45 332 45 431 c 3
 45 548 120 638 246 638 c 3
EndSplineSet
Validated: 1
Substitution2: "Single Substitution lookup 16 subtable" nine.smcpflag
Substitution2: "'smcp' Lowercase to Small Capitals lookup 12-1" nine.smcp
Substitution2: "onumOldstyleFigureslookup0 subtable" nine.oldstyleproportional
Substitution2: "Single Substitution lookup 5 subtable" nine.onumflag
Substitution2: "'onum' Oldstyle Figures lookup 0-1" nine.oldstyleproportional
EndChar

StartChar: less
Encoding: 28 60 28
Width: 320
VWidth: 0
Flags: HMW
LayerCount: 2
Back
Fore
SplineSet
230 430 m 1
 262 397 l 1
 94 233 l 5
 263 68 l 1
 230 34 l 1
 32 232 l 1
 230 430 l 1
EndSplineSet
Validated: 1
EndChar

StartChar: equal
Encoding: 29 61 29
Width: 460
VWidth: 0
Flags: HMW
LayerCount: 2
Back
Fore
SplineSet
42 142 m 1
 42 186 l 1
 418 186 l 1
 418 142 l 1
 42 142 l 1
42 300 m 1
 42 344 l 1
 418 344 l 1
 418 300 l 1
 42 300 l 1
EndSplineSet
Validated: 1
EndChar

StartChar: greater
Encoding: 30 62 30
Width: 320
VWidth: 0
Flags: HMW
LayerCount: 2
Back
Fore
SplineSet
90 430 m 1
 288 232 l 1
 90 34 l 1
 58 67 l 1
 226 231 l 1
 57 396 l 1
 90 430 l 1
EndSplineSet
Validated: 1
EndChar

StartChar: question
Encoding: 31 63 31
Width: 430
VWidth: 0
Flags: HMW
LayerCount: 2
Back
Fore
SplineSet
213 650 m 3
 341 650 381 579 381 507 c 3
 381 448 351.729492188 406.166992188 320 364 c 2
 234 263 l 9
 241 215 l 1
 222 201 l 1
 141 269 l 1
 141 294 l 1
 244 413 l 2
 266.733419507 439.41406838 273 462 273 496 c 3
 273 551 231 582 177 582 c 3
 123 582 92 568 53 541 c 1
 34 568 l 1
 62 595 128 650 213 650 c 3
EndSplineSet
Refer: 14 46 N 1 0 0 1 66 0 2
Validated: 1
Ligature2: "SmallCapsClose subtable" question.smcpflag less slash s c greater
Substitution2: "Single Substitution lookup 16 subtable" question.smcpflag
EndChar

StartChar: at
Encoding: 32 64 32
Width: 740
VWidth: -3
Flags: HMW
LayerCount: 2
Back
Fore
SplineSet
412 535 m 3
 591 535 690 428 690 291 c 3
 690 135 578 41 464 41 c 3
 416 41 390.197265625 57.966796875 398 104 c 2
 408 161 l 1
 367 73 328 39 283 39 c 3
 244 39 202 55 202 131 c 3
 202 245 303 385 458 385 c 3
 480.723813971 385 526.907226562 380.643554688 549 374 c 1
 517 234 l 1
 502 138 l 2
 496 102 503 91 522 91 c 3
 568 91 628 161 628 272 c 3
 628 419 533 494 385 494 c 3
 234 494 119 375 119 188 c 3
 119 -7 258 -80 390 -80 c 3
 455 -80 518 -75 578 -37 c 1
 593 -62 l 1
 539 -105 454 -127 377 -127 c 3
 214 -127 50 -37 50 180 c 3
 50 383 220 535 412 535 c 3
392 340 m 3
 316 340 306 250 306 179 c 3
 306 135 313 119 336 119 c 3
 360 119 400 188 433 295 c 1
 437 321 l 1
 426 332 409 340 392 340 c 3
EndSplineSet
Validated: 33
EndChar

StartChar: A
Encoding: 33 65 33
Width: 672
VWidth: 0
GlyphClass: 4
Flags: HMW
AnchorPoint: "bottom" 518 0 basemark 0
AnchorPoint: "top" 331 638 basemark 0
LayerCount: 2
Back
SplineSet
175 216 m 5
 175 253 l 5
 480 253 l 5
 480 216 l 5
 175 216 l 5
85 39 m 5
 302 644 l 5
 368 644 l 5
 597 35 l 5
 653 18 l 5
 653 0 l 5
 411 0 l 5
 411 18 l 5
 471 38 l 5
 302 523 l 5
 140 40 l 5
 205 18 l 5
 205 0 l 5
 19 0 l 5
 19 18 l 5
 85 39 l 5
EndSplineSet
Fore
SplineSet
302 644 m 1
 368 644 l 1
 597 35 l 1
 653 18 l 1
 653 0 l 1
 411 0 l 1
 411 18 l 1
 471 38 l 1
 409 216 l 1
 199 216 l 1
 140 40 l 1
 205 18 l 1
 205 0 l 1
 19 0 l 1
 19 18 l 1
 85 39 l 1
 302 644 l 1
396 253 m 1
 302 523 l 1
 211 253 l 1
 396 253 l 1
EndSplineSet
Validated: 1
Ligature2: "SmallCapsClose subtable" A.smcpflag less slash s c greater
Substitution2: "Single Substitution lookup 16 subtable" A.smcpflag
EndChar

StartChar: B
Encoding: 34 66 34
Width: 641
VWidth: 0
Flags: HMW
LayerCount: 2
Back
Fore
SplineSet
58 638 m 1
 340 638 l 2
 494 638 548 598 548 489 c 3
 548 401 472 349 409 339 c 1
 510 330 586 285 586 187 c 3
 586 65 515 0 329 0 c 2
 55 0 l 1
 55 20 l 1
 132 45 l 1
 132 596 l 1
 58 618 l 1
 58 638 l 1
317 41 m 2
 418 41 467 85 467 182 c 3
 467 280 412 312 313 312 c 2
 245 312 l 1
 245 353 l 1
 291 353 l 2
 377 353 429 383 429 484 c 3
 429 573 374 598 295 598 c 2
 245 598 l 1
 245 41 l 1
 317 41 l 2
EndSplineSet
Validated: 5
Ligature2: "SmallCapsClose subtable" B.smcpflag less slash s c greater
Substitution2: "Single Substitution lookup 16 subtable" B.smcpflag
EndChar

StartChar: C
Encoding: 35 67 35
Width: 671
VWidth: 0
GlyphClass: 4
Flags: HMW
AnchorPoint: "top" 398 638 basemark 0
AnchorPoint: "bottom" 403 0 basemark 0
LayerCount: 2
Back
Fore
SplineSet
402 -12 m 7
 199 -12 87 96 87 311 c 7
 87 506 199 650 418 650 c 7
 506 650 566 632 600 617 c 5
 594 489 l 5
 547 489 l 5
 537 580 l 5
 510 592 455 607 406 607 c 7
 266 607 210 510 210 330 c 7
 210 137 296 35 430 35 c 7
 479 35 513 42 540 53 c 5
 557 153 l 5
 611 150 l 5
 603 30 l 5
 569 15 498 -12 402 -12 c 7
EndSplineSet
Validated: 1
Ligature2: "SmallCapsClose subtable" C.smcpflag less slash s c greater
Substitution2: "Single Substitution lookup 16 subtable" C.smcpflag
EndChar

StartChar: D
Encoding: 36 68 36
Width: 740
VWidth: 0
GlyphClass: 4
Flags: HMW
AnchorPoint: "top" 352 638 basemark 0
LayerCount: 2
Back
Fore
SplineSet
55 0 m 1
 55 20 l 1
 132 45 l 1
 132 596 l 1
 58 618 l 1
 58 638 l 1
 309 638 l 2
 588 638 666 532 666 335 c 3
 666 115 540 -2.75545529808e-14 315 0 c 2
 55 0 l 1
245 598 m 1
 245 41 l 9
 315 41 l 2
 468 41 549 111 549 335 c 3
 549 525 490 598 310 598 c 2
 245 598 l 1
EndSplineSet
Validated: 1048577
Ligature2: "SmallCapsClose subtable" D.smcpflag less slash s c greater
Substitution2: "Single Substitution lookup 16 subtable" D.smcpflag
EndChar

StartChar: E
Encoding: 37 69 37
Width: 589
VWidth: 0
GlyphClass: 4
Flags: HMW
AnchorPoint: "top" 319 638 basemark 0
LayerCount: 2
Back
Fore
SplineSet
245 596 m 1
 245 44 l 25
 470 44 l 21
 498 133 l 5
 539 128 l 5
 528 0 l 5
 55 0 l 1
 55 20 l 1
 132 45 l 1
 132 596 l 1
 58 618 l 1
 58 638 l 1
 502 638 l 5
 502 510 l 5
 460 507 l 5
 440 596 l 13
 245 596 l 1
245 312 m 1
 245 353 l 1
 389 353 l 9
 411 409 l 1
 449 409 l 1
 449 256 l 1
 411 256 l 1
 389 312 l 17
 245 312 l 1
EndSplineSet
Validated: 1048581
Ligature2: "SmallCapsClose subtable" E.smcpflag less slash s c greater
Substitution2: "Single Substitution lookup 16 subtable" E.smcpflag
EndChar

StartChar: F
Encoding: 38 70 38
Width: 514
VWidth: 0
Flags: HMW
LayerCount: 2
Back
Fore
SplineSet
242 38 m 1
 328 20 l 1
 328 0 l 1
 55 0 l 1
 55 20 l 1
 129 45 l 1
 129 596 l 1
 55 618 l 1
 55 638 l 1
 489 638 l 1
 489 510 l 1
 447 507 l 1
 427 596 l 9
 242 596 l 9
 242 38 l 1
242 302 m 1
 242 343 l 1
 376 343 l 9
 398 399 l 1
 436 399 l 1
 436 246 l 1
 398 246 l 1
 376 302 l 17
 242 302 l 1
EndSplineSet
Validated: 5
Ligature2: "SmallCapsClose subtable" F.smcpflag less slash s c greater
Substitution2: "Single Substitution lookup 16 subtable" F.smcpflag
EndChar

StartChar: G
Encoding: 39 71 39
Width: 705
VWidth: 0
GlyphClass: 4
Flags: HMW
AnchorPoint: "bottom" 403 0 basemark 0
AnchorPoint: "top" 398 638 basemark 0
LayerCount: 2
Back
Fore
SplineSet
503 42 m 1
 503 246 l 17
 419 268 l 1
 419 286 l 1
 664 286 l 1
 664 268 l 1
 616 246 l 9
 616 39 l 1
 559 5 490 -12 402 -12 c 3
 198 -12 87 96 87 311 c 3
 87 506 198 650 418 650 c 3
 506 650 566 632 600 617 c 1
 594 489 l 1
 547 489 l 1
 537 580 l 1
 510 592 455 607 406 607 c 3
 266 607 210 510 210 330 c 3
 210 137 297 34 425 34 c 3
 461 34 490 37 503 42 c 1
EndSplineSet
Validated: 1
Ligature2: "SmallCapsClose subtable" G.smcpflag less slash s c greater
Substitution2: "Single Substitution lookup 16 subtable" G.smcpflag
EndChar

StartChar: H
Encoding: 40 72 40
Width: 736
VWidth: 0
GlyphClass: 4
Flags: HMW
AnchorPoint: "top" 353 638 basemark 0
LayerCount: 2
Back
Fore
SplineSet
55 638 m 5
 310 638 l 1
 310 618 l 1
 242 596 l 1
 242 352 l 1
 494 352 l 1
 494 596 l 1
 426 618 l 1
 426 638 l 1
 681 638 l 1
 681 618 l 1
 607 596 l 1
 607 39 l 1
 681 20 l 1
 681 0 l 1
 426 0 l 1
 426 20 l 1
 494 45 l 1
 494 309 l 1
 242 309 l 1
 242 39 l 1
 310 20 l 1
 310 0 l 1
 55 0 l 1
 55 20 l 1
 129 45 l 1
 129 596 l 1
 55 618 l 1
 55 638 l 5
EndSplineSet
Validated: 1048577
Ligature2: "SmallCapsClose subtable" H.smcpflag less slash s c greater
Substitution2: "Single Substitution lookup 16 subtable" H.smcpflag
EndChar

StartChar: I
Encoding: 41 73 41
Width: 380
VWidth: 0
GlyphClass: 4
Flags: HMW
AnchorPoint: "top" 191 638 basemark 0
LayerCount: 2
Back
Fore
SplineSet
247 596 m 1
 247 39 l 1
 320 20 l 1
 320 0 l 1
 60 0 l 1
 60 20 l 1
 133 45 l 1
 133 596 l 1
 60 618 l 1
 60 638 l 1
 320 638 l 1
 320 618 l 1
 247 596 l 1
EndSplineSet
Validated: 1048577
Ligature2: "SmallCapsClose subtable" I.smcpflag less slash s c greater
Substitution2: "Single Substitution lookup 16 subtable" I.smcpflag
EndChar

StartChar: J
Encoding: 42 74 42
Width: 368
VWidth: 0
GlyphClass: 4
Flags: HMW
AnchorPoint: "top" 183 638 basemark 0
LayerCount: 2
Back
Fore
SplineSet
240 596 m 1
 240 61 l 2
 240 -54 165 -165 52 -231 c 1
 40 -214 l 1
 113 -150 126 -41 126 22 c 2
 126 596 l 1
 53 618 l 1
 53 638 l 1
 313 638 l 1
 313 618 l 1
 240 596 l 1
EndSplineSet
Validated: 1048577
Ligature2: "SmallCapsClose subtable" J.smcpflag less slash s c greater
Substitution2: "Single Substitution lookup 16 subtable" J.smcpflag
EndChar

StartChar: K
Encoding: 43 75 43
Width: 669
VWidth: 0
GlyphClass: 4
Flags: HMW
AnchorPoint: "bottom" 362 0 basemark 0
LayerCount: 2
Back
Fore
SplineSet
240 596 m 1
 240 39 l 1
 304 20 l 1
 304 0 l 1
 55 0 l 1
 55 20 l 1
 127 45 l 1
 127 596 l 1
 55 618 l 1
 55 638 l 1
 296 638 l 1
 296 618 l 1
 240 596 l 1
545 594 m 1
 345 354 l 1
 583 60 l 9
 629 18 l 1
 629 0 l 1
 479 0 l 1
 259 317 l 1
 303 365 l 1
 486 593 l 1
 438 613 l 1
 438 638 l 1
 614 638 l 1
 614 613 l 1
 545 594 l 1
EndSplineSet
Validated: 1048577
Ligature2: "SmallCapsClose subtable" K.smcpflag less slash s c greater
Substitution2: "Single Substitution lookup 16 subtable" K.smcpflag
EndChar

StartChar: L
Encoding: 44 76 44
Width: 562
VWidth: 0
GlyphClass: 4
Flags: HMW
AnchorPoint: "bottom" 311 0 basemark 0
AnchorPoint: "top" 192 638 basemark 0
LayerCount: 2
Back
Fore
SplineSet
245 596 m 9
 245 44 l 25
 473 44 l 17
 496 133 l 1
 542 128 l 1
 521 0 l 1
 55 0 l 1
 55 20 l 1
 132 45 l 1
 132 596 l 1
 59 618 l 1
 59 638 l 1
 318 638 l 1
 318 618 l 1
 245 596 l 9
EndSplineSet
Validated: 1
Ligature2: "SmallCapsClose subtable" L.smcpflag less slash s c greater
Substitution2: "Single Substitution lookup 16 subtable" L.smcpflag
EndChar

StartChar: M
Encoding: 45 77 45
Width: 910
VWidth: 0
Flags: HMW
LayerCount: 2
Back
Fore
SplineSet
54 638 m 1
 284 638 l 1
 459 161 l 1
 637 638 l 1
 850 638 l 1
 850 615 l 1
 781 599 l 1
 781 43 l 1
 855 20 l 1
 855 0 l 1
 605 0 l 1
 605 20 l 1
 669 43 l 1
 669 584 l 1
 666 584 l 1
 452 27 l 1
 392 27 l 1
 184 581 l 1
 179 581 l 1
 179 43 l 1
 237 20 l 1
 237 0 l 1
 45 0 l 1
 45 20 l 1
 125 43 l 1
 125 599 l 1
 54 615 l 1
 54 638 l 1
EndSplineSet
Validated: 1
Ligature2: "SmallCapsClose subtable" M.smcpflag less slash s c greater
Substitution2: "Single Substitution lookup 16 subtable" M.smcpflag
EndChar

StartChar: N
Encoding: 46 78 46
Width: 703
VWidth: 0
GlyphClass: 4
Flags: HMW
AnchorPoint: "bottom" 354 0 basemark 0
AnchorPoint: "top" 359 638 basemark 0
LayerCount: 2
Back
Fore
SplineSet
476 638 m 5
 663 638 l 1
 663 618 l 1
 593 595 l 17
 593 -3 l 1
 514 -3 l 1
 539 167 l 1
 539 595 l 1
 476 618 l 1
 476 638 l 5
44 638 m 1
 224 638 l 1
 539 167 l 1
 514 -3 l 1
 171 513 l 1
 169 513 l 1
 169 43 l 1
 232 20 l 1
 232 0 l 1
 40 0 l 1
 40 20 l 1
 115 43 l 1
 115 601 l 1
 44 617 l 1
 44 638 l 1
EndSplineSet
Validated: 5
Ligature2: "SmallCapsClose subtable" N.smcpflag less slash s c greater
Substitution2: "Single Substitution lookup 16 subtable" N.smcpflag
EndChar

StartChar: O
Encoding: 47 79 47
Width: 743
VWidth: 0
GlyphClass: 4
Flags: HMW
AnchorPoint: "top" 372 638 basemark 0
LayerCount: 2
Back
Fore
SplineSet
382 608 m 3
 310 608 269 585 238 551 c 1
 205 500 183 455 183 330 c 3
 183 143 266 32 366 32 c 3
 438 32 477 56 508 90 c 1
 541 141 559 185 559 310 c 3
 559 497 482 608 382 608 c 3
347 -12 m 3
 215 -12 60 68 60 300 c 3
 60 524 183 650 392 650 c 3
 524 650 683 572 683 340 c 3
 683 116 556 -12 347 -12 c 3
EndSplineSet
Validated: 1048577
Ligature2: "SmallCapsClose subtable" O.smcpflag less slash s c greater
Substitution2: "Single Substitution lookup 16 subtable" O.smcpflag
EndChar

StartChar: P
Encoding: 48 80 48
Width: 559
VWidth: 0
Flags: HMW
LayerCount: 2
Back
Fore
SplineSet
241 600 m 9
 241 38 l 1
 323 20 l 1
 323 0 l 1
 55 0 l 1
 55 20 l 1
 129 45 l 1
 129 596 l 1
 55 618 l 1
 55 638 l 1
 329 638 l 2
 480 638 539 582 539 465 c 3
 539 343 455 256 282 256 c 2
 275 256 l 1
 275 288 l 1
 281 288 l 2
 386 288 420 352 420 457 c 3
 420 559 380 600 291 600 c 2
 241 600 l 9
EndSplineSet
Validated: 1
Ligature2: "SmallCapsClose subtable" P.smcpflag less slash s c greater
Substitution2: "Single Substitution lookup 16 subtable" P.smcpflag
EndChar

StartChar: Q
Encoding: 49 81 49
Width: 743
VWidth: 0
Flags: HMW
LayerCount: 2
Back
Fore
SplineSet
569 -70 m 1
 569 -85 l 1
 536 -160 l 1
 520 -160 l 1
 302 -60 l 1
 320 -16 l 1
 569 -70 l 1
EndSplineSet
Refer: 47 79 N 1 0 0 1 0 0 2
Validated: 1
Ligature2: "SmallCapsClose subtable" Q.smcpflag less slash s c greater
Substitution2: "Single Substitution lookup 16 subtable" Q.smcpflag
EndChar

StartChar: R
Encoding: 50 82 50
Width: 630
VWidth: 0
GlyphClass: 4
Flags: HMW
AnchorPoint: "bottom" 350 0 basemark 0
AnchorPoint: "top" 318 638 basemark 0
LayerCount: 2
Back
Fore
SplineSet
241 600 m 9
 241 38 l 1
 307 20 l 1
 307 0 l 1
 54 0 l 1
 54 20 l 1
 128 45 l 1
 128 596 l 1
 54 618 l 1
 54 638 l 1
 338 638 l 2
 474 638 530 587 530 487 c 3
 530 375 441 327 385 310 c 1
 564 63 l 1
 606 18 l 1
 606 0 l 1
 466 0 l 1
 266 316 l 1
 266 327 l 17
 371 327 409 371 409 482 c 3
 409 561 383 600 313 600 c 2
 241 600 l 9
EndSplineSet
Validated: 1
Ligature2: "SmallCapsClose subtable" R.smcpflag less slash s c greater
Substitution2: "Single Substitution lookup 16 subtable" R.smcpflag
EndChar

StartChar: S
Encoding: 51 83 51
Width: 510
VWidth: 0
GlyphClass: 4
Flags: HMW
AnchorPoint: "bottom" 254 0 basemark 0
AnchorPoint: "top" 257 638 basemark 0
LayerCount: 2
Back
Fore
SplineSet
116 54 m 5
 161 34 195 27 237 27 c 7
 303 27 351 65 351 133 c 7
 351 196 328.14453125 224.939453125 233 269 c 4
 114.377929688 323.932617188 51 380 51 486 c 7
 51 577 127 650 258 650 c 7
 335 650 394 637 419 631 c 5
 419 507 l 5
 372 504 l 5
 354 597 l 5
 334 604 302 613 257 613 c 7
 199 613 152 581 152 512 c 7
 152 451 184.973632812 423.356445312 273 383 c 4
 392.314453125 328.299804688 465 279 465 170 c 7
 465 69 389 -12 230 -12 c 7
 159 -12 101 -2 53 14 c 5
 48 151 l 5
 95 154 l 5
 116 54 l 5
EndSplineSet
Validated: 1
Ligature2: "SmallCapsClose subtable" S.smcpflag less slash s c greater
Substitution2: "Single Substitution lookup 16 subtable" S.smcpflag
EndChar

StartChar: T
Encoding: 52 84 52
Width: 552
VWidth: 0
GlyphClass: 4
Flags: HMW
AnchorPoint: "bottom" 277 0 basemark 0
AnchorPoint: "top" 278 638 basemark 0
LayerCount: 2
Back
Fore
SplineSet
333 598 m 9
 333 39 l 9
 406 20 l 1
 406 0 l 1
 146 0 l 1
 146 20 l 1
 220 45 l 17
 220 598 l 17
 73 598 l 1
 52 503 l 1
 10 505 l 1
 15 643 l 1
 35 643 l 1
 87 638 l 1
 465 638 l 1
 517 643 l 1
 537 643 l 1
 542 505 l 1
 500 503 l 1
 480 598 l 1
 333 598 l 9
EndSplineSet
Validated: 1
Ligature2: "SmallCapsClose subtable" T.smcpflag less slash s c greater
Substitution2: "Single Substitution lookup 16 subtable" T.smcpflag
EndChar

StartChar: U
Encoding: 53 85 53
Width: 688
VWidth: 0
GlyphClass: 4
Flags: HMW
AnchorPoint: "top" 367 638 basemark 0
LayerCount: 2
Back
Fore
SplineSet
527 245 m 2
 527 596 l 1
 456 618 l 1
 456 638 l 1
 646 638 l 1
 646 618 l 1
 581 596 l 1
 581 246 l 2
 581 85 517 -12 354 -12 c 3
 177 -12 111 68 111 243 c 2
 111 596 l 1
 40 618 l 1
 40 638 l 1
 287 638 l 1
 287 618 l 1
 226 596 l 1
 226 242 l 2
 226 99 280 43 380 43 c 3
 474 43 527 88 527 245 c 2
EndSplineSet
Validated: 1048577
Ligature2: "SmallCapsClose subtable" U.smcpflag less slash s c greater
Substitution2: "Single Substitution lookup 16 subtable" U.smcpflag
EndChar

StartChar: V
Encoding: 54 86 54
Width: 646
VWidth: 0
Flags: HMW
LayerCount: 2
Back
Fore
SplineSet
568 599 m 1
 356 -12 l 1
 302 -12 l 1
 80 601 l 1
 15 617 l 1
 15 638 l 1
 265 638 l 1
 265 617 l 1
 207 598 l 1
 364 140 l 1
 514 598 l 1
 439 617 l 1
 439 638 l 1
 641 638 l 1
 641 617 l 1
 568 599 l 1
EndSplineSet
Validated: 1
Ligature2: "SmallCapsClose subtable" V.smcpflag less slash s c greater
Substitution2: "Single Substitution lookup 16 subtable" V.smcpflag
EndChar

StartChar: W
Encoding: 55 87 55
Width: 952
VWidth: 0
GlyphClass: 4
Flags: HMW
AnchorPoint: "top" 493 638 basemark 0
LayerCount: 2
Back
Fore
SplineSet
546 598 m 1
 684 158 l 1
 816 598 l 1
 745 617 l 1
 745 638 l 1
 947 638 l 1
 947 617 l 1
 874 599 l 1
 679 -12 l 1
 625 -12 l 1
 482 437 l 1
 482 436 339 -12 339 -12 c 1
 285 -12 l 1
 80 601 l 1
 15 617 l 1
 15 638 l 1
 265 638 l 1
 265 617 l 1
 207 598 l 1
 345 157 l 1
 483 598 l 1
 546 598 l 1
EndSplineSet
Validated: 1048577
Ligature2: "SmallCapsClose subtable" W.smcpflag less slash s c greater
Substitution2: "Single Substitution lookup 16 subtable" W.smcpflag
EndChar

StartChar: X
Encoding: 56 88 56
Width: 639
VWidth: 0
Flags: HMW
LayerCount: 2
Back
SplineSet
311 356 m 1
 343 332 l 1
 163 42 l 1
 215 21 l 1
 215 0 l 1
 35 0 l 1
 35 21 l 1
 105 41 l 1
 311 356 l 1
367 340 m 1
 336 364 l 1
 475 597 l 1
 439 617 l 1
 439 638 l 1
 600 638 l 1
 600 617 l 1
 532 598 l 1
 367 340 l 1
245 601 m 1
 362 384 l 1
 572 34 l 1
 622 21 l 1
 622 0 l 1
 417 0 l 1
 417 21 l 1
 440 32 l 1
 291 299 l 1
 110 603 l 1
 59 617 l 1
 59 638 l 1
 283 638 l 1
 283 617 l 1
 245 601 l 1
EndSplineSet
Fore
SplineSet
59 638 m 1
 283 638 l 1
 283 617 l 1
 245 601 l 1
 355 396 l 1
 475 597 l 1
 439 617 l 1
 439 638 l 1
 600 638 l 1
 600 617 l 1
 532 598 l 1
 378 357 l 1
 572 34 l 1
 622 21 l 1
 622 0 l 1
 417 0 l 1
 417 21 l 1
 440 32 l 1
 306 272 l 1
 163 42 l 1
 215 21 l 1
 215 0 l 1
 35 0 l 1
 35 21 l 1
 105 41 l 1
 283 313 l 1
 110 603 l 1
 59 617 l 1
 59 638 l 1
EndSplineSet
Validated: 1
Ligature2: "SmallCapsClose subtable" X.smcpflag less slash s c greater
Substitution2: "Single Substitution lookup 16 subtable" X.smcpflag
EndChar

StartChar: Y
Encoding: 57 89 57
Width: 593
VWidth: 0
GlyphClass: 4
Flags: HMW
AnchorPoint: "top" 303 638 basemark 0
LayerCount: 2
Back
SplineSet
500 598 m 1
 323 237 l 1
 258 237 l 1
 76 601 l 1
 15 617 l 1
 15 638 l 1
 245 638 l 1
 245 617 l 1
 206 598 l 1
 325 345 l 1
 446 597 l 1
 391 617 l 1
 391 638 l 1
 565 638 l 1
 565 617 l 1
 500 598 l 1
348 39 m 9
 422 20 l 1
 422 0 l 1
 163 0 l 1
 163 20 l 1
 235 45 l 17
 235 294 l 1
 348 294 l 1
 348 39 l 9
EndSplineSet
Fore
SplineSet
15 638 m 1
 245 638 l 1
 245 617 l 1
 206 598 l 1
 325 345 l 1
 446 597 l 1
 391 617 l 1
 391 638 l 1
 565 638 l 1
 565 617 l 1
 500 598 l 1
 348 288 l 1
 348 39 l 1
 422 20 l 1
 422 0 l 1
 163 0 l 1
 163 20 l 1
 235 45 l 1
 235 283 l 1
 76 601 l 1
 15 617 l 1
 15 638 l 1
EndSplineSet
Validated: 1048577
Ligature2: "SmallCapsClose subtable" Y.smcpflag less slash s c greater
Substitution2: "Single Substitution lookup 16 subtable" Y.smcpflag
EndChar

StartChar: Z
Encoding: 58 90 58
Width: 570
VWidth: 0
GlyphClass: 4
Flags: HMW
AnchorPoint: "top" 285 638 basemark 0
LayerCount: 2
Back
Fore
SplineSet
458 44 m 1
 478 143 l 1
 524 138 l 1
 505 0 l 1
 57 0 l 1
 45 28 l 1
 362 594 l 1
 131 594 l 1
 113 500 l 1
 66 502 l 1
 80 643 l 1
 100 643 l 1
 152 638 l 1
 488 638 l 1
 502 611 l 1
 183 44 l 1
 458 44 l 1
EndSplineSet
Validated: 1048577
Ligature2: "SmallCapsClose subtable" Z.smcpflag less slash s c greater
Substitution2: "Single Substitution lookup 16 subtable" Z.smcpflag
EndChar

StartChar: bracketleft
Encoding: 59 91 59
Width: 330
VWidth: 0
Flags: HMW
LayerCount: 2
Back
Fore
SplineSet
262 685 m 1
 262 662 l 1
 185 649 l 25
 185 -111 l 25
 265 -124 l 1
 265 -147 l 1
 110 -147 l 1
 110 685 l 1
 262 685 l 1
EndSplineSet
Validated: 1
EndChar

StartChar: backslash
Encoding: 60 92 60
Width: 286
VWidth: 0
Flags: HMW
LayerCount: 2
Back
Fore
SplineSet
22 686 m 1
 258 -38 l 1
 216 -53 l 1
 -20 671 l 1
 22 686 l 1
EndSplineSet
Validated: 1
EndChar

StartChar: bracketright
Encoding: 61 93 61
Width: 330
VWidth: 0
Flags: HMW
LayerCount: 2
Back
Fore
SplineSet
68 685 m 1
 220 685 l 1
 220 -147 l 1
 65 -147 l 1
 65 -124 l 1
 145 -111 l 25
 145 649 l 25
 68 662 l 1
 68 685 l 1
EndSplineSet
Validated: 1
EndChar

StartChar: asciicircum
Encoding: 62 94 62
Width: 480
VWidth: 0
Flags: HMW
LayerCount: 2
Back
Fore
SplineSet
240 557 m 1
 80 433 l 1
 52 465 l 1
 240 650 l 1
 428 465 l 1
 400 433 l 1
 240 557 l 1
EndSplineSet
Validated: 1
EndChar

StartChar: underscore
Encoding: 63 95 63
Width: 500
VWidth: 0
Flags: HMW
LayerCount: 2
Back
Fore
SplineSet
0 -230 m 1
 0 -186 l 1
 500 -186 l 1
 500 -230 l 1
 0 -230 l 1
EndSplineSet
Validated: 1
EndChar

StartChar: a
Encoding: 65 97 65
Width: 484
VWidth: -3
GlyphClass: 4
Flags: HMW
AnchorPoint: "top" 229 425 basemark 0
LayerCount: 2
Back
Fore
SplineSet
239 437 m 3
 332 437 393 398 393 289 c 2
 393 97 l 1
 405 36 l 1
 454 32 l 1
 455 15 l 1
 290 -9 l 5
 285 70 l 1
 254 13 195 -12 147 -12 c 3
 72 -12 40 47 40 97 c 3
 40 136 65 199 141 214 c 0
 210 228 253 230 283 234 c 1
 283 269 l 2
 283 344 260 382 195 382 c 3
 153 382 131 374 91 355 c 1
 76 380 l 1
 127 417 178 437 239 437 c 3
283 199 m 1
 253 196 218.63671875 192.592773438 194 184 c 0
 156.647071528 170.972077944 154 139 154 110 c 3
 154 72 173 52 202 52 c 3
 234 52 268 83 283 139 c 1
 283 199 l 1
EndSplineSet
Validated: 1048577
Substitution2: "Single Substitution lookup 16 subtable" a.smcpflag
Substitution2: "'smcp' Lowercase to Small Capitals lookup 12-1" a.smcp
EndChar

StartChar: b
Encoding: 66 98 66
Width: 556
VWidth: -3
Flags: HMW
LayerCount: 2
Back
Fore
SplineSet
196 693 m 1
 196 102 l 1
 206 44 l 1
 86 15 l 1
 86 647 l 1
 15 659 l 1
 15 677 l 1
 196 693 l 1
511 235 m 3
 511 134 448 -12 268 -12 c 3
 193 -12 129 -6 86 15 c 1
 206 44 l 1
 228 31 250 28 282 28 c 3
 343 28 397 82 397 219 c 3
 397 344 356 374 296 374 c 3
 254 374 216 346 196 299 c 1
 196 352 l 1
 224 393 267 437 354 437 c 3
 443 437 511 379 511 235 c 3
EndSplineSet
Validated: 5
Substitution2: "Single Substitution lookup 16 subtable" b.smcpflag
Substitution2: "'smcp' Lowercase to Small Capitals lookup 12-1" b.smcp
EndChar

StartChar: c
Encoding: 67 99 67
Width: 433
VWidth: -3
GlyphClass: 4
Flags: HMW
AnchorPoint: "top" 253 425 basemark 0
AnchorPoint: "bottom" 263 0 basemark 0
LayerCount: 2
Back
Fore
SplineSet
261 396 m 7
 201 396 155 352 155 232 c 3
 155 111 205 43 286 43 c 3
 329 43 367 50 388 63 c 1
 401 46 l 1
 358 0 287 -12 239 -12 c 3
 132 -12 39 55 39 205 c 3
 39 366 156 437 281 437 c 7
 322 437 363 429 381 422 c 5
 388 318 l 5
 344 311 l 5
 323 386 l 5
 308 392 284 396 261 396 c 7
EndSplineSet
Validated: 1
Substitution2: "Single Substitution lookup 16 subtable" c.smcpflag
Substitution2: "'smcp' Lowercase to Small Capitals lookup 12-1" c.smcp
EndChar

StartChar: d
Encoding: 68 100 68
Width: 540
VWidth: -3
GlyphClass: 4
Flags: HMW
AnchorPoint: "top" 395 678 basemark 0
LayerCount: 2
Back
Fore
SplineSet
44 199 m 3
 44 341 127 437 269 437 c 3
 300 437 338 429 360 421 c 1
 360 380 l 1
 335 390 305 397 263 397 c 3
 195 397 158 345 158 218 c 3
 158 80 214 45 259 45 c 3
 306 45 331 56 360 82 c 1
 360 48 l 1
 325 10 281 -12 218 -12 c 3
 131 -12 44 49 44 199 c 3
470 693 m 1
 470 107 l 1
 482 36 l 1
 531 29 l 1
 532 12 l 1
 360 -9 l 17
 360 647 l 1
 289 659 l 1
 289 677 l 1
 470 693 l 1
EndSplineSet
Validated: 1048581
Substitution2: "Single Substitution lookup 16 subtable" d.smcpflag
Substitution2: "'smcp' Lowercase to Small Capitals lookup 12-1" d.smcp
EndChar

StartChar: e
Encoding: 69 101 69
Width: 448
VWidth: -3
GlyphClass: 4
Flags: HMW
AnchorPoint: "top" 240 425 basemark 0
LayerCount: 2
Back
SplineSet
238 400 m 7
 174 400 154 352 154 232 c 7
 154 93 206 39 291 39 c 7
 320 39 357 43 386 54 c 5
 393 36 l 5
 365 11 306 -12 252 -12 c 7
 105 -12 40 81 40 211 c 7
 40 352 132 437 251 437 c 7
 338 437 404 392 404 290 c 5
 396 232 l 5
 150 232 l 5
 150 266 l 5
 244 266 l 5
 301 275 l 5
 301 368 282 400 238 400 c 7
EndSplineSet
Fore
SplineSet
154 232 m 1
 154 93 206 39 291 39 c 3
 320 39 357 43 386 54 c 1
 393 36 l 1
 365 11 306 -12 252 -12 c 3
 105 -12 40 81 40 211 c 3
 40 352 132 437 251 437 c 3
 338 437 404 392 404 290 c 1
 396 232 l 1
 154 232 l 1
155 266 m 1
 244 266 l 1
 301 275 l 1
 301 368 282 400 238 400 c 3
 180 400 159 361 155 266 c 1
EndSplineSet
Validated: 1048577
Substitution2: "Single Substitution lookup 16 subtable" e.smcpflag
Substitution2: "'smcp' Lowercase to Small Capitals lookup 12-1" e.smcp
EndChar

StartChar: f
Encoding: 70 102 70
Width: 353
VWidth: -3
Flags: HMW
LayerCount: 2
Back
Fore
SplineSet
316 679 m 3
 349 679 369 676 387 671 c 1
 373 586 l 1
 358 580 l 1
 343 585 297 603 277 603 c 3
 253 603 243 600 232 587 c 1
 222 553 221 529 221 464 c 2
 221 425 l 1
 329 425 l 1
 329 387 l 1
 221 387 l 1
 221 34 l 1
 300 18 l 1
 300 0 l 1
 42 0 l 1
 42 18 l 1
 112 43 l 1
 112 387 l 1
 44 387 l 1
 44 403 l 1
 111 425 l 1
 112 425 l 1
 112 604 234 679 316 679 c 3
EndSplineSet
Validated: 1
Substitution2: "Single Substitution lookup 16 subtable" f.smcpflag
Substitution2: "'smcp' Lowercase to Small Capitals lookup 12-1" f.smcp
EndChar

StartChar: g
Encoding: 71 103 71
Width: 492
VWidth: 0
GlyphClass: 4
Flags: HMW
AnchorPoint: "top" 245 425 basemark 0
LayerCount: 2
Back
SplineSet
233 404 m 3
 188 404 174 369 174 293 c 3
 174 229 190 186 238 186 c 3
 282 186 296 215 296 294 c 3
 296 357 286 404 233 404 c 3
408 302 m 3
 408 214 342 151 231 151 c 3
 120 151 63 199 63 286 c 3
 63 372 129 437 240 437 c 3
 351 437 408 389 408 302 c 3
47 -124 m 3
 47 -61 130 -29 151 -19 c 1
 183 -27 l 1
 135 -60 119 -71 119 -112 c 3
 119 -163 166 -193 242 -193 c 3
 338 -193 363 -153 363 -109 c 3
 363 -79 344 -63 304 -54 c 2
 183 -27 l 1
 151 -19 l 17
 96 -5 73 18 73 63 c 3
 73 98 116 149 156 172 c 1
 182 160 l 1
 154 136 149 126 149 114 c 3
 149 100 165 91 197 84 c 2
 326 56 l 2
 431.169543243 33.1725022418 453 -9 453 -79 c 3
 453 -153 371 -230 224 -230 c 3
 118 -230 47 -195 47 -124 c 3
343 383 m 1
 334 408 l 1
 451 452 l 1
 461 442 l 1
 456 398 l 1
 343 383 l 1
EndSplineSet
Fore
SplineSet
451 452 m 1
 461 442 l 1
 456 398 l 1
 380 388 l 1
 399 366 408 337 408 302 c 3
 408 214 342 151 231 151 c 3
 211 151 193 153 177 156 c 1
 154 135 149 125 149 114 c 3
 149 100 165 91 197 84 c 2
 326 56 l 2
 431 33 453 -9 453 -79 c 3
 453 -153 371 -230 224 -230 c 3
 118 -230 47 -195 47 -124 c 3
 47 -61 130 -29 151 -19 c 1
 96 -5 73 18 73 63 c 3
 73 95 108 139 144 164 c 1
 90 184 63 226 63 286 c 3
 63 372 129 437 240 437 c 3
 285 437 322 429 349 414 c 1
 451 452 l 1
233 404 m 3
 188 404 174 369 174 293 c 3
 174 229 190 186 238 186 c 3
 282 186 296 215 296 294 c 3
 296 357 286 404 233 404 c 3
183 -27 m 1
 135 -60 119 -71 119 -112 c 3
 119 -163 166 -193 242 -193 c 3
 338 -193 363 -153 363 -109 c 3
 363 -79 344 -63 304 -54 c 2
 183 -27 l 1
EndSplineSet
Validated: 1048577
Substitution2: "Single Substitution lookup 16 subtable" g.smcpflag
Substitution2: "'smcp' Lowercase to Small Capitals lookup 12-1" g.smcp
EndChar

StartChar: h
Encoding: 72 104 72
Width: 605
VWidth: -3
GlyphClass: 4
Flags: HMW
AnchorPoint: "top" 305 678 basemark 0
LayerCount: 2
Back
Fore
SplineSet
222 693 m 1
 222 343 l 1
 259 391 292 437 375 437 c 3
 461 437 506 384 506 283 c 2
 506 34 l 1
 565 18 l 1
 565 0 l 1
 339 0 l 1
 339 18 l 1
 396 40 l 1
 396 265 l 2
 396 358 368 369 325 369 c 3
 278 369 249 339 222 297 c 1
 222 34 l 1
 276 18 l 1
 276 0 l 1
 45 0 l 1
 45 18 l 1
 112 43 l 1
 112 647 l 1
 41 659 l 1
 41 677 l 1
 222 693 l 1
EndSplineSet
Validated: 1048577
Substitution2: "Single Substitution lookup 16 subtable" h.smcpflag
Substitution2: "'smcp' Lowercase to Small Capitals lookup 12-1" h.smcp
EndChar

StartChar: i
Encoding: 73 105 73
Width: 314
VWidth: -3
Flags: HMW
LayerCount: 2
Back
Fore
SplineSet
219 34 m 1
 283 18 l 1
 283 0 l 1
 39 0 l 1
 39 18 l 1
 109 43 l 1
 109 389 l 1
 43 401 l 1
 43 419 l 1
 219 432 l 1
 219 34 l 1
224 603 m 7
 224 564 193 533 154 533 c 7
 115 533 85 564 85 603 c 7
 85 642 115 672 154 672 c 7
 193 672 224 642 224 603 c 7
EndSplineSet
Validated: 1
Substitution2: "Single Substitution lookup 16 subtable" i.smcpflag
Substitution2: "'smcp' Lowercase to Small Capitals lookup 12-1" i.smcp
EndChar

StartChar: j
Encoding: 74 106 74
Width: 318
VWidth: -3
Flags: HMW
LayerCount: 2
Back
Fore
SplineSet
224 603 m 3
 224 564 193 533 154 533 c 3
 115 533 85 564 85 603 c 3
 85 642 115 672 154 672 c 3
 193 672 224 642 224 603 c 3
45 419 m 5
 221 432 l 5
 221 61 l 6
 221 -56 145 -166 32 -232 c 5
 20 -215 l 5
 93 -151 111 -41 111 22 c 6
 111 389 l 5
 45 401 l 5
 45 419 l 5
EndSplineSet
Validated: 1
Substitution2: "Single Substitution lookup 16 subtable" j.smcpflag
Substitution2: "'smcp' Lowercase to Small Capitals lookup 12-1" j.smcp
EndChar

StartChar: k
Encoding: 75 107 75
Width: 555
VWidth: 0
GlyphClass: 4
Flags: HMW
AnchorPoint: "bottom" 310 0 basemark 0
LayerCount: 2
Back
Fore
SplineSet
44 677 m 1
 225 693 l 1
 225 34 l 1
 274 18 l 1
 274 0 l 1
 45 0 l 1
 45 18 l 1
 115 43 l 1
 115 647 l 1
 44 659 l 1
 44 677 l 1
376 384 m 13
 346 402 l 5
 346 425 l 5
 491 425 l 5
 491 402 l 5
 424 381 l 5
 318 260 l 1
 480 61 l 1
 525 18 l 1
 525 0 l 1
 388 0 l 1
 234 217 l 1
 376 384 l 13
EndSplineSet
Validated: 1048577
Substitution2: "Single Substitution lookup 16 subtable" k.smcpflag
Substitution2: "'smcp' Lowercase to Small Capitals lookup 12-1" k.smcp
EndChar

StartChar: l
Encoding: 76 108 76
Width: 320
VWidth: -3
GlyphClass: 4
Flags: HMW
AnchorPoint: "bottom" 177 0 basemark 0
AnchorPoint: "top" 169 678 basemark 0
LayerCount: 2
Back
Fore
SplineSet
44 677 m 1
 225 693 l 1
 225 34 l 1
 289 18 l 1
 289 0 l 1
 45 0 l 1
 45 18 l 1
 115 43 l 1
 115 647 l 1
 44 659 l 1
 44 677 l 1
EndSplineSet
Validated: 1
Substitution2: "Single Substitution lookup 16 subtable" l.smcpflag
Substitution2: "'smcp' Lowercase to Small Capitals lookup 12-1" l.smcp
EndChar

StartChar: m
Encoding: 77 109 77
Width: 863
VWidth: -3
Flags: HMW
LayerCount: 2
Back
Fore
SplineSet
638 437 m 3
 724 437 772 384 772 283 c 2
 772 34 l 1
 831 18 l 1
 831 0 l 1
 605 0 l 1
 605 18 l 1
 662 40 l 1
 662 265 l 2
 662 358 631 369 588 369 c 3
 546 369 520 337 493 297 c 1
 483 337 l 1
 519 391 553 437 638 437 c 3
216 435 m 1
 216 343 l 1
 251 394 277 437 360 437 c 3
 446 437 494 384 494 283 c 2
 494 34 l 1
 553 18 l 1
 553 0 l 1
 327 0 l 1
 327 18 l 1
 384 40 l 1
 384 265 l 2
 384 358 353 369 310 369 c 3
 268 369 243 339 216 297 c 1
 216 34 l 1
 270 18 l 1
 270 0 l 1
 39 0 l 1
 39 18 l 1
 106 43 l 1
 106 389 l 1
 40 401 l 1
 40 419 l 1
 216 435 l 1
EndSplineSet
Validated: 5
Substitution2: "Single Substitution lookup 16 subtable" m.smcpflag
Substitution2: "'smcp' Lowercase to Small Capitals lookup 12-1" m.smcp
EndChar

StartChar: n
Encoding: 78 110 78
Width: 591
VWidth: -3
GlyphClass: 4
Flags: HMW
AnchorPoint: "bottom" 305 0 basemark 0
AnchorPoint: "top" 302 425 basemark 0
LayerCount: 2
Back
Fore
SplineSet
216 435 m 5
 216 343 l 1
 253 391 286 437 369 437 c 3
 455 437 500 384 500 283 c 2
 500 34 l 1
 559 18 l 1
 559 0 l 1
 333 0 l 1
 333 18 l 1
 390 40 l 1
 390 265 l 2
 390 358 362 369 319 369 c 3
 277 369 243 339 216 297 c 1
 216 34 l 1
 270 18 l 1
 270 0 l 1
 39 0 l 1
 39 18 l 1
 106 43 l 1
 106 389 l 1
 40 401 l 1
 40 419 l 1
 216 435 l 5
EndSplineSet
Validated: 1
Substitution2: "Single Substitution lookup 16 subtable" n.smcpflag
Substitution2: "'smcp' Lowercase to Small Capitals lookup 12-1" n.smcp
EndChar

StartChar: o
Encoding: 79 111 79
Width: 518
VWidth: -3
GlyphClass: 4
Flags: HMW
AnchorPoint: "top" 265 425 basemark 0
LayerCount: 2
Back
Fore
SplineSet
263 399 m 7
 181 399 156 337 156 220 c 7
 156 101 199 27 259 27 c 7
 341 27 362 90 362 207 c 7
 362 326 323 399 263 399 c 7
270 437 m 7
 376 437 478 383 478 222 c 7
 478 77 392 -12 247 -12 c 7
 144 -12 40 44 40 205 c 7
 40 350 125 437 270 437 c 7
EndSplineSet
Validated: 1048577
Substitution2: "Single Substitution lookup 16 subtable" o.smcpflag
Substitution2: "'smcp' Lowercase to Small Capitals lookup 12-1" o.smcp
EndChar

StartChar: p
Encoding: 80 112 80
Width: 565
VWidth: -3
Flags: HMW
LayerCount: 2
Back
Fore
SplineSet
520 227 m 3
 520 131 457 -12 277 -12 c 3
 253 -12 225 -6 207 0 c 1
 207 39 l 1
 232 32 259 29 296 29 c 3
 364 29 404 79 404 216 c 3
 404 342 355 373 305 373 c 3
 262 373 227 346 207 299 c 1
 207 352 l 1
 235 393 280 437 355 437 c 3
 448 437 520 375 520 227 c 3
31 419 m 1
 207 432 l 1
 207 -196 l 1
 281 -212 l 1
 281 -230 l 1
 30 -230 l 1
 30 -212 l 1
 97 -189 l 1
 97 389 l 1
 31 401 l 1
 31 419 l 1
EndSplineSet
Validated: 5
Substitution2: "Single Substitution lookup 16 subtable" p.smcpflag
Substitution2: "'smcp' Lowercase to Small Capitals lookup 12-1" p.smcp
EndChar

StartChar: q
Encoding: 81 113 81
Width: 565
VWidth: -3
Flags: HMW
LayerCount: 2
Back
Fore
SplineSet
274 437 m 3
 356 437 446 419 470 410 c 1
 350 383 l 1
 325 392 305 397 263 397 c 3
 195 397 158 345 158 218 c 3
 158 80 214 45 259 45 c 3
 306 45 331 56 360 82 c 1
 360 48 l 1
 325 10 281 -12 218 -12 c 3
 131 -12 44 49 44 199 c 3
 44 341 127 437 274 437 c 3
470 -196 m 1
 534 -212 l 1
 534 -230 l 1
 290 -230 l 1
 290 -212 l 1
 360 -187 l 1
 360 337 l 1
 350 383 l 1
 470 410 l 1
 491 410 l 1
 470 333 l 1
 470 -196 l 1
EndSplineSet
Validated: 5
Substitution2: "Single Substitution lookup 16 subtable" q.smcpflag
Substitution2: "'smcp' Lowercase to Small Capitals lookup 12-1" q.smcp
EndChar

StartChar: r
Encoding: 82 114 82
Width: 419
VWidth: -3
GlyphClass: 4
Flags: HMW
AnchorPoint: "bottom" 178 0 basemark 0
AnchorPoint: "top" 243 425 basemark 0
LayerCount: 2
Back
Fore
SplineSet
216 432 m 1
 216 335 l 1
 248 387 285 434 340 434 c 3
 369 434 386 430 403 425 c 1
 392 331 l 1
 377 325 l 1
 353 332 335 338 305 338 c 3
 268 338 242 329 216 288 c 1
 216 35 l 1
 295 18 l 1
 295 0 l 1
 39 0 l 1
 39 18 l 1
 106 43 l 1
 106 389 l 1
 40 401 l 1
 40 419 l 1
 216 432 l 1
EndSplineSet
Validated: 1
Substitution2: "Single Substitution lookup 16 subtable" r.smcpflag
Substitution2: "'smcp' Lowercase to Small Capitals lookup 12-1" r.smcp
EndChar

StartChar: s
Encoding: 83 115 83
Width: 430
VWidth: 0
GlyphClass: 4
Flags: HMW
AnchorPoint: "bottom" 217 0 basemark 0
AnchorPoint: "top" 221 425 basemark 0
LayerCount: 2
Back
Fore
SplineSet
231 437 m 3
 277 437 320 427 350 418 c 1
 352 315 l 1
 311 312 l 1
 292 384 l 1
 277 392 257 399 223 399 c 3
 174 399 149 379 149 343 c 3
 149 308 185.424804688 288.743164062 239 265 c 0
 327 226 378 200 378 122 c 3
 378 43 324 -12 194 -12 c 3
 144 -12 95 -4 60 6 c 5
 54 114 l 5
 102 118 l 5
 116 44 l 5
 135 35 154 26 189 26 c 3
 245 26 276 46 276 92 c 3
 276 127 255.655273438 140.473632812 194 167 c 0
 108 204 60 239 60 311 c 3
 60 382 112 437 231 437 c 3
EndSplineSet
Validated: 1
Substitution2: "Single Substitution lookup 16 subtable" s.smcpflag
Substitution2: "'smcp' Lowercase to Small Capitals lookup 12-1" s.smcp
EndChar

StartChar: t
Encoding: 84 116 84
Width: 384
VWidth: 0
GlyphClass: 4
Flags: HMW
AnchorPoint: "bottom" 207 0 basemark 0
LayerCount: 2
Back
Fore
SplineSet
203 547 m 1
 217 547 l 1
 217 425 l 1
 327 425 l 1
 327 387 l 1
 217 387 l 1
 217 120 l 2
 217 64 230 41 269 41 c 3
 290 41 308 47 327 60 c 1
 340 39 l 1
 303 6 247 -12 195 -12 c 3
 136 -12 107 15 107 107 c 2
 107 387 l 1
 40 387 l 1
 40 403 l 1
 81 425 l 1
 107 425 l 1
 107 508 l 1
 203 547 l 1
EndSplineSet
Validated: 1048577
Substitution2: "Single Substitution lookup 16 subtable" t.smcpflag
Substitution2: "'smcp' Lowercase to Small Capitals lookup 12-1" t.smcp
EndChar

StartChar: u
Encoding: 85 117 85
Width: 570
VWidth: -3
GlyphClass: 4
Flags: HMW
AnchorPoint: "top" 280 425 basemark 0
LayerCount: 2
Back
Fore
SplineSet
201 429 m 1
 201 160 l 2
 201 77 225 56 266 56 c 3
 313 56 348 86 375 128 c 1
 375 388 l 1
 311 402 l 1
 311 420 l 1
 485 428 l 1
 485 107 l 5
 497 36 l 5
 546 29 l 5
 547 12 l 5
 375 -9 l 21
 375 82 l 5
 338 34 289 -12 211 -12 c 3
 130 -12 91 36 91 142 c 2
 91 389 l 1
 27 403 l 1
 27 421 l 1
 201 429 l 1
EndSplineSet
Validated: 1048577
Substitution2: "Single Substitution lookup 16 subtable" u.smcpflag
Substitution2: "'smcp' Lowercase to Small Capitals lookup 12-1" u.smcp
EndChar

StartChar: v
Encoding: 86 118 86
Width: 486
VWidth: -3
Flags: HMW
LayerCount: 2
Back
Fore
SplineSet
426 389 m 21
 267 -12 l 5
 224 -12 l 5
 55 393 l 5
 2 407 l 5
 2 425 l 5
 223 425 l 5
 223 407 l 5
 179 391 l 5
 280 126 l 5
 378 392 l 5
 323 407 l 5
 323 425 l 5
 489 425 l 5
 489 407 l 5
 426 389 l 21
EndSplineSet
Validated: 1
Substitution2: "Single Substitution lookup 16 subtable" v.smcpflag
Substitution2: "'smcp' Lowercase to Small Capitals lookup 12-1" v.smcp
EndChar

StartChar: w
Encoding: 87 119 87
Width: 750
VWidth: -3
GlyphClass: 4
Flags: HMW
AnchorPoint: "top" 390 425 basemark 0
LayerCount: 2
Back
Fore
SplineSet
434 411 m 5
 546 123 l 5
 642 392 l 5
 587 407 l 5
 587 425 l 5
 753 425 l 5
 753 407 l 5
 690 389 l 21
 536 -12 l 5
 493 -12 l 5
 372 290 l 5
 256 -12 l 5
 213 -12 l 5
 55 393 l 5
 2 407 l 5
 2 425 l 5
 219 425 l 5
 219 407 l 5
 173 391 l 5
 266 131 l 5
 374 411 l 5
 434 411 l 5
EndSplineSet
Validated: 1048577
Substitution2: "Single Substitution lookup 16 subtable" w.smcpflag
Substitution2: "'smcp' Lowercase to Small Capitals lookup 12-1" w.smcp
EndChar

StartChar: x
Encoding: 88 120 88
Width: 490
VWidth: 0
Flags: HMW
LayerCount: 2
Back
SplineSet
227 238 m 1
 250 214 l 1
 141 34 l 1
 175 18 l 1
 175 0 l 1
 30 0 l 1
 30 18 l 1
 95 36 l 1
 227 238 l 1
269 222 m 1
 246 246 l 1
 333 393 l 1
 311 407 l 1
 311 425 l 1
 442 425 l 1
 442 407 l 1
 379 391 l 1
 269 222 l 1
204 393 m 1
 275 255 l 1
 404 36 l 1
 460 18 l 1
 460 0 l 1
 275 0 l 1
 275 18 l 1
 288 30 l 1
 204 192 l 1
 87 390 l 1
 31 407 l 1
 31 425 l 1
 222 425 l 1
 222 407 l 1
 204 393 l 1
EndSplineSet
Fore
SplineSet
31 425 m 1
 222 425 l 1
 222 407 l 1
 204 393 l 1
 264 276 l 1
 333 393 l 1
 311 407 l 1
 311 425 l 1
 442 425 l 1
 442 407 l 1
 379 391 l 1
 282 243 l 1
 404 36 l 1
 460 18 l 1
 460 0 l 1
 275 0 l 1
 275 18 l 1
 288 30 l 1
 219 163 l 1
 141 34 l 1
 175 18 l 1
 175 0 l 1
 30 0 l 1
 30 18 l 1
 95 36 l 1
 201 198 l 1
 87 390 l 1
 31 407 l 1
 31 425 l 1
EndSplineSet
Validated: 1
Substitution2: "Single Substitution lookup 16 subtable" x.smcpflag
Substitution2: "'smcp' Lowercase to Small Capitals lookup 12-1" x.smcp
EndChar

StartChar: y
Encoding: 89 121 89
Width: 461
VWidth: -3
GlyphClass: 4
Flags: HMW
AnchorPoint: "top" 248 425 basemark 0
LayerCount: 2
Back
Fore
SplineSet
43 -122 m 1
 58 -125 95 -136 110 -136 c 3
 133 -136 158.607244938 -128.813564056 173 -101 c 0
 187.799774449 -72.3998832824 193 -57 212 -8 c 1
 44 393 l 1
 -8 407 l 1
 -8 425 l 1
 209 425 l 1
 209 407 l 1
 165 391 l 1
 266 132 l 1
 366 392 l 1
 308 407 l 1
 308 425 l 1
 474 425 l 1
 474 407 l 1
 411 389 l 1
 249 -12 l 2
 188.97308669 -160.585137266 150 -230 94 -230 c 3
 61 -230 44 -228 23 -223 c 1
 33 -129 l 1
 43 -122 l 1
EndSplineSet
Validated: 1048577
Substitution2: "Single Substitution lookup 16 subtable" y.smcpflag
Substitution2: "'smcp' Lowercase to Small Capitals lookup 12-1" y.smcp
EndChar

StartChar: z
Encoding: 90 122 90
Width: 435
VWidth: 0
GlyphClass: 4
Flags: HMW
AnchorPoint: "top" 220 425 basemark 0
LayerCount: 2
Back
Fore
SplineSet
341 36 m 1
 362 121 l 1
 405 116 l 1
 389 0 l 1
 37 0 l 1
 30 28 l 1
 258 389 l 1
 108 389 l 1
 91 310 l 1
 47 314 l 1
 61 430 l 1
 81 430 l 1
 136 425 l 1
 382 425 l 1
 391 398 l 1
 163 36 l 1
 341 36 l 1
EndSplineSet
Validated: 1048577
Substitution2: "Single Substitution lookup 16 subtable" z.smcpflag
Substitution2: "'smcp' Lowercase to Small Capitals lookup 12-1" z.smcp
EndChar

StartChar: braceleft
Encoding: 91 123 91
Width: 310
VWidth: 0
Flags: HMW
LayerCount: 2
Back
Fore
SplineSet
55 259 m 9
 55 279 l 17
 114 288 134 325 127 410 c 10
 118 520 l 18
 109 627 149 680 237 687 c 1
 240 666 l 1
 201 658 186 619 194 530 c 2
 203 434 l 18
 216 321 159 285 117 269 c 1
 159 253 216 217 203 104 c 10
 194 8 l 2
 186 -81 201 -120 240 -128 c 1
 237 -149 l 1
 149 -142 109 -89 118 18 c 10
 127 128 l 18
 134 213 114 250 55 259 c 9
EndSplineSet
Validated: 33
EndChar

StartChar: bar
Encoding: 92 124 92
Width: 204
VWidth: 0
Flags: HMW
LayerCount: 2
Back
Fore
SplineSet
78 770 m 1
 126 770 l 1
 126 -230 l 1
 78 -230 l 1
 78 770 l 1
EndSplineSet
Validated: 1
EndChar

StartChar: asciitilde
Encoding: 94 126 94
Width: 460
VWidth: 0
Flags: HMW
LayerCount: 2
Back
Fore
SplineSet
426 276 m 1
 445 254 l 1
 397 198 343 175 294 175 c 3
 227 175 184 212 123 212 c 3
 84 212 69 205 34 176 c 1
 15 198 l 1
 63 254 117 277 166 277 c 3
 233 277 276 240 337 240 c 3
 376 240 391 247 426 276 c 1
EndSplineSet
Validated: 1
EndChar

StartChar: cent
Encoding: 96 162 96
Width: 453
VWidth: 0
Flags: HMW
LayerCount: 2
Back
Fore
SplineSet
286 513 m 1
 313 510 l 1
 206 -91 l 1
 179 -88 l 1
 286 513 l 1
EndSplineSet
Refer: 67 99 N 1 0 0 1 6 0 2
Validated: 5
EndChar

StartChar: sterling
Encoding: 97 163 97
Width: 454
VWidth: -3
Flags: HMW
LayerCount: 2
Back
Fore
SplineSet
298 606 m 3
 331 606 351 603 369 598 c 1
 355 513 l 1
 340 507 l 1
 325 512 289 530 269 530 c 3
 245 530 233 526 222 518 c 1
 214 484 213 456 213 391 c 2
 213 336 l 1
 316 336 l 1
 316 298 l 1
 213 298 l 1
 213 44 l 1
 371 44 l 1
 390 128 l 1
 436 123 l 1
 419 0 l 1
 37 0 l 1
 37 20 l 1
 104 45 l 1
 104 298 l 1
 33 298 l 1
 33 314 l 1
 104 336 l 1
 104 352 l 2
 104 531 226 606 298 606 c 3
EndSplineSet
Validated: 1
EndChar

StartChar: yen
Encoding: 98 165 98
Width: 588
VWidth: 0
Flags: HMW
LayerCount: 2
Back
Fore
SplineSet
27 594 m 5
 257 594 l 1
 257 573 l 1
 217 554 l 1
 338 319 l 1
 451 553 l 1
 396 573 l 1
 396 594 l 1
 570 594 l 1
 570 573 l 1
 505 554 l 1
 328 217 l 1
 270 217 l 1
 88 557 l 1
 27 573 l 1
 27 594 l 5
245 274 m 1
 357 274 l 1
 357 243 l 1
 439 243 l 1
 439 209 l 1
 357 209 l 1
 357 153 l 1
 439 153 l 1
 439 119 l 1
 357 119 l 1
 357 39 l 1
 431 20 l 1
 431 0 l 1
 172 0 l 1
 172 20 l 1
 245 45 l 1
 245 119 l 1
 150 119 l 1
 150 135 l 1
 201 153 l 1
 245 153 l 1
 245 209 l 1
 150 209 l 1
 150 225 l 1
 201 243 l 1
 245 243 l 1
 245 274 l 1
EndSplineSet
Validated: 5
EndChar

StartChar: brokenbar
Encoding: 99 166 99
Width: 204
VWidth: 0
Flags: HMW
LayerCount: 2
Back
Fore
SplineSet
78 149 m 5
 126 149 l 1
 126 -230 l 1
 78 -230 l 5
 78 149 l 5
78 770 m 5
 126 770 l 1
 126 425 l 1
 78 425 l 5
 78 770 l 5
EndSplineSet
Validated: 1
EndChar

StartChar: section
Encoding: 100 167 100
Width: 474
VWidth: 0
Flags: HMW
LayerCount: 2
Back
Fore
SplineSet
176 361 m 1
 209 337 l 1
 175 319 137 301 137 242 c 3
 137 178 167.322638846 160.215032423 247 122 c 0
 362.242770895 66.7270069881 428 14 428 -66 c 3
 428 -148 349 -230 217 -230 c 3
 153 -230 98 -219 55 -202 c 1
 51 -83 l 1
 91 -81 l 1
 103 -165 l 1
 143 -188 203 -195 229 -195 c 3
 286 -195 334 -162 334 -99 c 3
 334 -48 303 -20 217 21 c 0
 110.554232902 71.7474005931 53 126 53 213 c 3
 53 286 128 340 176 361 c 1
241 650 m 3
 310 650 360 637 382 628 c 1
 382 521 l 1
 342 519 l 1
 332 597 l 1
 314 607 258 617 231 617 c 3
 184 617 147 583 147 526 c 3
 147 482 167.898570523 455.264894757 247 416 c 0
 357.289775405 361.253626229 414 319 414 229 c 3
 414 150 333 97 287 78 c 1
 247 104 l 1
 296 117 322 147 322 193 c 3
 322 259 294 276 209 319 c 0
 107.8842142 370.15269164 63 425 63 502 c 3
 63 575 137 650 241 650 c 3
EndSplineSet
Validated: 5
EndChar

StartChar: copyright
Encoding: 102 169 102
Width: 721
VWidth: 0
Flags: HMW
LayerCount: 2
Back
Fore
SplineSet
370 113 m 7
 245 113 153 182 153 341 c 7
 153 511 264 586 387 586 c 7
 444 586 492 576 510 569 c 5
 515 464 l 5
 477 458 l 5
 459 532 l 5
 443 540 411 546 382 546 c 7
 284 546 228 500 228 368 c 7
 228 235 283.994140625 155 391 155 c 7
 425 155 447 158 467 165 c 5
 478 245 l 5
 522 242 l 5
 517 146 l 5
 483 129 433 113 370 113 c 7
34 352 m 3
 34 169 172 30 360 30 c 3
 548 30 687 169 687 352 c 3
 687 535 548 674 360 674 c 3
 169 674 34 535 34 352 c 3
4 352 m 3
 4 551 156 704 360 704 c 3
 569 704 717 556 717 352 c 3
 717 153 564 0 360 0 c 3
 156 0 4 153 4 352 c 3
EndSplineSet
Validated: 1
EndChar

StartChar: ordfeminine
Encoding: 103 170 103
Width: 384
VWidth: -3
Flags: HMW
LayerCount: 2
Back
Fore
SplineSet
191 690 m 3
 251 690 301 662 301 582 c 2
 301 478 l 1
 308 419 l 1
 344 416 l 1
 344 394 l 1
 214 377 l 1
 211 432 l 1
 189 392 149 375 115 375 c 3
 63 375 40 417 40 452 c 3
 40 479 57 527 110 537 c 0
 158 547 189 548 210 551 c 1
 210 572 l 2
 210 625 184 642 144 642 c 3
 117 642 104 638 80 625 c 1
 65 650 l 1
 104 676 136 690 191 690 c 3
210 522 m 1
 196 520 187.919722795 518.498262858 174 516 c 0
 138.893554688 509.69921875 133 492 133 467 c 3
 133 443 143 433 164 433 c 3
 180 433 200 447 210 484 c 1
 210 522 l 1
EndSplineSet
Validated: 1
EndChar

StartChar: logicalnot
Encoding: 105 172 105
Width: 494
VWidth: 0
Flags: HMW
LayerCount: 2
Back
Fore
SplineSet
408 215 m 1
 452 259 l 1
 452 49 l 1
 408 49 l 1
 408 215 l 1
42 215 m 1
 42 259 l 1
 452 259 l 1
 408 215 l 1
 42 215 l 1
EndSplineSet
Validated: 5
EndChar

StartChar: registered
Encoding: 107 174 107
Width: 721
VWidth: 0
Flags: HMW
LayerCount: 2
Back
Fore
SplineSet
299 538 m 5
 299 156 l 5
 358 145 l 5
 358 125 l 5
 155 125 l 5
 155 143 l 5
 225 168 l 5
 225 538 l 5
 159 556 l 5
 159 574 l 5
 384 574 l 6
 481 574 532 557.022460938 532 468 c 7
 532 398 471 355 408 342 c 5
 534 188 l 5
 576 143 l 5
 576 125 l 5
 485 125 l 5
 322 348 l 5
 322 359 l 21
 417 359 452 398.967773438 452 462 c 7
 452 526.0078125 416 538 361 538 c 6
 299 538 l 5
34 352 m 3
 34 169 172 30 360 30 c 3
 548 30 687 169 687 352 c 3
 687 535 548 674 360 674 c 3
 169 674 34 535 34 352 c 3
4 352 m 3
 4 551 156 704 360 704 c 3
 569 704 717 556 717 352 c 3
 717 153 564 0 360 0 c 3
 156 0 4 153 4 352 c 3
EndSplineSet
Validated: 1
EndChar

StartChar: degree
Encoding: 109 176 109
Width: 282
VWidth: -3
Flags: HMW
LayerCount: 2
Back
Fore
SplineSet
142 655 m 3
 119 655 108 648 97 638 c 1
 83 621 77 609 77 581 c 3
 77 526 109 501 142 501 c 3
 165 501 175 508 186 518 c 1
 200 535 205 547 205 575 c 3
 205 630 175 655 142 655 c 3
135 465 m 3
 93 465 30 496 30 571 c 3
 30 643 79 690 146 690 c 3
 188 690 252 660 252 585 c 3
 252 513 202 465 135 465 c 3
EndSplineSet
Validated: 1
EndChar

StartChar: plusminus
Encoding: 110 177 110
Width: 460
VWidth: 0
Flags: HMW
LayerCount: 2
Back
Fore
SplineSet
42 24 m 1
 42 68 l 1
 418 68 l 1
 418 24 l 1
 42 24 l 1
208 425 m 1
 252 425 l 1
 252 108 l 1
 208 108 l 1
 208 425 l 1
42 244 m 1
 42 288 l 1
 418 288 l 1
 418 244 l 1
 42 244 l 1
EndSplineSet
Validated: 5
EndChar

StartChar: uni00B2
Encoding: 111 178 111
Width: 415
VWidth: 0
GlyphClass: 3
Flags: HMW
LayerCount: 2
Back
Fore
SplineSet
175 712 m 3
 146 712 129 707 93 693 c 1
 80 719 l 1
 128 754 161 770 222 770 c 3
 294 770 334 723 334 651 c 3
 334 562 249 495 175 434 c 5
 307 434 l 9
 334 473 l 1
 355 468 l 1
 338 358 l 1
 66 358 l 1
 60 390 l 1
 215 487 236 563 236 638 c 3
 236 693 203 712 175 712 c 3
EndSplineSet
Validated: 1
Ligature2: "Opentypeshortcuts subtable" asciicircum two
LCarets2: 1 0
Ligature2: "'dlig' Discretionary Ligatures lookup 3-1" asciicircum two
EndChar

StartChar: uni00B3
Encoding: 112 179 112
Width: 383
VWidth: 0
GlyphClass: 3
Flags: HMW
LayerCount: 2
Back
Fore
SplineSet
321 486 m 3
 321 392 203 348 60 348 c 1
 60 385 l 1
 189 385 218 424 218 474 c 3
 218 501 209.162440469 520.502535719 185 535 c 0
 165 547 154 548 133 549 c 1
 130 570 l 1
 172 597 189 626 189 672 c 3
 189 703 164 720 130 720 c 3
 109 720 95 717 72 711 c 1
 64 733 l 1
 100 755 131 770 184 770 c 3
 252 770 287 737 287 683 c 3
 287 625 241 593 201 578 c 1
 221 577 242.270464526 571.748111405 257 566 c 0
 298 550 321 526 321 486 c 3
EndSplineSet
Validated: 1
Ligature2: "Opentypeshortcuts subtable" asciicircum three
LCarets2: 1 0
Ligature2: "'dlig' Discretionary Ligatures lookup 3-1" asciicircum three
EndChar

StartChar: mu
Encoding: 114 181 114
Width: 571
VWidth: -3
Flags: HMW
LayerCount: 2
Back
Fore
SplineSet
207 429 m 1
 207 160 l 2
 207 77 228 51 273 51 c 3
 320 51 354 84 381 128 c 1
 381 388 l 1
 317 402 l 1
 317 420 l 1
 491 428 l 1
 491 107 l 1
 503 36 l 1
 552 29 l 1
 553 12 l 1
 381 -9 l 17
 381 82 l 1
 344 31 313 -12 230 -12 c 3
 215 -12 194 -4 180 11 c 1
 211 -202 l 1
 98 -230 l 1
 87 -215 l 1
 97 -38 l 1
 97 389 l 1
 33 403 l 1
 33 421 l 1
 207 429 l 1
EndSplineSet
Validated: 1
EndChar

StartChar: paragraph
Encoding: 115 182 115
Width: 523
VWidth: 0
Flags: HMW
LayerCount: 2
Back
Fore
SplineSet
289 600 m 5
 289 0 l 5
 244 0 l 5
 244 256 l 5
 111 256 25 318 25 437 c 7
 25 554 92 638 235 638 c 6
 473 638 l 5
 473 618 l 5
 399 596 l 5
 399 0 l 5
 354 0 l 5
 354 600 l 5
 289 600 l 5
EndSplineSet
Validated: 1
EndChar

StartChar: uni00B9
Encoding: 118 185 118
Width: 352
VWidth: -3
GlyphClass: 3
Flags: HMW
LayerCount: 2
Back
Fore
SplineSet
229 394 m 1
 299 378 l 1
 299 359 l 1
 55 359 l 1
 55 378 l 1
 136 403 l 1
 136 717 l 1
 65 729 l 1
 65 749 l 1
 229 764 l 1
 229 394 l 1
EndSplineSet
Validated: 1
Ligature2: "Opentypeshortcuts subtable" asciicircum one
LCarets2: 1 0
Ligature2: "'dlig' Discretionary Ligatures lookup 3-1" asciicircum one
EndChar

StartChar: ordmasculine
Encoding: 119 186 119
Width: 393
VWidth: -3
Flags: HMW
LayerCount: 2
Back
Fore
SplineSet
199 657 m 3
 178 657 171 654 156 642 c 1
 141 619 136 592 136 538 c 3
 136 455 160 409 196 409 c 3
 217 409 224 413 239 425 c 1
 254 448 257 475 257 529 c 3
 257 612 235 657 199 657 c 3
185 376 m 3
 113 376 40 415 40 524 c 3
 40 629 97 690 206 690 c 3
 278 690 353 652 353 543 c 3
 353 438 294 376 185 376 c 3
EndSplineSet
Validated: 1
EndChar

StartChar: AE
Encoding: 131 198 131
Width: 855
VWidth: 0
Flags: HMW
LayerCount: 2
Back
Fore
SplineSet
774 638 m 1
 774 510 l 1
 732 507 l 1
 712 596 l 9
 529 596 l 25
 529 44 l 25
 742 44 l 17
 770 133 l 1
 811 128 l 1
 800 0 l 1
 340 0 l 1
 340 20 l 1
 417 45 l 1
 417 596 l 1
 334 596 l 1
 260 617 l 1
 260 638 l 1
 774 638 l 1
529 312 m 1
 529 353 l 1
 661 353 l 9
 673 409 l 1
 716 409 l 1
 716 256 l 1
 673 256 l 1
 661 312 l 17
 529 312 l 1
180 259 m 5
 447 259 l 1
 447 216 l 1
 175 216 l 1
 180 259 l 5
385 596 m 1
 125 44 l 1
 185 21 l 1
 185 0 l 1
 -10 0 l 1
 -10 21 l 1
 70 43 l 1
 334 596 l 1
 385 596 l 1
EndSplineSet
Validated: 5
Colour: ff9994
EndChar

StartChar: Eth
Encoding: 141 208 141
Width: 740
VWidth: 0
UnlinkRmOvrlpSave: 1
Flags: HMW
LayerCount: 2
Back
Fore
SplineSet
35 315 m 5
 35 352 l 5
 359 352 l 5
 359 315 l 5
 35 315 l 5
EndSplineSet
Refer: 36 68 N 1 0 0 1 5 0 2
EndChar

StartChar: multiply
Encoding: 148 215 148
Width: 460
VWidth: 0
Flags: HMW
LayerCount: 2
Back
Fore
SplineSet
82 354 m 1
 113 385 l 1
 378 120 l 1
 347 89 l 1
 82 354 l 1
113 89 m 1
 82 120 l 1
 347 385 l 1
 378 354 l 1
 113 89 l 1
EndSplineSet
Validated: 5
EndChar

StartChar: Oslash
Encoding: 149 216 149
Width: 743
VWidth: 0
UnlinkRmOvrlpSave: 1
Flags: HMW
LayerCount: 2
Back
Fore
SplineSet
614 680 m 1
 644 659 l 1
 133 -42 l 1
 103 -21 l 1
 614 680 l 1
EndSplineSet
Refer: 47 79 N 1 0 0 1 0 0 2
EndChar

StartChar: Thorn
Encoding: 155 222 155
Width: 568
VWidth: 0
Flags: HMW
LayerCount: 2
Back
Fore
SplineSet
338 516 m 2
 474 516 542 465 542 353 c 3
 542 236 454 164 296 164 c 2
 279 164 l 1
 279 196 l 1
 295 196 l 2
 390 196 424 245 424 345 c 3
 424 442 384 478 305 478 c 2
 245 478 l 9
 244 516 l 25
 338 516 l 2
246 596 m 1
 246 39 l 1
 315 20 l 1
 315 0 l 1
 60 0 l 1
 60 20 l 1
 133 45 l 1
 133 596 l 1
 60 618 l 1
 60 638 l 1
 310 638 l 1
 310 618 l 1
 246 596 l 1
EndSplineSet
Validated: 5
Colour: ff9994
EndChar

StartChar: germandbls
Encoding: 156 223 156
Width: 590
VWidth: -3
Flags: HMW
LayerCount: 2
Back
Fore
SplineSet
306 684 m 3
 390 684 438 620 438 536 c 3
 438 484 426 450 398 409 c 1
 374 393 361 372 361 347 c 3
 361 320 386.772514065 297.644929369 438 265 c 0
 503.995117188 222.944335938 547 193 547 122 c 3
 547 52 500 -12 398 -12 c 3
 348 -12 324 -5 289 6 c 1
 283 109 l 1
 331 113 l 1
 345 39 l 1
 364 30 375 25 402 25 c 3
 436 25 459 45 459 81 c 3
 459 118 447 134 393 170 c 0
 326.383789062 214.411132812 279 252 279 314 c 3
 279 373 328 411 377 437 c 1
 393 459 397 482 397 531 c 3
 397 606 362 643 294 643 c 3
 262 643 244 627 233 602 c 1
 223 568 221 529 221 464 c 2
 221 0 l 17
 41 0 l 1
 41 18 l 1
 111 43 l 25
 111 43 111 424 112 425 c 2
 112 604 224 684 306 684 c 3
171 387 m 1
 39 387 l 1
 39 403 l 1
 111 425 l 1
 171 425 l 1
 171 387 l 1
EndSplineSet
Validated: 5
Colour: ff9994
EndChar

StartChar: ae
Encoding: 163 230 163
Width: 684
VWidth: -3
Flags: HMW
LayerCount: 2
Back
Fore
SplineSet
283 234 m 1
 283 269 l 2
 283 354 243 383 189 383 c 3
 147 383 127 374 91 355 c 1
 76 380 l 1
 127 417 174 437 236 437 c 3
 301 437 350 411 363 361 c 1
 399 411 445 437 507 437 c 3
 586 437 633 389 633 289 c 1
 626 240 l 1
 393 211 l 1
 399 87 459 33 543 33 c 3
 572 33 602 41 631 54 c 1
 638 36 l 1
 610 11 559 -12 490 -12 c 3
 386 -12 336 26 303 96 c 1
 276 42 223 -12 147 -12 c 3
 72 -12 40 47 40 97 c 3
 40 136 65 199 141 214 c 0
 210 228 253 230 283 234 c 1
283 199 m 1
 253 196 244 194 212 188 c 0
 167 179 153 139 153 110 c 3
 153 64 171.734375 48 199 48 c 3
 228 48 268 80 283 146 c 1
 283 199 l 1
480 390 m 3
 416 390 395 335 393 245 c 1
 490 259 l 1
 533 282 l 1
 533 357 513 390 480 390 c 3
EndSplineSet
Validated: 1
Colour: ff9994
EndChar

StartChar: eth
Encoding: 173 240 173
Width: 541
VWidth: 0
Flags: HMW
LayerCount: 2
Back
Fore
SplineSet
229 461 m 1
 207 487 l 1
 395 649 l 1
 417 623 l 1
 229 461 l 1
394 286 m 1
 357 314 305 323 268 323 c 3
 208 323 185 276 185 182 c 3
 185 81 223 24 279 24 c 3
 335 24 365 90 365 183 c 3
 365 409 344 503 235 616 c 9
 253 638 l 17
 406 526 476 416 476 220 c 3
 476 70 393 -12 272 -12 c 3
 136 -12 76 50 76 166 c 3
 76 268 131 359 259 359 c 3
 326 359 360 346 394 321 c 1
 394 286 l 1
EndSplineSet
Validated: 5
EndChar

StartChar: divide
Encoding: 180 247 180
Width: 460
VWidth: 0
Flags: HMW
LayerCount: 2
Back
Fore
SplineSet
42 259 m 1
 418 259 l 1
 418 215 l 1
 42 215 l 1
 42 259 l 1
EndSplineSet
Refer: 219 729 S 1 0 0 1 30 -482 2
Refer: 219 729 S 1 0 0 1 30 -209 2
Validated: 1
EndChar

StartChar: oslash
Encoding: 181 248 181
Width: 518
VWidth: -3
UnlinkRmOvrlpSave: 1
Flags: HMW
LayerCount: 2
Back
Fore
SplineSet
408 469 m 1
 438 448 l 1
 82 -42 l 1
 52 -21 l 1
 408 469 l 1
EndSplineSet
Refer: 79 111 N 1 0 0 1 0 0 2
EndChar

StartChar: thorn
Encoding: 187 254 187
Width: 565
VWidth: -3
Flags: HMW
LayerCount: 2
Back
Fore
SplineSet
520 227 m 3
 520 131 457 -12 277 -12 c 3
 253 -12 225 -6 207 0 c 1
 207 39 l 1
 232 32 259 29 296 29 c 3
 364 29 404 79 404 216 c 3
 404 342 355 373 305 373 c 3
 262 373 227 346 207 299 c 1
 207 352 l 1
 235 393 280 437 355 437 c 3
 448 437 520 375 520 227 c 3
31 677 m 1
 207 690 l 1
 207 -196 l 1
 281 -212 l 1
 281 -230 l 1
 30 -230 l 1
 30 -212 l 1
 97 -189 l 1
 97 647 l 1
 31 659 l 1
 31 677 l 1
EndSplineSet
Validated: 5
Colour: ff9994
EndChar

StartChar: dotlessi
Encoding: 238 305 189
Width: 318
VWidth: -3
GlyphClass: 4
Flags: HMW
AnchorPoint: "top" 160 425 basemark 0
LayerCount: 2
Back
Fore
SplineSet
219 432 m 5
 219 34 l 1
 283 18 l 1
 283 0 l 1
 39 0 l 1
 39 18 l 1
 109 43 l 1
 109 389 l 1
 43 401 l 1
 43 419 l 1
 219 432 l 5
EndSplineSet
Validated: 1048577
Colour: ff9994
EndChar

StartChar: OE
Encoding: 271 338 190
Width: 870
VWidth: 0
Flags: HMW
LayerCount: 2
Back
Fore
SplineSet
364 596 m 2
 292 596 259 576 228 542 c 1
 195 491 183 455 183 325 c 3
 183 133 239 44 339 44 c 2
 420 44 l 1
 420 596 l 1
 364 596 l 2
374 638 m 2
 777 638 l 1
 777 510 l 1
 735 507 l 1
 715 596 l 1
 535 596 l 2
 535 44 l 25
 745 44 l 1
 773 133 l 1
 814 128 l 1
 803 0 l 1
 329 0 l 2
 217 0 63 73 63 300 c 3
 63 519 185 638 374 638 c 2
535 312 m 1
 535 353 l 1
 664 353 l 9
 686 409 l 1
 724 409 l 1
 724 256 l 1
 686 256 l 1
 664 312 l 17
 535 312 l 1
EndSplineSet
Validated: 5
Colour: ff9994
EndChar

StartChar: oe
Encoding: 272 339 191
Width: 754
VWidth: -3
Flags: HMW
LayerCount: 2
Back
Fore
SplineSet
258 399 m 3
 176 399 156 337 156 220 c 3
 156 101 194 27 254 27 c 3
 336 27 352 91 352 208 c 3
 352 327 318 399 258 399 c 3
265 437 m 3
 371 437 463 383 463 222 c 3
 463 77 387 -12 242 -12 c 3
 139 -12 40 44 40 205 c 3
 40 350 120 437 265 437 c 3
562 437 m 3
 644 437 710 392 710 290 c 1
 699 232 l 1
 461 232 l 1
 461 266 l 1
 562 266 l 1
 607 280 l 1
 607 370 588 400 549 400 c 3
 480 400 465 352 465 232 c 3
 465 93 512 39 597 39 c 3
 626 39 662 43 691 54 c 1
 699 36 l 1
 671 11 612 -12 558 -12 c 3
 411 -12 352 78 352 208 c 3
 352 349 438 437 562 437 c 3
EndSplineSet
Validated: 5
Colour: ff9994
EndChar

StartChar: longs
Encoding: 316 383 197
Width: 343
VWidth: -3
Flags: HMW
LayerCount: 2
Back
Fore
SplineSet
387 671 m 1
 373 586 l 1
 358 580 l 1
 343 585 297 603 277 603 c 3
 253 603 243 600 232 587 c 1
 222 553 221 529 221 464 c 2
 221 34 l 25
 300 18 l 1
 300 0 l 1
 42 0 l 1
 42 18 l 1
 112 43 l 25
 112 425 l 2
 112 604 234 679 316 679 c 3
 349 679 369 676 387 671 c 1
191 387 m 1
 44 387 l 1
 44 403 l 1
 111 425 l 1
 191 425 l 1
 191 387 l 1
EndSplineSet
Validated: 5
EndChar

StartChar: Sigma
Encoding: 446 931 204
Width: 579
VWidth: 0
Flags: HMW
LayerCount: 2
Back
Fore
SplineSet
280 304 m 5
 56 613 l 5
 63 638 l 5
 502 638 l 5
 502 510 l 5
 460 507 l 5
 440 596 l 13
 205 596 l 5
 369 365 l 5
 369 343 l 5
 154 84 l 5
 477 84 l 21
 500 153 l 5
 539 148 l 5
 526 0 l 5
 57 0 l 5
 50 25 l 5
 280 304 l 5
EndSplineSet
Validated: 1
EndChar

StartChar: endash
Encoding: 455 8211 206
Width: 500
VWidth: 0
Flags: HMW
LayerCount: 2
Back
Fore
SplineSet
20 212 m 1
 20 256 l 1
 480 256 l 1
 480 212 l 1
 20 212 l 1
EndSplineSet
Validated: 1
Ligature2: "SmallCapsClose subtable" endash.smcpflag less slash s c greater
Substitution2: "Single Substitution lookup 16 subtable" endash.smcpflag
EndChar

StartChar: emdash
Encoding: 456 8212 207
Width: 940
VWidth: 0
Flags: HMW
LayerCount: 2
Back
Fore
SplineSet
20 212 m 1
 20 256 l 1
 920 256 l 1
 920 212 l 1
 20 212 l 1
EndSplineSet
Validated: 1
Ligature2: "SmallCapsClose subtable" emdash.smcpflag less slash s c greater
Substitution2: "Single Substitution lookup 16 subtable" emdash.smcpflag
EndChar

StartChar: quoteright
Encoding: 458 8217 209
Width: 180
VWidth: 0
Flags: HMW
LayerCount: 2
Back
Fore
SplineSet
86 690 m 7
 128 690 155 660 155 608 c 3
 155 548 118 486 40 446 c 1
 29 466 l 1
 78 496 98 522.986328125 98 549 c 3
 98 556 98 559 95 566 c 1
 55 566 25 591 25 630 c 3
 25 664 49 690 86 690 c 7
EndSplineSet
Validated: 1
Ligature2: "SmallCapsClose subtable" quoteright.smcpflag less slash s c greater
Substitution2: "Single Substitution lookup 16 subtable" quoteright.smcpflag
EndChar

StartChar: Delta
Encoding: 498 8710 213
Width: 680
VWidth: 0
Flags: HMW
LayerCount: 2
Back
Fore
SplineSet
610 0 m 1
 70 0 l 1
 306 644 l 1
 372 644 l 1
 610 0 l 1
128 37 m 1
 474 37 l 1
 305 520 l 1
 128 37 l 1
EndSplineSet
Validated: 1
EndChar

StartChar: summation
Encoding: 500 8721 214
Width: 750
VWidth: 0
Flags: HMW
LayerCount: 2
Back
Fore
SplineSet
326 271 m 1
 40 745 l 1
 47 770 l 1
 657 770 l 1
 657 642 l 1
 615 639 l 1
 595 728 l 9
 189 728 l 1
 420 337 l 1
 420 315 l 1
 130 -146 l 1
 626 -146 l 17
 649 -77 l 1
 688 -82 l 1
 675 -230 l 1
 33 -230 l 1
 26 -205 l 1
 326 271 l 1
EndSplineSet
Validated: 1
EndChar

StartChar: minus
Encoding: 501 8722 215
Width: 460
VWidth: 0
Flags: HMW
LayerCount: 2
Back
Fore
SplineSet
42 215 m 1
 42 259 l 5
 418 259 l 5
 418 215 l 1
 42 215 l 1
EndSplineSet
Validated: 1
EndChar

StartChar: radical
Encoding: 503 8730 216
Width: 580
Flags: HMW
LayerCount: 2
Back
Fore
SplineSet
57 345 m 1
 50 362 l 1
 184 429 l 1
 199 422 l 1
 288 128 l 1
 580 938 l 1
 610 928 l 1
 276 -9 l 1
 237 -9 l 1
 115 362 l 1
 57 345 l 1
EndSplineSet
Validated: 1
EndChar

StartChar: eogonek
Encoding: 214 281 221
Width: 448
VWidth: -3
UnlinkRmOvrlpSave: 1
Flags: HMW
LayerCount: 2
Back
Fore
SplineSet
393 36 m 17
 309 -11 254 -66 254 -125 c 3
 254 -164 277 -190 309 -190 c 3
 336 -190 350 -186 368 -177 c 1
 378 -196 l 1
 354 -212 318 -230 277 -230 c 3
 210 -230 168 -196 168 -142 c 3
 168 -85 215 -37 282 6 c 1
 393 36 l 17
EndSplineSet
Refer: 69 101 N 1 0 0 1 0 0 2
EndChar

StartChar: aogonek
Encoding: 194 261 313
Width: 484
VWidth: -3
Flags: HMW
LayerCount: 2
Back
SplineSet
357 289 m 6
 357 77 l 5
 379 36 l 5
 409 32 l 5
 410 15 l 5
 344 -17 l 6
 293 -39 259 -70 259 -129 c 7
 259 -166 292 -192 329 -192 c 7
 356 -192 375 -188 393 -177 c 5
 403 -196 l 5
 379 -212 343 -230 302 -230 c 7
 246 -230 203 -196 203 -142 c 7
 203 -85 253 -41 320 1 c 5
 319 1 285 70 285 70 c 5
 254 13 195 -12 147 -12 c 4
 72 -12 40 47 40 97 c 4
 40 136 65 199 141 214 c 4
 210 228 253 230 283 234 c 5
 283 269 l 6
 283 354 261 388 202 388 c 7
 160 388 131 380 91 355 c 5
 76 380 l 5
 127 417 170 437 231 437 c 7
 304 437 357 398 357 289 c 6
EndSplineSet
Fore
SplineSet
283 199 m 1
 253 196 218.63671875 192.592773438 194 184 c 0
 156.647071528 170.972077944 154 139 154 110 c 3
 154 72 173 52 202 52 c 3
 234 52 268 83 283 139 c 1
 283 199 l 1
239 437 m 3
 332 437 393 398 393 289 c 2
 393 77 l 5
 403 36 l 5
 438 32 l 5
 439 15 l 21
 359 -18.083984375 l 6
 291.984930755 -45.7980531726 279 -78.679893121 279 -125 c 7
 279 -164 310 -190 344 -190 c 7
 371 -190 385 -186 403 -177 c 5
 413 -196 l 5
 389 -212 348 -230 307 -230 c 7
 240 -230 193 -196 193 -142 c 7
 193 -85 228 -42 295 1 c 5
 285 70 l 21
 254 13 195 -12 147 -12 c 3
 72 -12 40 47 40 97 c 3
 40 136 65 199 141 214 c 0
 210 228 253 230 283 234 c 1
 283 269 l 2
 283 344 260 382 195 382 c 3
 153 382 131 374 91 355 c 1
 76 380 l 1
 127 417 178 437 239 437 c 3
EndSplineSet
Validated: 1
Colour: ff9994
EndChar

StartChar: Aogonek
Encoding: 193 260 314
Width: 671
VWidth: 0
Flags: HMW
LayerCount: 2
Back
Fore
SplineSet
301 644 m 5
 367 644 l 1
 596 35 l 1
 642 18 l 1
 642 0 l 1
 583 0 l 2
 458 0 422 -66 422 -125 c 3
 422 -164 445 -190 477 -190 c 3
 504 -190 518 -186 536 -177 c 1
 546 -196 l 1
 522 -212 486 -230 445 -230 c 3
 378 -230 336 -196 336 -142 c 3
 336 -85 383 -42 450 1 c 1
 470 38 l 1
 301 523 l 1
 140 40 l 1
 205 18 l 1
 205 0 l 1
 19 0 l 1
 19 18 l 1
 85 39 l 1
 301 644 l 5
175 253 m 1
 480 253 l 1
 480 216 l 1
 175 216 l 1
 175 253 l 1
EndSplineSet
Validated: 5
EndChar

StartChar: Eogonek
Encoding: 213 280 315
Width: 589
VWidth: 0
Flags: HMW
LayerCount: 2
Back
Fore
SplineSet
478 0 m 21
 415 -31 389 -66 389 -125 c 7
 389 -164 412 -190 444 -190 c 7
 471 -190 485 -186 503 -177 c 5
 513 -196 l 5
 489 -212 453 -230 412 -230 c 7
 345 -230 303 -196 303 -142 c 7
 303 -85 350 -42 417 1 c 5
 478 0 l 21
EndSplineSet
Refer: 37 69 N 1 0 0 1 0 0 2
Validated: 5
EndChar

StartChar: uni0237
Encoding: 317 567 317
Width: 318
VWidth: -3
GlyphClass: 4
Flags: HMW
AnchorPoint: "top" 157 425 basemark 0
LayerCount: 2
Back
Fore
SplineSet
221 432 m 1
 221 61 l 2
 221 -56 145 -166 32 -232 c 1
 20 -215 l 1
 93 -151 111 -41 111 22 c 2
 111 389 l 1
 45 401 l 1
 45 419 l 1
 221 432 l 1
EndSplineSet
Validated: 1048577
Colour: ff9994
EndChar

StartChar: Iogonek
Encoding: 235 302 324
Width: 379
VWidth: 0
GlyphClass: 4
Flags: HMW
LayerCount: 2
Back
Fore
SplineSet
114 -13 m 5
 133 45 l 5
 133 596 l 1
 60 618 l 1
 60 638 l 1
 319 638 l 1
 319 618 l 1
 245 596 l 1
 245 39 l 5
 293 20 l 5
 293 0 l 5
 145 0 126 -53 126 -112 c 7
 126 -169 168 -187 205 -187 c 7
 232 -187 251 -184 269 -177 c 5
 279 -196 l 5
 255 -212 210 -230 160 -230 c 7
 92 -230 43 -199 43 -139 c 7
 43 -94 69 -55 114 -13 c 5
EndSplineSet
Validated: 1
EndChar

StartChar: iogonek
Encoding: 236 303 325
Width: 314
VWidth: -3
Flags: HMW
LayerCount: 2
Back
Fore
SplineSet
154 672 m 7
 193 672 224 642 224 603 c 7
 224 564 193 533 154 533 c 7
 115 533 85 564 85 603 c 7
 85 642 115 672 154 672 c 7
219 432 m 1
 219 34 l 1
 269 21 l 1
 269 1 l 1
 121 1 102 -52 102 -111 c 3
 102 -168 144 -186 181 -186 c 3
 208 -186 227 -183 245 -176 c 1
 255 -195 l 1
 231 -211 186 -229 136 -229 c 3
 68 -229 19 -198 19 -138 c 3
 19 -93 45 -54 90 -12 c 1
 109 43 l 1
 109 389 l 1
 43 401 l 1
 43 419 l 1
 219 432 l 1
EndSplineSet
Validated: 1
Colour: ff8f94
EndChar

StartChar: Uogonek
Encoding: 303 370 327
Width: 688
VWidth: 0
Flags: HMW
LayerCount: 2
Back
Fore
SplineSet
449 31 m 17
 375 -16 334 -66 334 -125 c 3
 334 -164 357 -190 389 -190 c 3
 416 -190 430 -186 448 -177 c 1
 458 -196 l 1
 434 -212 398 -230 357 -230 c 3
 290 -230 248 -196 248 -142 c 3
 248 -85 295 -42 362 1 c 1
 449 31 l 17
EndSplineSet
Refer: 53 85 N 1 0 0 1 0 0 2
Validated: 5
EndChar

StartChar: uogonek
Encoding: 304 371 328
Width: 571
VWidth: -3
Flags: HMW
LayerCount: 2
Back
Fore
SplineSet
200 429 m 1
 200 160 l 2
 200 77 225 56 266 56 c 3
 313 56 348 86 375 128 c 1
 375 388 l 1
 311 402 l 1
 311 420 l 1
 485 428 l 1
 485 77 l 1
 495 36 l 1
 530 32 l 1
 531 15 l 17
 451 -18.083984375 l 6
 383.985361304 -45.7978751188 371 -78.6796875 371 -125 c 3
 371 -164 402 -190 436 -190 c 3
 463 -190 477 -186 495 -177 c 1
 505 -196 l 1
 481 -212 440 -230 399 -230 c 3
 332 -230 285 -196 285 -142 c 3
 285 -85 320 -42 387 1 c 1
 375 82 l 17
 338 34 289 -12 211 -12 c 3
 130 -12 91 36 91 142 c 2
 91 389 l 1
 27 403 l 1
 27 421 l 1
 200 429 l 1
EndSplineSet
Validated: 1
Colour: ff9994
EndChar

StartChar: dcroat
Encoding: 206 273 331
Width: 540
VWidth: -3
UnlinkRmOvrlpSave: 1
Flags: HMW
LayerCount: 2
Back
Fore
SplineSet
525 524 m 1
 236 524 l 1
 236 540 l 1
 303 562 l 1
 525 562 l 1
 525 524 l 1
EndSplineSet
Refer: 68 100 N 1 0 0 1 0 0 2
EndChar

StartChar: Hbar
Encoding: 227 294 332
Width: 736
VWidth: 0
UnlinkRmOvrlpSave: 1
Flags: HMW
LayerCount: 2
Back
Fore
SplineSet
672 460 m 1
 59 460 l 1
 59 476 l 1
 115 498 l 1
 672 498 l 1
 672 460 l 1
EndSplineSet
Refer: 40 72 N 1 0 0 1 0 0 2
EndChar

StartChar: hbar
Encoding: 228 295 333
Width: 605
VWidth: -3
UnlinkRmOvrlpSave: 1
Flags: HMW
LayerCount: 2
Back
Fore
SplineSet
313 524 m 1
 41 524 l 1
 41 540 l 1
 108 562 l 1
 313 562 l 1
 313 524 l 1
EndSplineSet
Refer: 72 104 N 1 0 0 1 0 0 2
EndChar

StartChar: kgreenlandic
Encoding: 245 312 334
Width: 549
VWidth: 0
Flags: HMW
LayerCount: 2
Back
Fore
SplineSet
225 429 m 1
 225 34 l 1
 274 18 l 1
 274 0 l 1
 45 0 l 1
 45 18 l 1
 115 43 l 1
 115 389 l 1
 51 403 l 1
 51 421 l 1
 225 429 l 1
346 425 m 1
 491 425 l 1
 491 402 l 1
 424 381 l 1
 318 260 l 1
 480 61 l 1
 525 18 l 1
 525 0 l 1
 388 0 l 1
 234 217 l 1
 376 384 l 9
 346 402 l 1
 346 425 l 1
EndSplineSet
Validated: 1
Colour: ff8f94
EndChar

StartChar: lslash
Encoding: 255 322 335
Width: 356
VWidth: -3
Flags: HMW
LayerCount: 2
Back
Fore
SplineSet
284 373 m 1
 173 326 l 1
 60 270 l 1
 51 275 l 1
 51 309 l 1
 163 357 l 1
 274 412 l 1
 284 408 l 1
 284 373 l 1
EndSplineSet
Refer: 76 108 N 1 0 0 1 0 0 2
Validated: 5
EndChar

StartChar: Lslash
Encoding: 254 321 336
Width: 562
VWidth: 0
Flags: HMW
LayerCount: 2
Back
Fore
SplineSet
318 381 m 1
 192 326 l 1
 64 262 l 1
 55 267 l 1
 55 301 l 1
 182 357 l 1
 308 420 l 1
 318 416 l 1
 318 381 l 1
EndSplineSet
Refer: 44 76 N 1 0 0 1 0 0 2
Validated: 5
EndChar

StartChar: eng
Encoding: 264 331 337
Width: 589
VWidth: -3
Flags: HMW
LayerCount: 2
Back
Fore
SplineSet
368 437 m 3
 454 437 499 384 499 283 c 2
 499 63 l 2
 499 -133 383 -230 301 -230 c 3
 268 -230 251 -224 233 -218 c 1
 242 -138 l 1
 257 -132 l 1
 272 -137 308 -152 328 -152 c 3
 352 -152 368 -148 379 -133 c 1
 388 -99 389 -80 389 -15 c 2
 389 265 l 2
 389 358 361 369 318 369 c 3
 276 369 242 339 215 297 c 1
 215 343 l 1
 252 391 285 437 368 437 c 3
215 432 m 1
 215 34 l 1
 269 18 l 1
 269 0 l 1
 39 0 l 1
 39 18 l 1
 106 43 l 1
 106 389 l 1
 40 401 l 1
 40 419 l 1
 215 432 l 1
EndSplineSet
Validated: 5
Colour: ff9994
EndChar

StartChar: Eng
Encoding: 263 330 338
Width: 703
VWidth: 0
Flags: HMW
LayerCount: 2
Back
Fore
SplineSet
44 638 m 1
 224 638 l 1
 539 167 l 1
 539 595 l 1
 476 618 l 1
 476 638 l 1
 663 638 l 1
 663 618 l 1
 593 595 l 1
 593 61 l 2
 593 -135 477 -232 395 -232 c 3
 362 -232 345 -226 327 -220 c 1
 336 -140 l 1
 351 -134 l 1
 366 -139 402 -154 422 -154 c 3
 446 -154 462 -150 473 -135 c 1
 482 -101 483 -82 483 -17 c 2
 483 42 l 1
 171 513 l 1
 169 513 l 1
 169 43 l 1
 232 20 l 1
 232 0 l 1
 40 0 l 1
 40 20 l 1
 115 43 l 1
 115 601 l 1
 44 617 l 1
 44 638 l 1
EndSplineSet
Validated: 1
Colour: ff9994
EndChar

StartChar: Tbar
Encoding: 291 358 339
Width: 552
VWidth: 0
Flags: HMW
LayerCount: 2
Back
Fore
SplineSet
442 314 m 5
 93 314 l 1
 93 330 l 1
 149 352 l 1
 442 352 l 5
 442 314 l 5
EndSplineSet
Refer: 52 84 N 1 0 0 1 0 0 2
Validated: 5
EndChar

StartChar: tbar
Encoding: 292 359 340
Width: 384
VWidth: 0
Flags: HMW
LayerCount: 2
Back
Fore
SplineSet
320 232 m 1
 40 232 l 1
 40 248 l 1
 96 270 l 1
 320 270 l 1
 320 232 l 1
EndSplineSet
Refer: 84 116 N 1 0 0 1 0 0 2
Validated: 5
EndChar

StartChar: quotereversed
Encoding: 460 8219 348
Width: 180
VWidth: 0
Flags: HMW
LayerCount: 2
Back
Fore
SplineSet
94 690 m 7
 131 690 155 664 155 630 c 3
 155 591 124 566 84 566 c 1
 82 559 82 556 82 549 c 3
 82 523.986328125 102 496 151 466 c 1
 140 446 l 1
 62 486 25 543 25 603 c 3
 25 655 52 690 94 690 c 7
EndSplineSet
Validated: 1
EndChar

StartChar: dagger
Encoding: 465 8224 349
Width: 460
VWidth: 0
Flags: HMW
LayerCount: 2
Back
Fore
SplineSet
208 690 m 1
 252 690 l 1
 252 0 l 1
 208 0 l 1
 208 690 l 1
42 470 m 5
 42 514 l 1
 418 514 l 1
 418 470 l 5
 42 470 l 5
EndSplineSet
Validated: 5
EndChar

StartChar: daggerdbl
Encoding: 466 8225 350
Width: 460
VWidth: 0
Flags: HMW
LayerCount: 2
Back
Fore
SplineSet
42 176 m 1
 42 220 l 1
 418 220 l 1
 418 176 l 1
 42 176 l 1
208 690 m 1
 252 690 l 1
 252 0 l 1
 208 0 l 1
 208 690 l 1
42 470 m 1
 42 514 l 1
 418 514 l 1
 418 470 l 1
 42 470 l 1
EndSplineSet
Validated: 5
EndChar

StartChar: perthousand
Encoding: 469 8240 352
Width: 1300
VWidth: 0
Flags: HMW
LayerCount: 2
Back
Fore
SplineSet
1065 311 m 7
 1032 311 1024 304 1007 289 c 5
 989 262 977 235 977 173 c 7
 977 78 1011 25 1062 25 c 7
 1095 25 1102 33 1119 48 c 5
 1137 75 1146 101 1146 163 c 7
 1146 258 1116 311 1065 311 c 7
1049 -12 m 7
 979 -12 890 32 890 157 c 7
 890 277 961 347 1073 347 c 7
 1143 347 1233 304 1233 179 c 7
 1233 59 1161 -12 1049 -12 c 7
EndSplineSet
Refer: 5 37 N 1 0 0 1 0 0 2
Validated: 1
EndChar

StartChar: uni2031
Encoding: 470 8241 353
Width: 1702
VWidth: 0
Flags: HMW
LayerCount: 2
Back
Fore
SplineSet
1467 311 m 3
 1434 311 1426 304 1409 289 c 1
 1391 262 1379 235 1379 173 c 3
 1379 78 1413 25 1464 25 c 3
 1497 25 1504 33 1521 48 c 1
 1539 75 1548 101 1548 163 c 3
 1548 258 1518 311 1467 311 c 3
1451 -12 m 3
 1381 -12 1292 32 1292 157 c 3
 1292 277 1363 347 1475 347 c 3
 1545 347 1635 304 1635 179 c 3
 1635 59 1563 -12 1451 -12 c 3
EndSplineSet
Refer: 352 8240 N 1 0 0 1 0 0 2
Validated: 1
EndChar

StartChar: minute
Encoding: 471 8242 354
Width: 220
VWidth: -3
Flags: HMW
LayerCount: 2
Back
Fore
SplineSet
86 689 m 1
 172 676 l 1
 180 652 l 1
 73 466 l 1
 39 480 l 1
 86 689 l 1
EndSplineSet
Validated: 1
EndChar

StartChar: guilsinglleft
Encoding: 472 8249 355
Width: 292
VWidth: 0
Flags: HMW
LayerCount: 2
Back
Fore
SplineSet
122 234 m 1
 258 77 l 1
 219 44 l 1
 34 232 l 1
 219 420 l 1
 256 390 l 1
 122 234 l 1
EndSplineSet
Validated: 1
EndChar

StartChar: uni203E
Encoding: 474 8254 357
Width: 500
VWidth: 0
Flags: HMW
LayerCount: 2
Back
Fore
SplineSet
0 894 m 5
 0 938 l 1
 500 938 l 1
 500 894 l 5
 0 894 l 5
EndSplineSet
Validated: 1
EndChar

StartChar: fraction
Encoding: 475 8260 358
Width: 0
VWidth: 0
Flags: HMW
LayerCount: 2
Back
Fore
SplineSet
231 776 m 1
 270 756 l 1
 -231 -114 l 1
 -270 -94 l 1
 231 776 l 1
EndSplineSet
Validated: 1
EndChar

StartChar: arrowdblright
Encoding: 497 8658 360
Width: 600
VWidth: 0
Flags: HMW
LayerCount: 2
Back
Fore
SplineSet
40 162 m 5
 40 206 l 5
 492 203 l 5
 472 165 l 5
 40 162 l 5
40 259 m 5
 40 303 l 5
 472 300 l 5
 492 262 l 5
 40 259 l 5
501 232 m 5
 343 384 l 5
 375 420 l 5
 560 232 l 5
 375 44 l 5
 345 77 l 5
 501 232 l 5
EndSplineSet
Validated: 5
EndChar

StartChar: uni21C0
Encoding: 491 8640 361
Width: 600
VWidth: 0
Flags: HMW
LayerCount: 2
Back
Fore
SplineSet
553 217 m 5
 40 217 l 5
 40 261 l 5
 486 253 l 5
 342 389 l 5
 375 420 l 5
 560 237 l 5
 553 217 l 5
EndSplineSet
Validated: 1
EndChar

StartChar: arrowright
Encoding: 488 8594 364
Width: 600
VWidth: 0
Flags: HMW
LayerCount: 2
Back
Fore
SplineSet
40 212 m 5
 40 256 l 5
 488 253 l 5
 343 384 l 5
 375 420 l 5
 560 232 l 5
 375 44 l 5
 345 77 l 5
 489 215 l 5
 40 212 l 5
EndSplineSet
Validated: 1
EndChar

StartChar: uni21C4
Encoding: 492 8644 365
Width: 600
VWidth: 0
Flags: HMW
LayerCount: 2
Back
Fore
SplineSet
555 153 m 5
 555 109 l 5
 102 112 l 5
 242 -9 l 5
 210 -45 l 5
 35 133 l 5
 210 311 l 5
 240 278 l 5
 101 150 l 5
 555 153 l 5
45 332 m 5
 45 376 l 5
 498 373 l 5
 358 494 l 5
 390 530 l 5
 565 352 l 5
 390 174 l 5
 360 207 l 5
 499 335 l 5
 45 332 l 5
EndSplineSet
Validated: 1
EndChar

StartChar: uni21CB
Encoding: 494 8651 366
Width: 600
VWidth: 0
Flags: HMW
LayerCount: 2
Back
Fore
SplineSet
40 196 m 1
 553 196 l 1
 560 176 l 1
 375 -7 l 1
 342 24 l 1
 486 160 l 1
 40 152 l 1
 40 196 l 1
225 470 m 1
 258 439 l 1
 114 303 l 1
 560 311 l 1
 560 267 l 1
 47 267 l 1
 40 287 l 1
 225 470 l 1
EndSplineSet
Validated: 1
EndChar

StartChar: uni21C6
Encoding: 493 8646 368
Width: 600
VWidth: 0
Flags: HMW
LayerCount: 2
Back
Fore
SplineSet
210 530 m 1
 242 494 l 1
 102 373 l 1
 555 376 l 1
 555 332 l 1
 101 335 l 1
 240 207 l 1
 210 174 l 1
 35 352 l 1
 210 530 l 1
390 311 m 1
 565 133 l 1
 390 -45 l 1
 358 -9 l 1
 498 112 l 1
 45 109 l 1
 45 153 l 1
 499 150 l 1
 360 278 l 1
 390 311 l 1
EndSplineSet
Validated: 1
EndChar

StartChar: product
Encoding: 499 8719 369
Width: 800
VWidth: 0
Flags: HMW
LayerCount: 2
Back
Fore
SplineSet
745 770 m 1
 745 750 l 1
 671 728 l 1
 671 -191 l 1
 745 -210 l 1
 745 -230 l 1
 480 -230 l 1
 480 -210 l 1
 559 -185 l 1
 559 728 l 1
 241 728 l 1
 241 -191 l 1
 320 -210 l 1
 320 -230 l 1
 55 -230 l 1
 55 -210 l 1
 129 -185 l 1
 129 728 l 1
 55 750 l 1
 55 770 l 1
 745 770 l 1
EndSplineSet
Validated: 1
EndChar

StartChar: infinity
Encoding: 506 8734 371
Width: 718
VWidth: 0
Flags: HMW
LayerCount: 2
Back
Fore
SplineSet
499 85 m 3
 317 85 299 337 183 337 c 7
 136 337 120 297 120 250 c 3
 120 190 148 128 224 128 c 3
 274 128 308 177 338 227 c 1
 355 202 l 17
 333 162 271 84 195 84 c 3
 114 84 50 129 50 229 c 3
 50 331 135 388 219 388 c 3
 401 388 419 136 535 136 c 3
 582 136 598 176 598 223 c 3
 598 283 569 345 493 345 c 3
 443 345 410 296 380 246 c 1
 363 271 l 17
 385 311 446 389 522 389 c 3
 603 389 668 344 668 244 c 3
 668 142 583 85 499 85 c 3
EndSplineSet
Validated: 5
EndChar

StartChar: angle
Encoding: 507 8736 372
Width: 480
VWidth: 0
Flags: HMW
LayerCount: 2
Back
Fore
SplineSet
353 437 m 1
 389 405 l 1
 106 44 l 1
 438 44 l 1
 438 0 l 1
 58 0 l 1
 40 22 l 1
 353 437 l 1
EndSplineSet
Validated: 1
EndChar

StartChar: logicalor
Encoding: 509 8744 374
Width: 460
VWidth: -3
Flags: HMW
LayerCount: 2
Back
Fore
SplineSet
411 413 m 1
 246 -12 l 1
 218 -12 l 1
 50 412 l 1
 59 425 l 1
 114 425 l 1
 246 76 l 1
 374 430 l 1
 405 430 l 1
 411 413 l 1
EndSplineSet
Validated: 1
EndChar

StartChar: union
Encoding: 511 8746 376
Width: 436
VWidth: 0
Flags: HMW
LayerCount: 2
Back
Fore
SplineSet
376 426 m 1
 376 169 l 2
 376 60 332 -12 217 -12 c 3
 104 -12 60 44 60 166 c 2
 60 417 l 1
 72 427 l 1
 119 424 l 1
 119 166 l 2
 119 66 155 23 224 23 c 3
 294 23 339 54 339 168 c 2
 339 419 l 1
 351 429 l 1
 376 426 l 1
EndSplineSet
Validated: 1
EndChar

StartChar: integral
Encoding: 512 8747 377
Width: 360
VWidth: -3
Flags: HMW
LayerCount: 2
Back
Fore
SplineSet
221 24 m 2
 221 -155 99 -230 17 -230 c 3
 -16 -230 -36 -227 -54 -222 c 1
 -40 -137 l 1
 -25 -131 l 1
 -10 -136 36 -154 56 -154 c 3
 80 -154 90 -151 101 -138 c 1
 111 -104 112 -80 112 -15 c 2
 112 516 l 2
 112 695 234 770 316 770 c 3
 349 770 369 767 387 762 c 1
 373 677 l 1
 358 671 l 1
 343 676 297 694 277 694 c 3
 253 694 243 691 232 678 c 1
 222 644 221 620 221 555 c 10
 221 24 l 2
EndSplineSet
Validated: 1
EndChar

StartChar: congruent
Encoding: 514 8773 378
Width: 460
VWidth: 0
Flags: HMW
LayerCount: 2
Back
Fore
SplineSet
42 142 m 1
 42 186 l 1
 418 186 l 1
 418 142 l 1
 42 142 l 1
42 264 m 1
 42 308 l 1
 418 308 l 1
 418 264 l 1
 42 264 l 1
EndSplineSet
Refer: 397 8764 N 1 0 0 1 0 170 2
Validated: 1
EndChar

StartChar: lessequal
Encoding: 519 8804 379
Width: 330
VWidth: 0
Flags: HMW
LayerCount: 2
Back
Fore
SplineSet
40 0 m 1
 40 44 l 1
 283 44 l 1
 283 0 l 1
 40 0 l 1
252 390 m 1
 278 355 l 1
 104 233 l 1
 279 110 l 1
 252 74 l 1
 40 232 l 1
 252 390 l 1
EndSplineSet
Validated: 1
EndChar

StartChar: greaterequal
Encoding: 520 8805 380
Width: 330
VWidth: 0
Flags: HMW
LayerCount: 2
Back
Fore
SplineSet
40 0 m 1
 40 44 l 1
 283 44 l 1
 283 0 l 1
 40 0 l 1
71 74 m 1
 45 109 l 1
 219 231 l 1
 44 354 l 1
 71 390 l 1
 283 232 l 1
 71 74 l 1
EndSplineSet
Validated: 1
EndChar

StartChar: uni2249
Encoding: 517 8777 382
Width: 460
VWidth: 0
Flags: HMW
LayerCount: 2
Back
Fore
SplineSet
280 437 m 1
 311 427 l 1
 179 42 l 1
 148 52 l 1
 280 437 l 1
EndSplineSet
Refer: 381 8776 N 1 0 0 1 0 0 2
Validated: 5
EndChar

StartChar: uni2247
Encoding: 515 8775 383
Width: 460
VWidth: 0
Flags: HMW
LayerCount: 2
Back
Fore
SplineSet
295 498 m 1
 326 488 l 1
 182 42 l 1
 151 52 l 1
 295 498 l 1
EndSplineSet
Refer: 378 8773 N 1 0 0 1 0 0 2
Validated: 5
EndChar

StartChar: uni221B
Encoding: 504 8731 384
Width: 580
Flags: HMW
LayerCount: 2
Back
Fore
SplineSet
360 618 m 3
 360 553 298 511 186 511 c 1
 186 538 l 1
 263 538 306 561 306 607 c 3
 306 641 283 666 229 666 c 1
 221 682 l 1
 269 710 283 725 283 763 c 3
 283 786 267 802 249 802 c 3
 228 802 218 799 198 788 c 1
 187 807 l 1
 215 825 238 834 269 834 c 3
 305 834 337 809 337 772 c 3
 337 731 304 705 270 686 c 1
 329 686 360 662 360 618 c 3
EndSplineSet
Refer: 216 8730 N 1 0 0 1 0 0 2
Validated: 1
EndChar

StartChar: uni221C
Encoding: 505 8732 385
Width: 580
Flags: HMW
LayerCount: 2
Back
Fore
SplineSet
259 734 m 1
 294 751 l 1
 305 751 l 1
 305 545 l 1
 271 529 l 1
 259 529 l 1
 259 734 l 1
285 818 m 1
 163 652 l 1
 355 652 l 25
 355 621 l 25
 136 621 l 1
 125 636 l 1
 266 836 l 1
 285 836 l 1
 285 818 l 1
EndSplineSet
Refer: 216 8730 N 1 0 0 1 0 0 2
Validated: 5
EndChar

StartChar: Pi
Encoding: 445 928 386
Width: 716
VWidth: 0
Flags: HMW
LayerCount: 2
Back
Fore
SplineSet
661 638 m 1
 661 618 l 1
 587 596 l 1
 587 39 l 1
 661 20 l 1
 661 0 l 1
 406 0 l 1
 406 20 l 1
 475 45 l 1
 475 596 l 9
 241 596 l 1
 241 39 l 1
 310 20 l 1
 310 0 l 1
 55 0 l 1
 55 20 l 1
 129 45 l 1
 129 596 l 1
 55 618 l 1
 55 638 l 1
 661 638 l 1
EndSplineSet
Validated: 1
EndChar

StartChar: pi
Encoding: 448 960 387
Width: 576
VWidth: 0
Flags: HMW
LayerCount: 2
Back
Fore
SplineSet
189 -5 m 1
 88 6 l 1
 83 26 l 1
 112 61 173.200887902 143.02663707 178 287 c 2
 180 347 l 1
 222 347 l 1
 220 158 210 70 189 -5 c 1
442 344 m 1
 442 81 l 1
 462 45 l 1
 522 43 l 1
 523 17 l 1
 387 -9 l 17
 369 1 l 2
 351 11 336 29 336 65 c 2
 336 344 l 1
 442 344 l 1
520 344 m 1
 443 344 l 1
 336 344 l 1
 222 347 l 1
 180 347 l 17
 122 347 89 345 58 330 c 9
 40 355 l 1
 82 396 129 425 197 425 c 2
 486 425 l 1
 521 440 l 1
 537 428 l 1
 520 344 l 1
EndSplineSet
Validated: 5
EndChar

StartChar: uni2070
Encoding: 476 8304 388
Width: 448
VWidth: -3
GlyphClass: 3
Flags: HMW
LayerCount: 2
Back
Fore
SplineSet
228 735 m 3
 206 735 193 732 177 716 c 1
 157 682 153 643 153 566 c 3
 153 447 179 384 224 384 c 3
 246 384 258 388 274 404 c 1
 294 438 295 476 295 553 c 3
 295 672 273 735 228 735 c 3
208 348 m 3
 136 348 55 405 55 546 c 3
 55 686 124 770 238 770 c 3
 310 770 393 714 393 573 c 3
 393 433 322 348 208 348 c 3
EndSplineSet
Validated: 1
Ligature2: "Opentypeshortcuts subtable" asciicircum zero
LCarets2: 1 0
Ligature2: "'dlig' Discretionary Ligatures lookup 3-1" asciicircum zero
EndChar

StartChar: uni2074
Encoding: 477 8308 389
Width: 390
VWidth: -3
GlyphClass: 3
Flags: HMW
LayerCount: 2
Back
Fore
SplineSet
218 771 m 1
 299 768 l 1
 299 369 l 1
 227 348 l 1
 206 348 l 1
 206 696 l 1
 81 508 l 1
 370 508 l 25
 370 456 l 25
 28 456 l 25
 20 475 l 1
 218 771 l 1
EndSplineSet
Validated: 5
Ligature2: "Opentypeshortcuts subtable" asciicircum four
LCarets2: 1 0
Ligature2: "'dlig' Discretionary Ligatures lookup 3-1" asciicircum four
EndChar

StartChar: uni2075
Encoding: 478 8309 390
Width: 342
VWidth: 0
GlyphClass: 3
Flags: HMW
LayerCount: 2
Back
Fore
SplineSet
50 333 m 1
 50 370 l 1
 170 370 197 405 197 464 c 3
 197 493 184.148915832 512.7863903 156 524 c 0
 131.315888997 533.833344496 110 534 67 534 c 1
 54 550 l 1
 87 758 l 1
 257 758 l 1
 266 746 l 1
 256 680 l 1
 109 680 l 1
 95 592 l 1
 150 592 191.90346672 588.747579239 223 577 c 0
 268 560 292 522 292 477 c 3
 292 379 180 333 50 333 c 1
EndSplineSet
Validated: 1
Ligature2: "Opentypeshortcuts subtable" asciicircum five
LCarets2: 1 0
Ligature2: "'dlig' Discretionary Ligatures lookup 3-1" asciicircum five
EndChar

StartChar: uni2076
Encoding: 479 8310 391
Width: 385
VWidth: 0
GlyphClass: 3
Flags: HMW
LayerCount: 2
Back
Fore
SplineSet
143 515 m 1
 143 558 l 1
 164 577 196 594 233 594 c 3
 308 594 345 548 345 482 c 3
 345 403 279 348 192 348 c 3
 102 348 50 402 50 504 c 3
 50 631 164 723 283 770 c 9
 296 741 l 17
 201 695 143 662 143 515 c 3
 143 424 167 381 203 381 c 3
 232 381 253 410 253 457 c 3
 253 525 237 551 203 551 c 3
 180 551 164 541 143 515 c 1
EndSplineSet
Validated: 5
Ligature2: "Opentypeshortcuts subtable" asciicircum six
LCarets2: 1 0
Ligature2: "'dlig' Discretionary Ligatures lookup 3-1" asciicircum six
EndChar

StartChar: uni2077
Encoding: 480 8311 392
Width: 305
VWidth: 0
GlyphClass: 3
Flags: HMW
LayerCount: 2
Back
Fore
SplineSet
15 700 m 1
 30 758 l 1
 269 758 l 1
 285 739 l 1
 134 346 l 1
 69 375 l 1
 151 512 180 570 227 683 c 1
 25 683 l 1
 15 700 l 1
EndSplineSet
Validated: 1
Ligature2: "Opentypeshortcuts subtable" asciicircum seven
LCarets2: 1 0
Ligature2: "'dlig' Discretionary Ligatures lookup 3-1" asciicircum seven
EndChar

StartChar: uni2078
Encoding: 481 8312 393
Width: 399
VWidth: 109
GlyphClass: 3
Flags: HMW
LayerCount: 2
Back
Fore
SplineSet
234 570 m 9
 213 587 l 1
 243 607 252 642 252 675 c 3
 252 716 231 738 200 738 c 3
 166 738 152 716 152 684 c 3
 152 587 349 581 349 461 c 3
 349 399 291 348 195 348 c 3
 103 348 50 375 50 445 c 3
 50 505 134 550 183 570 c 9
 200 551 l 17
 155 526 126 498 126 454 c 3
 126 405 154 383 194 383 c 3
 233 383 258 401 258 445 c 3
 258 527 66 546 66 668 c 3
 66 719 111 770 201 770 c 3
 284 770 322 736 322 680 c 3
 322 622 267 584 234 570 c 9
EndSplineSet
Validated: 5
Ligature2: "Opentypeshortcuts subtable" asciicircum eight
LCarets2: 1 0
Ligature2: "'dlig' Discretionary Ligatures lookup 3-1" asciicircum eight
EndChar

StartChar: uni2079
Encoding: 482 8313 394
Width: 385
VWidth: 0
GlyphClass: 3
Flags: HMW
LayerCount: 2
Back
Fore
SplineSet
244 608 m 1
 244 565 l 1
 223 546 195 529 162 529 c 3
 87 529 47 570 47 636 c 3
 47 715 108 770 195 770 c 3
 285 770 337 716 337 614 c 3
 337 487 228 395 109 348 c 9
 96 377 l 17
 191 423 244 461 244 608 c 3
 244 699 220 737 184 737 c 3
 155 737 134 708 134 661 c 3
 134 593 150 572 184 572 c 3
 207 572 223 582 244 608 c 1
EndSplineSet
Validated: 5
Ligature2: "Opentypeshortcuts subtable" asciicircum nine
LCarets2: 1 0
Ligature2: "'dlig' Discretionary Ligatures lookup 3-1" asciicircum nine
EndChar

StartChar: uni0283
Encoding: 369 643 395
Width: 310
VWidth: -3
Flags: HMW
LayerCount: 2
Back
Fore
SplineSet
185 24 m 2
 185 -155 109 -230 27 -230 c 3
 -6 -230 -21 -224 -39 -218 c 1
 -30 -158 l 1
 -15 -152 l 1
 0 -157 36 -174 56 -174 c 3
 80 -174 90 -171 101 -153 c 1
 111 -119 112 -80 112 -15 c 2
 112 430 l 6
 112 609 188 684 270 684 c 7
 303 684 318 678 336 672 c 5
 327 612 l 5
 312 606 l 5
 297 611 261 628 241 628 c 7
 217 628 207 625 196 607 c 5
 186 573 185 534 185 469 c 6
 185 24 l 2
EndSplineSet
Validated: 1
EndChar

StartChar: notequal
Encoding: 518 8800 396
Width: 460
VWidth: 0
Flags: HMW
LayerCount: 2
Back
Fore
SplineSet
277 437 m 5
 308 427 l 5
 182 42 l 5
 151 52 l 5
 277 437 l 5
EndSplineSet
Refer: 29 61 N 1 0 0 1 0 0 2
Validated: 5
EndChar

StartChar: similar
Encoding: 513 8764 397
Width: 460
VWidth: 0
Flags: HMW
LayerCount: 2
Back
Fore
SplineSet
413 268 m 5
 429 242 l 5
 376 199 335 188 296 188 c 7
 239 188 191 228 140 228 c 7
 111 228 82 222 47 196 c 5
 31 222 l 5
 84 265 125 276 164 276 c 7
 221 276 269 236 320 236 c 7
 349 236 378 242 413 268 c 5
EndSplineSet
Validated: 1
EndChar

StartChar: sigma
Encoding: 449 963 398
Width: 550
VWidth: -3
Flags: HMW
LayerCount: 2
Back
Fore
SplineSet
251 -12 m 3
 139 -12 40 41 40 189 c 3
 40 339 126 425 284 425 c 2
 479 425 l 1
 514 440 l 1
 530 428 l 1
 513 344 l 1
 388 344 l 1
 439 317 474 270 474 205 c 3
 474 72 395 -12 251 -12 c 3
297 344 m 1
 243 344 l 1
 171 334 151 276 151 199 c 3
 151 80 190 29 262 29 c 3
 296 29 313 37 334 56 c 1
 358 89 366 122 366 191 c 3
 366 270 353 318 297 344 c 1
EndSplineSet
Validated: 1
EndChar

StartChar: theta
Encoding: 447 952 399
Width: 576
VWidth: 0
Flags: HMW
LayerCount: 2
Back
Fore
SplineSet
194 339 m 5
 409 339 l 1
 409 301 l 1
 151 301 l 1
 151 324 l 1
 194 339 l 5
298 596 m 3
 254 596 230 582 207 548 c 1
 182 497 176 449 176 324 c 3
 176 137 211 32 286 32 c 3
 330 32 344 47 367 81 c 1
 392 132 399 181 399 301 c 3
 399 488 373 596 298 596 c 3
272 -12 m 3
 178 -12 60 62 60 294 c 3
 60 518 154 638 306 638 c 3
 400 638 516 566 516 334 c 3
 516 110 424 -12 272 -12 c 3
EndSplineSet
Validated: 5
EndChar

StartChar: phi1
Encoding: 450 981 400
Width: 538
VWidth: -3
Flags: HMW
LayerCount: 2
Back
Fore
SplineSet
255 690 m 1
 293 690 l 1
 293 -230 l 1
 255 -230 l 1
 255 690 l 1
228 400 m 1
 144 354 131 297 131 220 c 3
 131 101 203 29 278 29 c 3
 320 29 340 36 361 55 c 1
 388 84 407 122 407 209 c 3
 407 328 357 397 282 397 c 9
 292 437 l 3
 403 437 523 385 523 229 c 3
 523 89 416 -12 254 -12 c 3
 144 -12 15 44 15 200 c 3
 15 299 88 398 222 427 c 1
 228 400 l 1
EndSplineSet
Validated: 5
EndChar

StartChar: uni27E8
Encoding: 547 10216 500
Width: 280
VWidth: 0
Flags: HMW
LayerCount: 2
Back
Fore
SplineSet
49 272 m 1
 185 686 l 1
 231 672 l 1
 98 272 l 1
 231 -129 l 1
 185 -143 l 1
 49 272 l 1
EndSplineSet
Validated: 1
EndChar

StartChar: uni23A7
Encoding: 537 9127 502
Width: 404
VWidth: 0
Flags: HMW
LayerCount: 2
Back
Fore
SplineSet
169 -230 m 13
 169 479 l 6
 169 674 306 758 394 770 c 5
 399 749 l 5
 340 731 235 690 235 489 c 6
 235 -230 l 21
 169 -230 l 13
EndSplineSet
Validated: 1
EndChar

StartChar: uni23A8
Encoding: 538 9128 503
Width: 404
VWidth: 0
Flags: HMW
LayerCount: 2
Back
Fore
SplineSet
169 -230 m 13
 169 128 l 6
 169 214 156 250 97 259 c 13
 97 279 l 21
 156 288 169 324 169 410 c 6
 169 770 l 21
 235 770 l 13
 235 434 l 6
 235 320 201 285 159 269 c 5
 201 253 235 218 235 104 c 6
 235 -230 l 21
 169 -230 l 13
EndSplineSet
Validated: 1
EndChar

StartChar: uni23A9
Encoding: 539 9129 504
Width: 404
VWidth: 0
Flags: HMW
LayerCount: 2
Back
Fore
SplineSet
169 770 m 21
 235 770 l 13
 235 51 l 6
 235 -150 340 -191 399 -209 c 5
 394 -230 l 5
 306 -218 169 -134 169 61 c 6
 169 770 l 21
EndSplineSet
Validated: 1
EndChar

StartChar: uni239B
Encoding: 525 9115 505
Width: 390
VWidth: 0
Flags: HMW
LayerCount: 2
Back
Fore
SplineSet
80 -230 m 1
 80 265 254 649 371 770 c 1
 390 752 l 1
 292 628 145 284 145 -230 c 5
 80 -230 l 1
EndSplineSet
Validated: 1
EndChar

StartChar: uni239D
Encoding: 527 9117 507
Width: 390
VWidth: 0
Flags: HMW
LayerCount: 2
Back
Fore
SplineSet
80 770 m 1
 145 770 l 5
 145 256 292 -88 390 -212 c 1
 371 -230 l 1
 254 -109 80 275 80 770 c 1
EndSplineSet
Validated: 1
EndChar

StartChar: uni23A1
Encoding: 531 9121 511
Width: 310
VWidth: 0
Flags: HMW
LayerCount: 2
Back
Fore
SplineSet
100 -230 m 5
 100 770 l 5
 242 770 l 1
 242 747 l 1
 165 734 l 1
 165 -230 l 1
 100 -230 l 5
EndSplineSet
Validated: 1
EndChar

StartChar: uni23A2
Encoding: 532 9122 512
Width: 310
VWidth: 0
Flags: HMW
LayerCount: 2
Back
Fore
SplineSet
165 770 m 1
 165 -230 l 25
 100 -230 l 5
 100 770 l 5
 165 770 l 1
EndSplineSet
Validated: 1
EndChar

StartChar: uni23A3
Encoding: 533 9123 513
Width: 310
VWidth: 0
Flags: HMW
LayerCount: 2
Back
Fore
SplineSet
100 770 m 5
 165 770 l 1
 165 -194 l 1
 242 -207 l 1
 242 -230 l 1
 100 -230 l 5
 100 770 l 5
EndSplineSet
Validated: 1
EndChar

StartChar: arrowboth
Encoding: 489 8596 520
Width: 760
VWidth: 0
Flags: HMW
LayerCount: 2
Back
Fore
SplineSet
649 211 m 5
 112 211 l 5
 257 82 l 5
 225 46 l 5
 40 234 l 5
 225 422 l 5
 255 389 l 5
 111 253 l 5
 648 253 l 5
 503 382 l 5
 535 418 l 5
 720 230 l 5
 535 42 l 5
 505 75 l 5
 649 211 l 5
EndSplineSet
Validated: 1
EndChar

StartChar: u1D434
Encoding: 580 119860 521
Width: 630
Flags: HMW
AnchorPoint: "bottom" 494 0 basemark 0
AnchorPoint: "top" 375 638 basechar 0
LayerCount: 2
Back
Fore
SplineSet
358 650 m 1
 410 650 l 1
 538 36 l 1
 594 20 l 1
 594 0 l 1
 353 0 l 1
 353 20 l 1
 418 39 l 1
 384 216 l 1
 187 216 l 1
 99 38 l 1
 169 20 l 1
 169 0 l 1
 -21 0 l 1
 -21 20 l 1
 44 37 l 1
 358 650 l 1
377 253 m 1
 329 505 l 1
 205 253 l 1
 377 253 l 1
EndSplineSet
Validated: 1
EndChar

StartChar: u1D435
Encoding: 581 119861 522
Width: 620
Flags: HMW
LayerCount: 2
Back
Fore
SplineSet
298 39 m 2
 406 39 446 92 446 190 c 0
 446 289 412 315 317 315 c 2
 249 315 l 1
 206 39 l 1
 298 39 l 2
111 638 m 1
 390 638 l 2
 521 638 571 609 571 510 c 0
 571 422 494 358 436 341 c 1
 504 331 566 294 566 200 c 0
 566 81 483 0 324 0 c 2
 14 0 l 1
 14 20 l 1
 92 45 l 1
 180 599 l 1
 111 618 l 1
 111 638 l 1
254 350 m 1
 309 350 l 2
 395 350 451 401 451 499 c 0
 451 589 407 600 331 600 c 2
 293 600 l 1
 254 350 l 1
EndSplineSet
Validated: 1
EndChar

StartChar: u1D436
Encoding: 582 119862 523
Width: 593
Flags: HMW
AnchorPoint: "top" 413 638 basechar 0
AnchorPoint: "bottom" 316 0 basechar 0
LayerCount: 2
Back
Fore
SplineSet
425 607 m 3
 246 607 176 426 176 244 c 3
 176 144 228 38 347 38 c 3
 393 38 439 42 466 53 c 5
 494 155 l 5
 548 150 l 5
 520 30 l 5
 486 15 401 -12 312 -12 c 3
 118 -12 58 115 58 241 c 3
 58 462 198 650 444 650 c 3
 526 650 585 632 614 617 c 1
 586 485 l 1
 539 491 l 1
 545 580 l 1
 523 595 471 607 425 607 c 3
EndSplineSet
Validated: 1
EndChar

StartChar: u1D437
Encoding: 583 119863 524
Width: 682
Flags: HMW
AnchorPoint: "top" 385 638 basechar 0
LayerCount: 2
Back
Fore
SplineSet
206 39 m 1
 289 39 l 2
 430 39 526 162 526 391 c 7
 526 566 479 600 347 600 c 2
 293 600 l 1
 206 39 l 1
299 0 m 2
 14 0 l 1
 14 20 l 1
 92 45 l 1
 180 599 l 1
 111 618 l 1
 111 638 l 1
 372 638 l 2
 564 638 647 583 647 392 c 3
 647 147 482 0 299 0 c 2
EndSplineSet
Validated: 1048577
EndChar

StartChar: u1D438
Encoding: 584 119864 525
Width: 573
Flags: HMW
AnchorPoint: "top" 339 638 basechar 0
LayerCount: 2
Back
Fore
SplineSet
111 638 m 1
 544 638 l 1
 527 510 l 1
 482 510 l 1
 482 596 l 1
 294 596 l 1
 255 353 l 1
 394 353 l 1
 412 409 l 1
 457 409 l 1
 433 256 l 1
 388 256 l 1
 387 312 l 1
 249 312 l 1
 206 44 l 1
 426 44 l 1
 466 142 l 1
 512 134 l 1
 476 0 l 1
 14 0 l 1
 14 20 l 1
 92 45 l 1
 180 599 l 1
 111 618 l 1
 111 638 l 1
EndSplineSet
Validated: 1048577
EndChar

StartChar: u1D439
Encoding: 585 119865 526
Width: 499
Flags: HMW
LayerCount: 2
Back
Fore
SplineSet
110 638 m 1
 538 638 l 1
 521 510 l 1
 476 510 l 1
 476 596 l 1
 293 596 l 1
 253 343 l 1
 387 343 l 1
 405 399 l 1
 450 399 l 1
 426 246 l 1
 381 246 l 1
 380 302 l 1
 246 302 l 1
 204 39 l 1
 283 20 l 1
 283 0 l 1
 14 0 l 1
 14 20 l 1
 92 45 l 1
 179 599 l 1
 110 618 l 1
 110 638 l 1
EndSplineSet
Validated: 1
EndChar

StartChar: u1D43A
Encoding: 586 119866 527
Width: 658
Flags: HMW
AnchorPoint: "bottom" 317 0 basechar 0
AnchorPoint: "top" 405 638 basechar 0
LayerCount: 2
Back
Fore
SplineSet
539 37 m 1
 505 17 422 -12 309 -12 c 3
 115 -12 55 115 55 241 c 3
 55 462 195 650 441 650 c 3
 523 650 582 632 611 617 c 1
 583 488 l 1
 536 489 l 1
 542 581 l 1
 520 596 468 607 422 607 c 3
 243 607 173 426 173 244 c 3
 173 144 225 31 344 31 c 3
 380 31 406 34 429 41 c 1
 461 250 l 1
 380 266 l 1
 380 286 l 1
 622 286 l 1
 622 266 l 1
 575 250 l 1
 539 37 l 1
EndSplineSet
Validated: 1
EndChar

StartChar: u1D43B
Encoding: 587 119867 528
Width: 716
Flags: HMW
AnchorPoint: "bottom" 298 0 basechar 0
AnchorPoint: "top" 423 638 basechar 0
LayerCount: 2
Back
Fore
SplineSet
112 638 m 1
 366 638 l 1
 366 618 l 1
 293 593 l 1
 255 352 l 1
 509 352 l 1
 548 599 l 1
 484 618 l 1
 484 638 l 1
 738 638 l 1
 738 618 l 1
 660 593 l 1
 572 39 l 1
 641 20 l 1
 641 0 l 1
 387 0 l 1
 387 20 l 1
 460 45 l 1
 502 309 l 1
 248 309 l 1
 205 39 l 1
 269 20 l 1
 269 0 l 1
 15 0 l 1
 15 20 l 1
 93 45 l 1
 181 599 l 1
 112 618 l 1
 112 638 l 1
EndSplineSet
Validated: 1
EndChar

StartChar: u1D43C
Encoding: 588 119868 529
Width: 371
Flags: HMW
AnchorPoint: "top" 245 638 basechar 0
LayerCount: 2
Back
Fore
SplineSet
120 638 m 5
 379 638 l 5
 379 618 l 5
 301 593 l 5
 213 39 l 5
 282 20 l 5
 282 0 l 5
 23 0 l 5
 23 20 l 5
 101 45 l 5
 189 599 l 5
 120 618 l 5
 120 638 l 5
EndSplineSet
Validated: 1048577
EndChar

StartChar: u1D43D
Encoding: 589 119869 530
Width: 371
Flags: HMW
AnchorPoint: "top" 231 638 basechar 0
LayerCount: 2
Back
Fore
SplineSet
179 599 m 1
 110 618 l 1
 110 638 l 1
 369 638 l 1
 369 618 l 1
 291 593 l 1
 206 61 l 2
 189 -46 90 -164 -26 -230 c 1
 -35 -213 l 1
 46 -149 77 -41 87 22 c 2
 179 599 l 1
EndSplineSet
Validated: 1048577
EndChar

StartChar: u1D43E
Encoding: 590 119870 531
Width: 669
Flags: HMW
AnchorPoint: "bottom" 335 0 basechar 0
AnchorPoint: "top" 391 638 basechar 0
LayerCount: 2
Back
Fore
SplineSet
293 593 m 1
 205 39 l 1
 264 20 l 1
 264 0 l 1
 15 0 l 1
 15 20 l 1
 93 45 l 1
 181 599 l 1
 112 618 l 1
 112 638 l 1
 361 638 l 1
 361 618 l 1
 293 593 l 1
561 594 m 1
 361 364 l 1
 552 63 l 1
 586 21 l 1
 583 0 l 1
 455 0 l 1
 270 327 l 1
 310 365 l 1
 502 593 l 1
 457 612 l 1
 457 638 l 1
 632 638 l 1
 632 612 l 1
 561 594 l 1
EndSplineSet
Validated: 1
EndChar

StartChar: u1D43F
Encoding: 591 119871 532
Width: 555
Flags: HMW
AnchorPoint: "bottom" 275 0 basechar 0
AnchorPoint: "top" 240 638 basechar 0
LayerCount: 2
Back
Fore
SplineSet
205 44 m 1
 416 44 l 1
 457 142 l 5
 503 134 l 1
 467 0 l 1
 14 0 l 1
 14 20 l 1
 92 45 l 1
 181 599 l 1
 112 618 l 1
 112 638 l 1
 371 638 l 1
 371 618 l 1
 293 593 l 1
 205 44 l 1
EndSplineSet
Validated: 1
EndChar

StartChar: u1D440
Encoding: 592 119872 533
Width: 870
Flags: HMW
LayerCount: 2
Back
Fore
SplineSet
135 39 m 1
 199 21 l 1
 199 0 l 1
 6 0 l 1
 6 21 l 1
 86 39 l 1
 175 598 l 1
 110 617 l 1
 110 638 l 1
 329 638 l 1
 426 158 l 1
 666 638 l 1
 880 638 l 1
 880 617 l 1
 804 598 l 1
 716 39 l 1
 789 21 l 1
 789 0 l 1
 532 0 l 1
 532 21 l 1
 603 39 l 1
 689 584 l 1
 686 584 l 1
 395 8 l 1
 344 8 l 1
 226 581 l 1
 222 581 l 1
 135 39 l 1
EndSplineSet
Validated: 1
EndChar

StartChar: u1D441
Encoding: 593 119873 534
Width: 656
Flags: HMW
AnchorPoint: "bottom" 305 0 basechar 0
AnchorPoint: "top" 390 638 basechar 0
LayerCount: 2
Back
Fore
SplineSet
105 638 m 1
 295 638 l 1
 496 160 l 1
 566 600 l 1
 490 617 l 1
 490 638 l 1
 680 638 l 1
 680 617 l 1
 615 600 l 1
 519 -3 l 1
 439 -3 l 1
 211 538 l 1
 130 39 l 1
 206 21 l 1
 206 0 l 1
 1 0 l 1
 1 21 l 1
 81 39 l 1
 170 598 l 1
 105 617 l 1
 105 638 l 1
EndSplineSet
Validated: 1
EndChar

StartChar: u1D442
Encoding: 594 119874 535
Width: 678
Flags: HMW
AnchorPoint: "bottom" 298 0 basechar 0
AnchorPoint: "top" 404 638 basechar 0
LayerCount: 2
Back
Fore
SplineSet
382 609 m 3
 247 609 176 473 176 273 c 3
 176 147 225 30 337 30 c 3
 473 30 544 165 544 365 c 3
 544 491 495 609 382 609 c 3
305 -12 m 3
 126 -12 56 112 56 257 c 3
 56 483 216 650 415 650 c 3
 594 650 664 526 664 381 c 3
 664 155 504 -12 305 -12 c 3
EndSplineSet
Validated: 1
EndChar

StartChar: u1D443
Encoding: 595 119875 536
Width: 572
Flags: HMW
LayerCount: 2
Back
Fore
SplineSet
111 638 m 1
 382 638 l 2
 516 638 581 611 581 492 c 3
 581 354 452 256 288 256 c 2
 272 256 l 1
 277 289 l 1
 292 289 l 2
 393 289 458 358 458 487 c 3
 458 590 416 600 343 600 c 2
 294 600 l 1
 204 39 l 1
 283 20 l 1
 283 0 l 1
 14 0 l 1
 14 20 l 1
 92 45 l 1
 180 599 l 1
 111 618 l 1
 111 638 l 1
EndSplineSet
Validated: 1
EndChar

StartChar: u1D444
Encoding: 596 119876 537
Width: 678
Flags: HMW
LayerCount: 2
Back
Fore
SplineSet
516 -71 m 1
 516 -86 l 1
 470 -158 l 1
 454 -158 l 1
 256 -44 l 1
 267 -16 l 1
 516 -71 l 1
EndSplineSet
Refer: 535 119874 N 1 0 0 1 0 0 2
Validated: 1
EndChar

StartChar: u1D445
Encoding: 597 119877 538
Width: 630
Flags: HMW
AnchorPoint: "bottom" 321 0 basechar 0
AnchorPoint: "top" 341 638 basechar 0
LayerCount: 2
Back
Fore
SplineSet
293 600 m 1
 203 39 l 1
 272 20 l 1
 272 0 l 1
 13 0 l 1
 13 20 l 1
 91 45 l 1
 179 599 l 1
 110 618 l 1
 110 638 l 1
 371 638 l 2
 512 638 558 601 558 505 c 3
 558 385 448 331 383 315 c 1
 540 63 l 1
 577 21 l 1
 574 0 l 1
 440 0 l 1
 274 316 l 1
 276 327 l 1
 345 327 434 366 434 500 c 3
 434 575 410 600 336 600 c 2
 293 600 l 1
EndSplineSet
Validated: 1
EndChar

StartChar: u1D446
Encoding: 598 119878 539
Width: 497
Flags: HMW
AnchorPoint: "bottom" 215 0 basechar 0
AnchorPoint: "top" 315 638 basechar 0
LayerCount: 2
Back
Fore
SplineSet
89 54 m 5
 119 37 160 26 205 26 c 7
 279 26 332 58 332 129 c 7
 332 193 298 231 221 282 c 4
 126 345 98 399 98 466 c 7
 98 553 178 650 323 650 c 7
 396 650 450 636 472 626 c 5
 454 503 l 5
 408 505 l 5
 408 595 l 5
 389 605 354 614 317 614 c 7
 243 614 200 572 200 501 c 7
 200 444 244 407 314 361 c 4
 409 298 442 250 442 180 c 7
 442 78 360 -12 191 -12 c 7
 114 -12 67 1 25 20 c 5
 33 155 l 5
 83 156 l 5
 89 54 l 5
EndSplineSet
Validated: 1
EndChar

StartChar: u1D447
Encoding: 599 119879 540
Width: 577
Flags: HMW
AnchorPoint: "bottom" 268 0 basechar 0
AnchorPoint: "top" 355 638 basechar 0
LayerCount: 2
Back
Fore
SplineSet
301 602 m 1
 414 602 l 1
 325 39 l 1
 394 20 l 1
 394 0 l 1
 135 0 l 1
 135 20 l 1
 213 45 l 1
 301 602 l 1
556 602 m 1
 157 602 l 1
 120 500 l 5
 74 502 l 1
 105 643 l 1
 135 643 l 1
 184 638 l 1
 543 638 l 1
 593 643 l 1
 622 643 l 1
 608 502 l 1
 563 500 l 1
 556 602 l 1
EndSplineSet
Validated: 5
EndChar

StartChar: u1D448
Encoding: 600 119880 541
Width: 655
Flags: HMW
AnchorPoint: "top" 411 638 basechar 0
LayerCount: 2
Back
Fore
SplineSet
505 245 m 2
 560 596 l 1
 498 618 l 1
 498 638 l 1
 676 638 l 1
 676 618 l 1
 612 596 l 1
 557 246 l 2
 532 89 474 -12 301 -12 c 3
 135 -12 89 58 118 243 c 2
 174 596 l 1
 111 618 l 1
 111 638 l 1
 345 638 l 1
 345 618 l 1
 284 596 l 1
 229 242 l 2
 207 103 227 44 330 44 c 3
 422 44 479 81 505 245 c 2
EndSplineSet
Validated: 1048609
EndChar

StartChar: u1D449
Encoding: 601 119881 542
Width: 572
Flags: HMW
LayerCount: 2
Back
Fore
SplineSet
574 599 m 1
 279 -12 l 1
 229 -12 l 1
 121 601 l 1
 63 617 l 1
 63 638 l 1
 295 638 l 1
 295 617 l 1
 240 598 l 1
 311 143 l 1
 519 598 l 1
 457 617 l 1
 457 638 l 1
 645 638 l 1
 645 617 l 1
 574 599 l 1
EndSplineSet
Validated: 1
EndChar

StartChar: u1D44A
Encoding: 602 119882 543
Width: 899
Flags: HMW
AnchorPoint: "top" 544 638 basechar 0
LayerCount: 2
Back
Fore
SplineSet
574 598 m 1
 639 166 l 1
 824 598 l 1
 763 617 l 1
 763 638 l 1
 951 638 l 1
 951 617 l 1
 880 599 l 1
 604 -12 l 1
 554 -12 l 1
 487 443 l 1
 487 442 282 -12 282 -12 c 1
 233 -12 l 1
 143 601 l 1
 85 617 l 1
 85 638 l 1
 316 638 l 1
 316 617 l 1
 260 598 l 1
 319 164 l 1
 514 598 l 1
 574 598 l 1
EndSplineSet
Validated: 1048577
EndChar

StartChar: u1D44B
Encoding: 603 119883 544
Width: 602
Flags: HMW
LayerCount: 2
Back
Fore
SplineSet
117 638 m 1
 325 638 l 1
 325 617 l 1
 287 601 l 1
 358 397 l 1
 486 597 l 1
 456 617 l 1
 456 638 l 1
 606 638 l 1
 606 617 l 1
 539 598 l 1
 373 356 l 1
 504 34 l 1
 548 21 l 1
 548 0 l 1
 358 0 l 1
 358 21 l 1
 381 32 l 1
 292 278 l 1
 131 42 l 1
 176 21 l 1
 176 0 l 1
 9 0 l 1
 9 21 l 1
 77 41 l 1
 276 319 l 1
 162 603 l 1
 117 617 l 1
 117 638 l 1
EndSplineSet
Validated: 1
EndChar

StartChar: u1D44C
Encoding: 604 119884 545
Width: 568
Flags: HMW
AnchorPoint: "top" 360 638 basechar 0
LayerCount: 2
Back
Fore
SplineSet
85 638 m 1
 304 638 l 1
 304 617 l 1
 263 598 l 1
 342 337 l 1
 501 597 l 1
 454 617 l 1
 454 638 l 1
 616 638 l 1
 616 617 l 1
 552 598 l 1
 356 293 l 1
 315 39 l 1
 382 20 l 1
 382 0 l 1
 131 0 l 1
 131 20 l 1
 203 45 l 1
 242 290 l 1
 139 601 l 1
 85 617 l 1
 85 638 l 1
EndSplineSet
Validated: 1048577
EndChar

StartChar: u1D44D
Encoding: 605 119885 546
Width: 549
Flags: HMW
AnchorPoint: "top" 301 638 basechar 0
LayerCount: 2
Back
Fore
SplineSet
401 44 m 1
 445 145 l 1
 489 138 l 1
 447 0 l 1
 20 0 l 1
 17 26 l 1
 379 594 l 1
 181 594 l 1
 139 498 l 1
 94 502 l 1
 132 643 l 1
 150 643 l 1
 198 638 l 1
 518 638 l 1
 524 613 l 1
 159 44 l 1
 401 44 l 1
EndSplineSet
Validated: 1048577
EndChar

StartChar: u1D44E
Encoding: 606 119886 547
Width: 522
Flags: HMW
AnchorPoint: "top" 305 425 basechar 0
LayerCount: 2
Back
Fore
SplineSet
352 437 m 3
 381 437 438 433 471 422 c 1
 429 248 l 1
 404 102 l 9
 404 43 l 1
 462 38 l 1
 464 14 l 1
 282 -9 l 1
 280 4 l 1
 311 174 l 1
 256 56 190 -12 130 -12 c 3
 91 -12 43 9 43 111 c 3
 43 263 145 437 352 437 c 3
279 389 m 3
 178 389 154 262 154 136 c 3
 154 84 166 75 189 75 c 3
 221 75 287 156 339 329 c 1
 347 367 l 1
 332 378 304 389 279 389 c 3
EndSplineSet
Validated: 1048577
EndChar

StartChar: u1D44F
Encoding: 607 119887 548
Width: 523
Flags: HMW
LayerCount: 2
Back
Fore
SplineSet
275 690 m 1
 199 248 l 1
 254 366 328 437 388 437 c 3
 427 437 480 416 480 314 c 3
 480 162 378 -12 176 -12 c 3
 147 -12 84 -8 51 3 c 1
 149 579 l 25
 149 638 l 1
 91 643 l 1
 89 667 l 1
 275 690 l 1
334 351 m 3
 292 351 226 268 174 94 c 1
 168 59 l 5
 183 48 217 36 249 36 c 3
 330 36 369 163 369 289 c 3
 369 341 357 351 334 351 c 3
EndSplineSet
Validated: 1
EndChar

StartChar: u1D450
Encoding: 608 119888 549
Width: 409
Flags: HMW
AnchorPoint: "bottom" 184 0 basechar 0
AnchorPoint: "top" 278 425 basechar 0
LayerCount: 2
Back
Fore
SplineSet
328 437 m 7
 357 437 378 427 395 411 c 1
 360 333 l 1
 347 328 l 1
 325 342 298 367 264 367 c 3
 168 367 149 273 149 165 c 3
 149 79 182 55 228 55 c 3
 270 55 316 89 352 123 c 1
 373 101 l 1
 316 41 246 -12 179 -12 c 3
 100 -12 43 20 43 133 c 3
 43 285 192 437 328 437 c 7
EndSplineSet
Validated: 1
EndChar

StartChar: u1D451
Encoding: 609 119889 550
Width: 531
Flags: HMW
AnchorPoint: "top" 435 685 basechar 0
LayerCount: 2
Back
Fore
SplineSet
518 690 m 1
 416 92 l 1
 416 43 l 1
 474 38 l 1
 476 14 l 1
 294 -9 l 1
 292 4 l 1
 323 176 l 1
 268 58 195 -12 135 -12 c 3
 96 -12 43 9 43 111 c 3
 43 257 167 437 337 437 c 3
 350 437 360 435 369 432 c 1
 392 579 l 10
 392 638 l 1
 334 643 l 1
 332 667 l 1
 518 690 l 1
289 389 m 3
 181 389 154 262 154 136 c 3
 154 84 166 75 189 75 c 3
 221 75 299 158 351 331 c 1
 356 360 l 5
 341 376 314 389 289 389 c 3
EndSplineSet
Validated: 1048577
EndChar

StartChar: u1D452
Encoding: 610 119890 551
Width: 436
Flags: HMW
AnchorPoint: "top" 263 425 basechar 0
LayerCount: 2
Back
Fore
SplineSet
299 437 m 3
 350 437 385 399 385 352 c 3
 385 274 290 219 158 203 c 1
 157 189 157 176 157 161 c 3
 157 81 187 55 223 55 c 3
 275 55 329 89 365 123 c 1
 386 101 l 1
 329 41 251 -12 184 -12 c 3
 110 -12 48 20 48 133 c 3
 48 290 182 437 299 437 c 3
253 385 m 3
 195 385 168 329 160 234 c 1
 275 247 285 299 285 349 c 3
 285 374 270 385 253 385 c 3
EndSplineSet
Validated: 1048577
EndChar

StartChar: u1D453
Encoding: 611 119891 552
Width: 350
Flags: HMW
LayerCount: 2
Back
Fore
SplineSet
381 687 m 3
 403 687 429 683 445 678 c 1
 418 595 l 1
 405 590 l 1
 380 601 346 616 319 616 c 3
 289 616 278 597 265 516 c 2
 250 425 l 1
 347 425 l 1
 340 387 l 1
 244 387 l 1
 183 11 l 2
 165 -99 91 -158 46 -190 c 0
 9 -216 -16 -230 -51 -230 c 3
 -73 -230 -99 -226 -115 -221 c 1
 -88 -138 l 1
 -75 -133 l 1
 -50 -144 -16 -159 11 -159 c 3
 41 -159 52 -140 65 -59 c 2
 137 387 l 1
 80 387 l 1
 83 403 l 1
 144 425 l 1
 147 446 l 2
 165 556 239 615 284 647 c 0
 321 673 346 687 381 687 c 3
EndSplineSet
Validated: 1
EndChar

StartChar: u1D454
Encoding: 612 119892 553
Width: 511
Flags: HMW
AnchorPoint: "top" 305 425 basechar 0
LayerCount: 2
Back
Fore
SplineSet
361 437 m 3
 390 437 447 433 480 422 c 1
 438 248 l 1
 397 7 l 2
 374 -130 265 -182 218 -206 c 0
 180 -225 159 -230 102 -230 c 3
 62 -230 21 -218 -5 -198 c 1
 19 -121 l 1
 33 -112 l 1
 72 -142 140 -159 185 -159 c 3
 241 -159 264 -150 279 -63 c 2
 320 174 l 1
 265 56 194 -12 134 -12 c 3
 95 -12 42 9 42 111 c 3
 42 263 154 437 361 437 c 3
288 389 m 3
 177 389 153 262 153 136 c 3
 153 84 165 75 188 75 c 3
 220 75 296 156 348 329 c 1
 356 367 l 5
 341 378 313 389 288 389 c 3
EndSplineSet
Validated: 1048577
EndChar

StartChar: u1D455
Encoding: 613 119893 554
Width: 549
Flags: HMW
AnchorPoint: "top" 335 678 basechar 0
LayerCount: 2
Back
Fore
SplineSet
285 690 m 5
 207 230 l 1
 268 377 308 437 393 437 c 3
 439 437 491 407 476 322 c 2
 436 102 l 1
 436 43 l 1
 494 38 l 1
 496 14 l 1
 321 -9 l 1
 317 3 l 1
 330 113 l 1
 366 303 l 2
 374 343 358 362 330 362 c 3
 294 362 243 269 184 94 c 1
 169 10 l 1
 61 -12 l 1
 55 -1 l 1
 94 175 l 1
 159 579 l 13
 159 638 l 5
 101 643 l 5
 99 667 l 5
 285 690 l 5
EndSplineSet
Validated: 1048609
EndChar

StartChar: u1D456
Encoding: 614 119894 555
Width: 304
Flags: HMW
LayerCount: 2
Back
Fore
SplineSet
186 672 m 3
 225 672 256 642 256 603 c 3
 256 564 225 533 186 533 c 3
 147 533 117 564 117 603 c 3
 117 642 147 672 186 672 c 3
236 437 m 1
 180 102 l 1
 180 43 l 1
 238 38 l 1
 240 14 l 1
 65 -9 l 1
 61 3 l 1
 74 113 l 1
 112 326 l 9
 112 385 l 1
 55 390 l 1
 53 414 l 1
 236 437 l 1
EndSplineSet
Validated: 1
EndChar

StartChar: u1D457
Encoding: 615 119895 556
Width: 291
Flags: HMW
LayerCount: 2
Back
Fore
SplineSet
193 672 m 3
 232 672 263 642 263 603 c 3
 263 564 232 533 193 533 c 3
 154 533 124 564 124 603 c 3
 124 642 154 672 193 672 c 3
243 437 m 1
 184 65 l 6
 168 -38 80 -118 54 -145 c 4
 22 -178 -34 -230 -82 -230 c 7
 -102 -230 -116 -225 -127 -212 c 5
 -106 -132 l 5
 -93 -127 l 5
 -68 -143 -49 -144 -19 -144 c 7
 25 -144 49 -105 71 32 c 6
 119 326 l 10
 119 385 l 1
 62 390 l 1
 60 414 l 1
 243 437 l 1
EndSplineSet
Validated: 1
EndChar

StartChar: u1D458
Encoding: 616 119896 557
Width: 523
Flags: HMW
AnchorPoint: "bottom" 245 0 basechar 0
LayerCount: 2
Back
Fore
SplineSet
284 690 m 1
 181 94 l 1
 169 9 l 1
 61 -12 l 1
 55 -1 l 1
 92 175 l 1
 158 579 l 9
 158 638 l 1
 100 643 l 1
 98 667 l 1
 284 690 l 1
434 437 m 7
 453 437 474 431 483 423 c 1
 457 338 l 1
 449 334 l 1
 428 340 410 346 388 346 c 3
 361 346 350 336 291 257 c 1
 388 76 l 25
 425 43 l 1
 474 43 l 1
 476 19 l 1
 317 -9 l 1
 211 208 l 1
 241 240 l 1
 321 339 327 354 349 383 c 0
 372 413 399 437 434 437 c 7
EndSplineSet
Validated: 1048577
EndChar

StartChar: u1D459
Encoding: 617 119897 558
Width: 295
Flags: HMW
AnchorPoint: "bottom" 115 0 basechar 0
AnchorPoint: "top" 204 680 basechar 0
LayerCount: 2
Back
Fore
SplineSet
272 690 m 1
 174 102 l 1
 174 43 l 1
 232 38 l 1
 234 14 l 1
 59 -9 l 1
 55 3 l 1
 68 113 l 1
 146 579 l 9
 146 638 l 1
 88 643 l 1
 86 667 l 1
 272 690 l 1
EndSplineSet
Validated: 1
EndChar

StartChar: u1D45A
Encoding: 618 119898 559
Width: 788
Flags: HMW
LayerCount: 2
Back
Fore
SplineSet
243 437 m 1
 205 230 l 1
 266 377 305 437 390 437 c 3
 436 437 485 407 470 322 c 2
 455 242 l 1
 515 381 552 437 635 437 c 3
 681 437 730 407 715 322 c 2
 675 102 l 1
 675 43 l 1
 733 38 l 1
 735 14 l 1
 560 -9 l 1
 556 3 l 1
 569 113 l 1
 605 303 l 2
 613 343 600 362 572 362 c 3
 536 362 486 269 427 94 c 1
 412 10 l 1
 304 -12 l 1
 298 -1 l 1
 337 175 l 1
 360 303 l 2
 367 343 355 362 327 362 c 3
 291 362 241 269 182 94 c 1
 167 10 l 1
 59 -12 l 1
 53 -1 l 1
 92 175 l 1
 117 326 l 9
 117 385 l 1
 60 390 l 1
 58 414 l 1
 243 437 l 1
EndSplineSet
Validated: 33
EndChar

StartChar: u1D45B
Encoding: 619 119899 560
Width: 545
Flags: HMW
AnchorPoint: "bottom" 249 0 basechar 0
AnchorPoint: "top" 299 425 basechar 0
LayerCount: 2
Back
Fore
SplineSet
243 437 m 5
 205 230 l 5
 266 377 306 437 391 437 c 7
 437 437 487 407 472 322 c 6
 432 102 l 5
 432 43 l 1
 490 38 l 1
 492 14 l 1
 317 -9 l 1
 313 3 l 1
 326 113 l 5
 362 303 l 6
 370 343 356 362 328 362 c 7
 292 362 241 269 182 94 c 5
 167 10 l 1
 59 -12 l 1
 53 -1 l 1
 92 175 l 5
 117 326 l 13
 117 385 l 5
 60 390 l 5
 58 414 l 5
 243 437 l 5
EndSplineSet
Validated: 33
EndChar

StartChar: u1D45C
Encoding: 620 119900 561
Width: 487
Flags: HMW
AnchorPoint: "top" 283 425 basechar 0
LayerCount: 2
Back
Fore
SplineSet
303 437 m 7
 372 437 444 405 444 292 c 7
 444 79 276 -12 189 -12 c 7
 119 -12 48 20 48 133 c 7
 48 346 215 437 303 437 c 7
264 389 m 7
 195 389 159 294 159 165 c 7
 159 79 186 37 228 37 c 7
 296 37 333 131 333 260 c 7
 333 346 305 389 264 389 c 7
EndSplineSet
Validated: 1048577
EndChar

StartChar: u1D45D
Encoding: 621 119901 562
Width: 529
Flags: HMW
LayerCount: 2
Back
Fore
SplineSet
238 437 m 1
 204 248 l 1
 259 366 334 437 394 437 c 3
 433 437 486 416 486 314 c 3
 486 162 386 -12 184 -12 c 3
 177 -12 169 -12 160 -11 c 1
 123 -208 l 1
 15 -230 l 1
 9 -219 l 1
 62 13 l 1
 112 326 l 9
 112 385 l 1
 55 390 l 1
 53 414 l 1
 238 437 l 1
340 351 m 3
 298 351 232 268 180 94 c 1
 174 59 l 1
 189 48 223 36 255 36 c 3
 336 36 375 163 375 289 c 3
 375 341 363 351 340 351 c 3
EndSplineSet
Validated: 1
EndChar

StartChar: u1D45E
Encoding: 622 119902 563
Width: 512
Flags: HMW
LayerCount: 2
Back
Fore
SplineSet
361 437 m 3
 390 437 447 433 480 422 c 1
 439 248 l 1
 375 -119 l 9
 375 -178 l 1
 441 -183 l 1
 443 -207 l 1
 255 -230 l 1
 251 -218 l 1
 321 174 l 1
 266 56 195 -12 135 -12 c 3
 96 -12 43 9 43 111 c 3
 43 263 154 437 361 437 c 3
288 389 m 3
 187 389 154 262 154 136 c 3
 154 84 166 75 189 75 c 3
 221 75 296 156 348 329 c 1
 356 367 l 1
 341 378 313 389 288 389 c 3
EndSplineSet
Validated: 1
EndChar

StartChar: u1D45F
Encoding: 623 119903 564
Width: 402
Flags: HMW
AnchorPoint: "bottom" 114 0 basechar 0
AnchorPoint: "top" 276 425 basechar 0
LayerCount: 2
Back
Fore
SplineSet
241 437 m 5
 206 240 l 1
 262 374 310 437 375 437 c 3
 397 437 411 429 419 422 c 1
 388 330 l 1
 378 325 l 1
 362 335 349 337 329 337 c 3
 275 337 204 202 180 94 c 1
 165 9 l 1
 59 -12 l 1
 53 -1 l 1
 90 175 l 1
 115 326 l 9
 115 385 l 1
 58 390 l 1
 56 414 l 1
 241 437 l 5
EndSplineSet
Validated: 1
EndChar

StartChar: u1D460
Encoding: 624 119904 565
Width: 362
Flags: HMW
AnchorPoint: "bottom" 147 0 basechar 0
AnchorPoint: "top" 223 425 basechar 0
LayerCount: 2
Back
Fore
SplineSet
270 437 m 3
 299 437 325 432 344 423 c 1
 322 341 l 1
 304 336 l 1
 282 352 235 376 190 376 c 3
 165 376 142 367 142 339 c 3
 142 310 176 290 219 261 c 0
 277 222 310 186 310 128 c 3
 310 46 205 -12 121 -12 c 3
 73 -12 23 4 4 15 c 1
 20 98 l 1
 38 103 l 1
 60 87 127 46 172 46 c 3
 209 46 224 53 224 83 c 3
 224 114 206 132 150 170 c 4
 95 207 62 243 62 289 c 3
 62 379 179 437 270 437 c 3
EndSplineSet
Validated: 1
EndChar

StartChar: u1D461
Encoding: 625 119905 566
Width: 326
Flags: HMW
AnchorPoint: "bottom" 140 0 basechar 0
LayerCount: 2
Back
Fore
SplineSet
229 540 m 1
 240 529 l 1
 222 425 l 1
 316 425 l 1
 309 387 l 1
 215 387 l 1
 169 125 l 2
 159 69 166 49 199 49 c 3
 217 49 249 60 268 73 c 1
 278 54 l 1
 243 21 176 -12 125 -12 c 3
 71 -12 43 7 60 105 c 2
 110 387 l 1
 53 387 l 1
 56 403 l 1
 94 425 l 1
 117 425 l 1
 133 518 l 1
 229 540 l 1
EndSplineSet
Validated: 1048609
EndChar

StartChar: u1D462
Encoding: 626 119906 567
Width: 548
Flags: HMW
AnchorPoint: "top" 297 425 basechar 0
LayerCount: 2
Back
Fore
SplineSet
235 437 m 5
 220 312 l 5
 186 122 l 6
 179 82 192 63 220 63 c 7
 256 63 307 156 366 331 c 5
 381 415 l 5
 489 437 l 5
 495 426 l 5
 456 250 l 5
 431 102 l 13
 431 43 l 5
 489 38 l 5
 491 14 l 5
 309 -9 l 5
 307 4 l 5
 343 195 l 5
 282 48 242 -12 157 -12 c 7
 111 -12 61 18 76 103 c 6
 112 311 l 13
 112 385 l 5
 55 390 l 5
 53 414 l 5
 235 437 l 5
EndSplineSet
Validated: 1048609
EndChar

StartChar: u1D463
Encoding: 627 119907 568
Width: 475
Flags: HMW
LayerCount: 2
Back
Fore
SplineSet
223 437 m 5
 201 96 l 2
 199 59 207 49 225 49 c 3
 259 49 340 199 340 303 c 3
 340 331 333 373 322 392 c 1
 419 437 l 1
 440 433 l 1
 452 424 457 399 457 381 c 3
 457 250 279 -12 168 -12 c 3
 132 -12 95 0 98 67 c 2
 111 326 l 13
 107 385 l 5
 50 390 l 5
 48 414 l 5
 223 437 l 5
EndSplineSet
Validated: 33
EndChar

StartChar: u1D464
Encoding: 628 119908 569
Width: 696
Flags: HMW
AnchorPoint: "top" 406 425 basechar 0
LayerCount: 2
Back
Fore
SplineSet
223 437 m 1
 201 96 l 2
 199 59 209 49 222 49 c 3
 251 49 335 209 335 303 c 3
 335 331 328 373 317 392 c 1
 412 437 l 1
 433 433 l 1
 445 424 451 399 451 381 c 3
 451 355 445 312 440 290 c 2
 427 96 l 2
 425 59 435 49 453 49 c 3
 487 49 561 199 561 303 c 3
 561 331 554 373 543 392 c 1
 640 437 l 1
 661 433 l 1
 673 424 678 399 678 381 c 3
 678 250 505 -12 394 -12 c 3
 358 -12 321 0 324 67 c 2
 328 148 l 1
 286 52 225 -12 168 -12 c 3
 132 -12 95 0 98 67 c 2
 111 326 l 9
 107 385 l 1
 50 390 l 1
 48 414 l 1
 223 437 l 1
EndSplineSet
Validated: 1048609
EndChar

StartChar: u1D465
Encoding: 629 119909 570
Width: 462
Flags: HMW
LayerCount: 2
Back
Fore
SplineSet
230 437 m 1
 265 287 l 1
 295 339 307 359 324 383 c 0
 345 412 371 437 406 437 c 0
 427 437 442 434 454 425 c 1
 431 342 l 1
 418 335 l 1
 397 341 385 346 363 346 c 0
 336 346 321 327 275 248 c 1
 326 76 l 1
 353 43 l 1
 407 43 l 1
 409 19 l 1
 235 -9 l 1
 199 151 l 1
 161 86 152 68 133 42 c 0
 112 13 81 -12 46 -12 c 0
 25 -12 10 -9 -2 0 c 1
 21 83 l 1
 34 90 l 1
 55 84 72 79 94 79 c 0
 122 79 138 99 190 189 c 1
 141 352 l 1
 114 385 l 1
 60 385 l 1
 58 409 l 1
 230 437 l 1
EndSplineSet
Validated: 1
EndChar

StartChar: u1D466
Encoding: 630 119910 571
Width: 515
Flags: HMW
AnchorPoint: "top" 281 425 basechar 0
LayerCount: 2
Back
Fore
SplineSet
222 437 m 1
 207 312 l 1
 173 122 l 2
 166 82 179 63 207 63 c 3
 243 63 294 156 353 331 c 1
 368 415 l 1
 476 437 l 1
 482 426 l 1
 443 249 l 1
 402 7 l 2
 379 -129 286 -177 239 -206 c 0
 203 -228 170 -230 113 -230 c 3
 73 -230 26 -218 0 -198 c 1
 24 -121 l 1
 38 -112 l 1
 77 -142 151 -159 196 -159 c 3
 252 -159 269 -150 284 -63 c 2
 330 195 l 1
 269 48 234 -12 149 -12 c 3
 103 -12 48 18 63 103 c 2
 99 311 l 9
 99 385 l 1
 42 390 l 1
 40 414 l 1
 222 437 l 1
EndSplineSet
Validated: 1048609
EndChar

StartChar: u1D467
Encoding: 631 119911 572
Width: 401
Flags: HMW
AnchorPoint: "top" 215 425 basechar 0
LayerCount: 2
Back
Fore
SplineSet
88 437 m 1
 128 437 l 1
 277 409 l 2
 301 404 317 409 360 437 c 1
 378 413 l 1
 302 335 l 1
 135 113 l 1
 260 87 l 2
 302 78 320 85 344 125 c 1
 366 121 l 1
 322 -12 l 5
 277 -12 l 5
 111 20 l 6
 80 26 54 18 11 -12 c 5
 -7 12 l 5
 79 102 l 5
 244 324 l 1
 164 339 l 2
 121 348 94 340 70 300 c 1
 48 304 l 1
 88 437 l 1
EndSplineSet
Validated: 1048609
EndChar

StartChar: uni23AA
Encoding: 540 9130 573
Width: 404
VWidth: 0
Flags: HMW
LayerCount: 2
Back
Fore
SplineSet
235 770 m 5
 235 -230 l 29
 169 -230 l 5
 169 770 l 5
 235 770 l 5
EndSplineSet
Validated: 1
EndChar

StartChar: zero.oldstyleproportional
Encoding: 553 63280 575
Width: 500
VWidth: -3
GlyphClass: 3
Flags: HMW
LayerCount: 2
Back
Fore
SplineSet
254 397 m 3
 226 397 213 393 192 374 c 1
 172 340 160 297 160 220 c 3
 160 101 183 29 250 29 c 3
 278 29 290 34 311 53 c 1
 331 87 340 130 340 207 c 3
 340 326 321 397 254 397 c 3
234 -12 m 3
 144 -12 40 44 40 200 c 3
 40 350 122 437 264 437 c 3
 354 437 460 383 460 227 c 3
 460 77 376 -12 234 -12 c 3
EndSplineSet
Validated: 1
Ligature2: "Oldstyleclosingtag subtable" zero.onumflag less slash o n u m greater
EndChar

StartChar: one.oldstyleproportional
Encoding: 554 63281 576
Width: 396
VWidth: -3
GlyphClass: 3
Flags: HMW
LayerCount: 2
Back
Fore
SplineSet
256 387 m 1
 256 34 l 1
 336 18 l 1
 336 0 l 1
 60 0 l 1
 60 18 l 1
 146 43 l 1
 146 386 l 1
 70 407 l 1
 70 425 l 1
 326 425 l 1
 326 407 l 1
 256 387 l 1
EndSplineSet
Validated: 1
Ligature2: "Oldstyleclosingtag subtable" one.onumflag less slash o n u m greater
EndChar

StartChar: two.oldstyleproportional
Encoding: 555 63282 577
Width: 445
VWidth: 0
GlyphClass: 3
Flags: HMW
LayerCount: 2
Back
Fore
SplineSet
175 378 m 3
 141 378 124 372 84 355 c 1
 69 380 l 1
 125 417 171 437 236 437 c 3
 319 437 362 392 362 323 c 3
 362 233 263 156 182 94 c 5
 347 94 l 9
 374 133 l 1
 395 128 l 1
 378 0 l 1
 56 0 l 1
 50 32 l 1
 195 139 250 224 250 305 c 3
 250 362 217 378 175 378 c 3
EndSplineSet
Validated: 1
Ligature2: "Oldstyleclosingtag subtable" two.onumflag less slash o n u m greater
EndChar

StartChar: three.oldstyleproportional
Encoding: 556 63283 578
Width: 445
VWidth: 0
GlyphClass: 3
Flags: HMW
LayerCount: 2
Back
Fore
SplineSet
231 70 m 0
 202.54217103 86.0047483679 176 92 131 92 c 1
 127 126 l 1
 204 168 233 216 233 289 c 3
 233 352 197 377 154 377 c 3
 121 377 104 372 65 355 c 1
 50 380 l 1
 104 417 145 437 217 437 c 3
 297 437 347 387 347 308 c 3
 347 222 258 163 214 138 c 1
 243 137 273.899414062 133.717773438 296 126 c 0
 359 104 395 61 395 -8 c 3
 395 -159 240 -230 54 -230 c 1
 54 -194 l 1
 186 -194 284 -142 284 -27 c 3
 284 22 265.358398438 50.6767578125 231 70 c 0
EndSplineSet
Validated: 1
Ligature2: "Oldstyleclosingtag subtable" three.onumflag less slash o n u m greater
EndChar

StartChar: four.oldstyleproportional
Encoding: 557 63284 579
Width: 542
VWidth: -3
GlyphClass: 3
Flags: HMW
LayerCount: 2
Back
Fore
SplineSet
287 254 m 1
 377 307 l 1
 398 307 l 1
 398 -120 l 1
 311 -171 l 1
 287 -171 l 1
 287 254 l 1
346 417 m 1
 101 84 l 1
 507 84 l 25
 507 23 l 25
 39 23 l 25
 30 44 l 1
 320 453 l 1
 346 453 l 1
 346 417 l 1
EndSplineSet
Validated: 5
Ligature2: "Oldstyleclosingtag subtable" four.onumflag less slash o n u m greater
EndChar

StartChar: five.oldstyleproportional
Encoding: 558 63285 580
Width: 441
VWidth: 0
GlyphClass: 3
Flags: HMW
LayerCount: 2
Back
Fore
SplineSet
50 -230 m 1
 50 -195 l 1
 205 -195 277 -135 277 -32 c 3
 277 11 263.739257812 39.53515625 226 61 c 0
 191.772460938 80.4677734375 145 84 67 84 c 1
 57 93 l 1
 102 425 l 1
 338 425 l 1
 345 412 l 1
 333 331 l 1
 130 331 l 1
 106 153 l 1
 185 153 253 149 297 131 c 4
 358 105 391 61 391 -8 c 3
 391 -159 236 -230 50 -230 c 1
EndSplineSet
Validated: 1
Ligature2: "Oldstyleclosingtag subtable" five.onumflag less slash o n u m greater
EndChar

StartChar: six.oldstyleproportional
Encoding: 559 63286 581
Width: 516
VWidth: 0
GlyphClass: 3
Flags: HMW
LayerCount: 2
Back
Fore
SplineSet
175 275 m 1
 175 313 l 1
 205 345 242 366 299 366 c 3
 410 366 460 293 460 194 c 3
 460 77 385 -13 259 -13 c 3
 123 -13 60 62 60 219 c 3
 60 437 232 576 393 638 c 9
 409 611 l 17
 290 550 175 440 175 226 c 3
 175 89 219 29 266 29 c 3
 323 29 350 68 350 162 c 3
 350 264 309 308 258 308 c 3
 226 308 202 298 175 275 c 1
EndSplineSet
Validated: 5
Ligature2: "Oldstyleclosingtag subtable" six.onumflag less slash o n u m greater
EndChar

StartChar: seven.oldstyleproportional
Encoding: 560 63287 582
Width: 380
VWidth: 0
GlyphClass: 3
Flags: HMW
LayerCount: 2
Back
Fore
SplineSet
26 348 m 1
 39 425 l 1
 344 425 l 1
 360 406 l 1
 143 -216 l 9
 65 -189 l 17
 151 -9 220 150 289 331 c 1
 36 331 l 1
 26 348 l 1
EndSplineSet
Validated: 1
Ligature2: "Oldstyleclosingtag subtable" seven.onumflag less slash o n u m greater
EndChar

StartChar: eight.oldstyleproportional
Encoding: 561 63288 583
Width: 518
VWidth: 0
GlyphClass: 3
Flags: HMW
LayerCount: 2
Back
Fore
SplineSet
302 334 m 9
 277 361 l 1
 327 391 339 446 339 496 c 3
 339 567 309 603 258 603 c 3
 213 603 185 562 185 505 c 3
 185 360 458 331 458 162 c 3
 458 66 379 -12 253 -12 c 3
 130 -12 60 38 60 141 c 3
 60 223 149 294 212 325 c 9
 232 296 l 17
 170 257 147 223 147 146 c 3
 147 67 192 27 253 27 c 3
 312 27 348 67 348 137 c 3
 348 258 83 308 83 480 c 3
 83 559 143 638 260 638 c 3
 382 638 423 577 423 500 c 3
 423 419 342 356 302 334 c 9
EndSplineSet
Validated: 5
Ligature2: "Oldstyleclosingtag subtable" eight.onumflag less slash o n u m greater
EndChar

StartChar: nine.oldstyleproportional
Encoding: 562 63289 584
Width: 496
VWidth: 0
GlyphClass: 3
Flags: HMW
LayerCount: 2
Back
Fore
SplineSet
327 154 m 1
 327 116 l 1
 297 84 270 68 213 68 c 3
 112 68 52 131 52 230 c 3
 52 347 127 437 248 437 c 3
 379 437 442 362 442 205 c 3
 442 -13 280 -169 119 -231 c 9
 103 -204 l 17
 222 -143 327 -16 327 198 c 3
 327 335 288 395 241 395 c 3
 184 395 162 356 162 262 c 3
 162 160 203 126 254 126 c 3
 286 126 300 131 327 154 c 1
EndSplineSet
Validated: 5
Ligature2: "Oldstyleclosingtag subtable" nine.onumflag less slash o n u m greater
EndChar

StartChar: u1D703
Encoding: 632 120579 585
Width: 541
VWidth: 0
Flags: HMW
LayerCount: 2
Back
Fore
SplineSet
204 339 m 1
 413 339 l 1
 406 301 l 1
 140 301 l 1
 140 317 l 1
 204 339 l 1
328 593 m 3
 238 593 185 427 185 227 c 3
 185 101 196 33 254 33 c 3
 344 33 403 200 403 400 c 3
 403 526 386 593 328 593 c 3
351 638 m 3
 482 638 518 560 518 415 c 3
 518 189 395 -12 231 -12 c 3
 100 -12 64 66 64 211 c 3
 64 437 187 638 351 638 c 3
EndSplineSet
Validated: 5
EndChar

StartChar: u1D70B
Encoding: 633 120587 586
Width: 566
VWidth: 0
Flags: HMW
LayerCount: 2
Back
Fore
SplineSet
341 344 m 1
 447 344 l 1
 411 114 l 1
 411 76 l 2
 411 45 431 38 484 38 c 1
 486 14 l 1
 326 -9 l 1
 307 3 l 2
 291 13 290 34 300 94 c 2
 341 344 l 1
172 -5 m 1
 61 7 l 1
 56 27 l 1
 85 62 173 124 186 277 c 2
 192 347 l 1
 238 347 l 1
 218 144 207 70 172 -5 c 1
526 344 m 1
 447 344 l 1
 341 344 l 1
 238 347 l 1
 192 347 l 17
 134 347 113 342 82 325 c 9
 64 350 l 1
 107 401 147 425 213 425 c 2
 492 425 l 1
 527 435 l 1
 543 423 l 1
 526 344 l 1
EndSplineSet
Validated: 37
EndChar

StartChar: u1D70E
Encoding: 634 120590 587
Width: 516
VWidth: -3
Flags: HMW
LayerCount: 2
Back
Fore
SplineSet
535 344 m 1
 433 344 l 1
 452 312 457 298 457 262 c 3
 457 129 330 -12 184 -12 c 3
 110 -12 46 25 46 134 c 3
 46 298 178 425 326 425 c 2
 501 425 l 1
 536 435 l 1
 552 423 l 1
 535 344 l 1
349 253 m 3
 349 295 334 323 306 344 c 1
 230 344 l 1
 175 330 157 255 157 177 c 3
 157 70 187 38 231 38 c 3
 305 38 349 132 349 253 c 3
EndSplineSet
Validated: 1
EndChar

StartChar: u1D719
Encoding: 635 120601 588
Width: 520
VWidth: -3
Flags: HMW
LayerCount: 2
Back
Fore
SplineSet
293 431 m 1
 392 431 468 385 468 277 c 3
 468 85 312 -12 187 -12 c 3
 84 -12 11 37 11 150 c 3
 11 256 70 361 201 410 c 1
 214 389 l 1
 137 338 122 259 122 162 c 3
 122 76 161 32 228 32 c 3
 306 32 357 122 357 265 c 3
 357 351 328 398 276 402 c 1
 293 431 l 1
308 682 m 1
 346 676 l 1
 186 -230 l 1
 148 -224 l 1
 308 682 l 1
EndSplineSet
Validated: 5
EndChar

StartChar: u1D6F4
Encoding: 636 120564 589
Width: 571
VWidth: 0
Flags: HMW
LayerCount: 2
Back
Fore
SplineSet
274 300 m 1
 121 616 l 1
 129 638 l 1
 544 638 l 1
 527 510 l 1
 482 510 l 1
 482 596 l 9
 256 596 l 1
 368 355 l 1
 365 335 l 1
 128 84 l 9
 439 84 l 1
 466 142 l 1
 512 134 l 1
 476 0 l 1
 26 0 l 1
 19 25 l 1
 274 300 l 1
EndSplineSet
Validated: 1
EndChar

StartChar: u1D6F1
Encoding: 637 120561 590
Width: 676
VWidth: 0
Flags: HMW
LayerCount: 2
Back
Fore
SplineSet
122 638 m 1
 680 638 l 1
 680 618 l 1
 602 593 l 1
 514 39 l 1
 583 20 l 1
 583 0 l 1
 324 0 l 1
 324 20 l 1
 402 45 l 1
 490 596 l 1
 303 596 l 1
 215 39 l 1
 284 20 l 1
 284 0 l 1
 25 0 l 1
 25 20 l 1
 103 45 l 1
 191 599 l 1
 122 618 l 1
 122 638 l 1
EndSplineSet
Validated: 1
EndChar

StartChar: uni20D1
Encoding: 484 8401 591
Width: 0
GlyphClass: 4
Flags: HMW
AnchorPoint: "top" -239 425 mark 0
LayerCount: 2
Back
Fore
SplineSet
-77 538 m 5
 -394 538 l 5
 -394 582 l 5
 -139 574 l 5
 -229 654 l 5
 -196 690 l 5
 -70 563 l 5
 -77 538 l 5
EndSplineSet
Validated: 1
EndChar

StartChar: uni23B7
Encoding: 544 9143 593
Width: 1000
Flags: HMW
LayerCount: 2
Back
Fore
SplineSet
-102 -375 m 1
 -109 -358 l 1
 25 -291 l 1
 40 -298 l 1
 288 -1046 l 1
 1000 938 l 1
 1030 928 l 1
 276 -1183 l 1
 237 -1183 l 1
 -44 -358 l 1
 -102 -375 l 1
EndSplineSet
Validated: 1
EndChar

StartChar: dollar.oldstyleproportional
Encoding: 552 63268 594
Width: 410
GlyphClass: 3
Flags: HMW
LayerCount: 2
Back
Fore
SplineSet
186 514 m 1
 216 514 l 1
 216 -86 l 1
 186 -86 l 1
 186 514 l 1
EndSplineSet
Refer: 83 115 N 1 0 0 1 -11 0 2
Validated: 5
LCarets2: 7 0 0 0 0 0 0 0
Ligature2: "Oldstyleclosingtag subtable" dollar.onumflag less slash o n u m greater
EndChar

StartChar: percent.oldstyleproportional
Encoding: 551 63042 595
Width: 647
GlyphClass: 3
Flags: HMW
LayerCount: 2
Back
Fore
SplineSet
487 183 m 3
 472 183 464.573242188 179.145507812 456 167 c 0
 444 150 440 137 440 104 c 3
 440 54 457 19 487 19 c 3
 499 19 508.426757812 22.8544921875 517 35 c 0
 529 52 532 65 532 98 c 3
 532 148 517 183 487 183 c 3
480 -12 m 3
 433 -12 375 19 375 94 c 3
 375 166 419 213 491 213 c 3
 538 213 597 183 597 108 c 3
 597 36 552 -12 480 -12 c 3
162 407 m 3
 147 407 139.573242188 403.145507812 131 391 c 0
 119 374 115 361 115 328 c 3
 115 278 132 243 162 243 c 3
 177 243 183.426757812 246.854492188 192 259 c 0
 204 276 207 289 207 322 c 3
 207 372 192 407 162 407 c 3
155 212 m 3
 108 212 50 243 50 318 c 3
 50 390 94 437 166 437 c 3
 213 437 272 407 272 332 c 3
 272 260 227 212 155 212 c 3
432 437 m 1
 467 419 l 1
 218 -12 l 1
 183 6 l 1
 432 437 l 1
EndSplineSet
Validated: 1
Ligature2: "Oldstyleclosingtag subtable" percent.onumflag less slash o n u m greater
EndChar

StartChar: uni0302
Encoding: 432 770 596
Width: 0
VWidth: -3
GlyphClass: 4
Flags: MW
AnchorPoint: "top" -200 425 mark 0
LayerCount: 2
Back
Fore
SplineSet
-201 572 m 5
 -311 507 l 5
 -332 532 l 5
 -200 657 l 5
 -68 532 l 5
 -91 507 l 5
 -201 572 l 5
EndSplineSet
Validated: 1
EndChar

StartChar: acutecomb
Encoding: 431 769 597
Width: 0
VWidth: -3
GlyphClass: 4
Flags: MW
AnchorPoint: "top" -220 425 mark 0
LayerCount: 2
Back
Fore
SplineSet
-176 672 m 5
 -108 635 l 5
 -108 614 l 5
 -249 496 l 5
 -278 519 l 5
 -176 672 l 5
EndSplineSet
Validated: 1
EndChar

StartChar: gravecomb
Encoding: 430 768 598
Width: 0
VWidth: -3
GlyphClass: 4
Flags: MW
AnchorPoint: "top" -180 425 mark 0
LayerCount: 2
Back
Fore
SplineSet
-220 672 m 5
 -118 519 l 5
 -147 496 l 5
 -288 614 l 5
 -288 635 l 5
 -220 672 l 5
EndSplineSet
Validated: 1
EndChar

StartChar: tildecomb
Encoding: 433 771 600
Width: 0
VWidth: -3
GlyphClass: 4
Flags: MW
AnchorPoint: "top" -197 425 mark 0
LayerCount: 2
Back
Fore
SplineSet
-61 623 m 5
 -42 601 l 5
 -93 550 -132 538 -160 538 c 7
 -203 538 -234 569 -273 569 c 7
 -292 569 -304 563 -333 542 c 5
 -352 564 l 5
 -301 615 -262 627 -234 627 c 7
 -191 627 -160 596 -121 596 c 7
 -102 596 -90 602 -61 623 c 5
EndSplineSet
Validated: 1
EndChar

StartChar: uni0304
Encoding: 434 772 601
Width: 0
VWidth: -3
GlyphClass: 4
Flags: MW
AnchorPoint: "top" -225 425 mark 0
LayerCount: 2
Back
Fore
SplineSet
-332 557 m 5
 -332 602 l 5
 -122 602 l 5
 -122 557 l 5
 -332 557 l 5
EndSplineSet
Validated: 1
EndChar

StartChar: uni0306
Encoding: 435 774 602
Width: 0
VWidth: -3
GlyphClass: 4
Flags: MW
AnchorPoint: "top" -200 425 mark 0
LayerCount: 2
Back
Fore
SplineSet
-200 593 m 7
 -147 593 -116 609 -94 645 c 5
 -68 634 l 5
 -89 574 -133 529 -200 529 c 7
 -267 529 -311 574 -332 634 c 5
 -306 645 l 5
 -284 609 -253 593 -200 593 c 7
EndSplineSet
Validated: 1
EndChar

StartChar: uni0307
Encoding: 436 775 603
Width: 0
VWidth: -3
GlyphClass: 4
Flags: MW
AnchorPoint: "top" -200 425 mark 0
LayerCount: 2
Back
Fore
SplineSet
-255 582 m 7
 -255 612 -230 637 -200 637 c 7
 -170 637 -145 612 -145 582 c 7
 -145 552 -170 527 -200 527 c 7
 -230 527 -255 552 -255 582 c 7
EndSplineSet
Validated: 1
EndChar

StartChar: uni030A
Encoding: 438 778 605
Width: 0
VWidth: -3
GlyphClass: 4
Flags: MW
AnchorPoint: "top" -200 425 mark 0
LayerCount: 2
Back
Fore
SplineSet
-201 644 m 7
 -234 644 -241 621 -241 586 c 7
 -241 554 -230 526 -200 526 c 7
 -169 526 -160 545 -160 583 c 7
 -160 616 -168 644 -201 644 c 7
-102 586 m 7
 -102 534 -143 495 -202 495 c 7
 -261 495 -298 530 -298 584 c 7
 -298 634 -258 675 -199 675 c 7
 -140 675 -102 640 -102 586 c 7
EndSplineSet
Validated: 1
EndChar

StartChar: uni030B
Encoding: 439 779 606
Width: 0
VWidth: -3
GlyphClass: 4
Flags: MW
AnchorPoint: "top" -209 425 mark 0
LayerCount: 2
Back
Fore
SplineSet
-125 669 m 1
 -48 658 l 1
 -41 638 l 1
 -133 479 l 1
 -168 491 l 1
 -125 669 l 1
-273 669 m 5
 -196 658 l 5
 -189 638 l 5
 -281 479 l 5
 -316 491 l 5
 -273 669 l 5
EndSplineSet
Validated: 1
EndChar

StartChar: uni0315
Encoding: 443 789 607
Width: 0
VWidth: 0
GlyphClass: 4
Flags: MW
AnchorPoint: "bottom" -80 690 mark 0
AnchorPoint: "top" -250 600 mark 0
LayerCount: 2
Back
Fore
SplineSet
-52 650 m 1
 -41 648 l 1
 -31 636 -20 613 -20 585 c 3
 -20 526 -55 482 -111 446 c 1
 -122 464 l 1
 -104 489 -99 507 -99 536 c 3
 -99 558 -106 583 -122 610 c 1
 -52 650 l 1
EndSplineSet
Validated: 1
EndChar

StartChar: uni0327
Encoding: 444 807 610
Width: 0
VWidth: 0
GlyphClass: 4
Flags: MW
AnchorPoint: "bottom" -206 0 mark 0
LayerCount: 2
Back
Fore
SplineSet
-276 -204 m 1
 -234 -196 -217 -170 -217 -148 c 3
 -217 -124 -233 -106 -270 -97 c 1
 -280 -79 l 1
 -224 0 l 1
 -212 19 l 1
 -188 0 l 1
 -225 -54 l 1
 -150 -71 -137 -91 -137 -132 c 3
 -137 -183 -201 -223 -270 -230 c 1
 -276 -204 l 1
EndSplineSet
Validated: 1
EndChar

StartChar: circle
Encoding: 545 9675 616
Width: 500
VWidth: 0
Flags: HMW
LayerCount: 2
Back
Fore
SplineSet
70 212 m 3
 70 112 150 32 250 32 c 3
 350 32 430 112 430 212 c 3
 430 312 349 393 249 393 c 3
 149 393 70 312 70 212 c 3
25 212 m 3
 25 337 126 437 251 437 c 3
 377 437 475 338 475 212 c 3
 475 87 373 -12 248 -12 c 3
 122 -12 25 86 25 212 c 3
EndSplineSet
Validated: 1
EndChar

StartChar: uni25CC
Encoding: 546 9676 617
Width: 500
VWidth: 0
Flags: HMW
LayerCount: 2
Back
SplineSet
315.328125 212 m 1
 684.551757812 59.0625 l 1
 665.41796875 12.8681640625 l 1
 296.194335938 165.805664062 l 1
 449.131835938 -203.41796875 l 1
 402.9375 -222.551757812 l 1
 250 146.671875 l 1
 97.0625 -222.551757812 l 1
 50.8681640625 -203.41796875 l 1
 203.805664062 165.805664062 l 1
 -165.41796875 12.8681640625 l 1
 -184.551757812 59.0625 l 1
 184.671875 212 l 1
 -184.551757812 364.9375 l 1
 -165.41796875 411.131835938 l 1
 203.805664062 258.194335938 l 1
 50.8681640625 627.41796875 l 1
 97.0625 646.551757812 l 1
 250 277.328125 l 1
 402.9375 646.551757812 l 1
 449.131835938 627.41796875 l 1
 296.194335938 258.194335938 l 1
 665.41796875 411.131835938 l 1
 684.551757812 364.9375 l 1
 315.328125 212 l 1
EndSplineSet
Fore
SplineSet
141 409 m 1
 158 368 l 1
 132 352 109 331 94 304 c 1
 53 321 l 1
 74 358 104 389 141 409 c 1
34 275 m 1
 76 257 l 1
 72 243 70 228 70 212 c 3
 70 196 72 181 76 167 c 1
 33 149 l 1
 28 169 25 190 25 212 c 3
 25 234 28 255 34 275 c 1
95 121 m 1
 110 95 133 72 159 57 c 1
 141 14 l 1
 103 34 72 65 52 103 c 1
 95 121 l 1
205 38 m 1
 219 34 234 32 250 32 c 3
 266 32 281 34 295 38 c 1
 312 -3 l 1
 292 -9 270 -12 248 -12 c 3
 227 -12 207 -9 188 -4 c 1
 205 38 l 1
405 121 m 1
 447 103 l 1
 426 66 395 36 358 16 c 1
 341 57 l 1
 367 72 390 95 405 121 c 1
467 275 m 1
 473 255 475 234 475 212 c 3
 475 190 472 170 466 150 c 1
 424 167 l 1
 428 181 430 196 430 212 c 3
 430 228 428 243 424 257 c 1
 467 275 l 1
359 410 m 1
 397 390 428 359 448 321 c 1
 405 303 l 1
 390 329 368 352 342 368 c 1
 359 410 l 1
251 437 m 3
 272 437 293 434 313 429 c 1
 295 387 l 1
 280 391 265 393 249 393 c 3
 234 393 218 391 204 387 c 1
 188 428 l 1
 208 434 229 437 251 437 c 3
EndSplineSet
Validated: 1
EndChar

StartChar: Euro
Encoding: 483 8364 618
Width: 623
VWidth: 0
GlyphClass: 4
Flags: HMW
LayerCount: 2
Back
Fore
SplineSet
402 220 m 1
 27 220 l 1
 27 236 l 1
 78 254 l 1
 402 254 l 1
 402 220 l 1
402 338 m 1
 27 338 l 1
 27 354 l 1
 78 372 l 1
 402 372 l 1
 402 338 l 1
364 -12 m 3
 199 -12 90 94 90 289 c 3
 90 464 199 606 380 606 c 3
 458 606 522 592 556 578 c 1
 551 460 l 1
 509 460 l 1
 499 546 l 1
 472 560 434 568 385 568 c 3
 258 568 205 468 205 308 c 3
 205 135 269 32 405 32 c 3
 451 32 474 35 502 44 c 1
 518 138 l 1
 567 135 l 1
 560 23 l 1
 526 8 456 -12 364 -12 c 3
EndSplineSet
Validated: 5
EndChar

StartChar: startonum
Encoding: 549 57381 619
Width: 500
VWidth: 0
GlyphClass: 3
Flags: HMW
LayerCount: 2
Back
Fore
SplineSet
100 -130 m 2
 400 -130 l 2
 455.400390625 -130 500 -174.599609375 500 -230 c 3
 500 -285.400390625 455.400390625 -330 400 -330 c 2
 100 -330 l 2
 44.599609375 -330 0 -285.400390625 0 -230 c 3
 0 -174.599609375 44.599609375 -130 100 -130 c 2
123.00390625 -187.642578125 m 3
 100.8046875 -187.642578125 86.64453125 -203.72265625 86.64453125 -230.961914062 c 3
 86.64453125 -258.682617188 100.8046875 -274.162109375 123.00390625 -274.162109375 c 3
 145.204101562 -274.162109375 159.244140625 -258.202148438 159.244140625 -230.841796875 c 3
 159.244140625 -203.122070312 145.204101562 -187.642578125 123.00390625 -187.642578125 c 3
123.00390625 -199.762695312 m 3
 135.484375 -199.762695312 142.564453125 -208.642578125 142.564453125 -230.841796875 c 3
 142.564453125 -253.282226562 135.364257812 -262.041992188 123.00390625 -262.041992188 c 3
 110.884765625 -262.041992188 103.32421875 -253.282226562 103.32421875 -230.961914062 c 3
 103.32421875 -208.642578125 110.64453125 -199.762695312 123.00390625 -199.762695312 c 3
235.373046875 -189.442382812 m 1
 220.97265625 -189.442382812 l 1
 220.97265625 -228.322265625 l 2
 220.97265625 -240.08203125 222.413085938 -252.08203125 223.1328125 -256.642578125 c 2
 194.212890625 -189.442382812 l 1
 174.172851562 -189.442382812 l 1
 174.172851562 -272.362304688 l 1
 188.573242188 -272.362304688 l 1
 188.573242188 -238.522460938 l 2
 188.573242188 -223.162109375 187.252929688 -212.602539062 186.413085938 -205.282226562 c 2
 214.853515625 -272.362304688 l 1
 235.373046875 -272.362304688 l 1
 235.373046875 -189.442382812 l 1
315.278320312 -189.442382812 m 1
 299.318359375 -189.442382812 l 1
 299.318359375 -244.40234375 l 2
 299.318359375 -256.041992188 294.637695312 -261.801757812 284.318359375 -261.801757812 c 0
 274.118164062 -261.801757812 269.438476562 -256.041992188 269.438476562 -244.40234375 c 2
 269.438476562 -189.442382812 l 1
 253.59765625 -189.442382812 l 1
 253.59765625 -245.2421875 l 2
 253.59765625 -262.282226562 263.91796875 -274.162109375 284.318359375 -274.162109375 c 0
 304.59765625 -274.162109375 315.278320312 -261.921875 315.278320312 -245.2421875 c 2
 315.278320312 -189.442382812 l 1
404.96484375 -189.442382812 m 1
 384.325195312 -189.442382812 l 1
 370.405273438 -247.522460938 l 1
 355.64453125 -189.442382812 l 1
 335.245117188 -189.442382812 l 1
 328.64453125 -272.362304688 l 1
 344.004882812 -272.362304688 l 1
 346.044921875 -238.162109375 l 2
 346.764648438 -226.282226562 347.004882812 -214.881835938 346.525390625 -203.72265625 c 2
 362.60546875 -263.362304688 l 1
 377.60546875 -263.362304688 l 1
 392.724609375 -203.841796875 l 2
 392.485351562 -212.602539062 393.084960938 -225.442382812 393.8046875 -237.682617188 c 2
 395.96484375 -272.362304688 l 1
 411.4453125 -272.362304688 l 1
 404.96484375 -189.442382812 l 1
0 0 m 1
 500 0 l 1
 500 -44 l 1
 0 -44 l 1
 0 0 l 1
EndSplineSet
Validated: 33
Ligature2: "Opentypeshortcuts subtable" less o n u m greater
LCarets2: 5 0 0 0 0 0
Ligature2: "'dlig' Discretionary Ligatures lookup 3-1" less o n u m greater
EndChar

StartChar: tagwarning
Encoding: 550 57382 637
Width: 500
VWidth: 0
Flags: HMW
LayerCount: 2
Back
Fore
SplineSet
100 -130 m 2
 400 -130 l 2
 455.400390625 -130 500 -174.599609375 500 -230 c 3
 500 -285.400390625 455.400390625 -330 400 -330 c 2
 100 -330 l 2
 44.599609375 -330 0 -285.400390625 0 -230 c 3
 0 -174.599609375 44.599609375 -130 100 -130 c 2
139.169921875 -204.5625 m 1
 92.9697265625 -225.322265625 l 1
 92.9697265625 -239.602539062 l 1
 139.169921875 -260.2421875 l 1
 144.209960938 -248.602539062 l 1
 105.689453125 -232.40234375 l 1
 144.209960938 -215.961914062 l 1
 139.169921875 -204.5625 l 1
187.741210938 -174.921875 m 1
 159.661132812 -282.202148438 l 1
 172.981445312 -285.322265625 l 1
 200.94140625 -177.921875 l 1
 187.741210938 -174.921875 l 1
218.459960938 -254.72265625 m 3
 213.059570312 -254.72265625 208.859375 -259.041992188 208.859375 -264.442382812 c 3
 208.859375 -269.72265625 213.059570312 -274.162109375 218.459960938 -274.162109375 c 3
 223.979492188 -274.162109375 228.299804688 -269.72265625 228.299804688 -264.442382812 c 3
 228.299804688 -259.041992188 223.979492188 -254.72265625 218.459960938 -254.72265625 c 3
247.979492188 -254.72265625 m 3
 242.580078125 -254.72265625 238.379882812 -259.041992188 238.379882812 -264.442382812 c 3
 238.379882812 -269.72265625 242.580078125 -274.162109375 247.979492188 -274.162109375 c 3
 253.5 -274.162109375 257.69921875 -269.72265625 257.69921875 -264.442382812 c 3
 257.69921875 -259.041992188 253.5 -254.72265625 247.979492188 -254.72265625 c 3
277.5 -254.72265625 m 3
 272.099609375 -254.72265625 267.899414062 -259.041992188 267.899414062 -264.442382812 c 3
 267.899414062 -269.72265625 272.099609375 -274.162109375 277.5 -274.162109375 c 3
 283.01953125 -274.162109375 287.219726562 -269.72265625 287.219726562 -264.442382812 c 3
 287.219726562 -259.041992188 283.01953125 -254.72265625 277.5 -254.72265625 c 3
302.150390625 -204.5625 m 1
 297.110351562 -215.961914062 l 1
 335.510742188 -232.40234375 l 1
 297.110351562 -248.602539062 l 1
 302.150390625 -260.2421875 l 1
 348.350585938 -239.602539062 l 1
 348.350585938 -225.322265625 l 1
 302.150390625 -204.5625 l 1
405.801757812 -189.442382812 m 1
 389.2421875 -189.442382812 l 1
 391.162109375 -243.08203125 l 1
 404.001953125 -243.08203125 l 1
 405.801757812 -189.442382812 l 1
397.642578125 -254.72265625 m 3
 392.2421875 -254.72265625 387.921875 -259.041992188 387.921875 -264.442382812 c 3
 387.921875 -269.72265625 392.2421875 -274.162109375 397.642578125 -274.162109375 c 3
 403.162109375 -274.162109375 407.362304688 -269.72265625 407.362304688 -264.442382812 c 3
 407.362304688 -259.041992188 403.162109375 -254.72265625 397.642578125 -254.72265625 c 3
EndSplineSet
Refer: 617 9676 N 1 0 0 1 0 0 2
Validated: 1
EndChar

StartChar: a.smcp
Encoding: 638 -1 638
Width: 495
VWidth: -3
Flags: HMW
LayerCount: 2
Back
Fore
SplineSet
125 184 m 1
 360 184 l 1
 360 146 l 1
 125 146 l 1
 125 184 l 1
53 36 m 17
 216 456 l 1
 285 456 l 1
 452 32 l 1
 505 18 l 1
 505 0 l 1
 287 0 l 1
 287 18 l 1
 331 34 l 1
 214 352 l 5
 101 33 l 1
 156 18 l 1
 156 0 l 1
 -10 0 l 1
 -10 18 l 1
 53 36 l 17
EndSplineSet
Validated: 5
Ligature2: "SmallCapsClose subtable" a.smcpflag less slash s c greater
EndChar

StartChar: b.smcp
Encoding: 639 -1 639
Width: 532
VWidth: 0
Flags: HMW
LayerCount: 2
Back
Fore
SplineSet
230 244 m 1
 253 244 l 2
 323 244 347 273.967773438 347 336 c 3
 347 399.0078125 317 413 259 413 c 2
 230 413 l 1
 230 36 l 1
 262 36 l 2
 334 36 367 54.869140625 367 125 c 3
 367 183.052734375 349 213 259 213 c 2
 230 213 l 1
 230 244 l 1
368 238 m 1
 437 229 482 203.077148438 482 129 c 3
 482 39.669921875 434 -1.8737096027e-14 281 0 c 2
 50 0 l 1
 50 18 l 1
 120 43 l 1
 120 413 l 1
 54 431 l 1
 54 449 l 1
 285 449 l 2
 418 449 459 432.022460938 459 346 c 3
 459 286 426 251 368 238 c 1
EndSplineSet
Validated: 5
Ligature2: "SmallCapsClose subtable" b.smcpflag less slash s c greater
EndChar

StartChar: c.smcp
Encoding: 640 -1 640
Width: 497
VWidth: -3
Flags: HMW
AnchorPoint: "top" 269 449 basemark 0
AnchorPoint: "bottom" 279 0 basemark 0
LayerCount: 2
Back
Fore
SplineSet
297 421 m 3
 199 421 166 375 166 243 c 3
 166 110 200.994140625 40 311 40 c 3
 345 40 358 43 378 50 c 1
 390 130 l 1
 437 127 l 1
 432 21 l 1
 398 4 348 -12 285 -12 c 3
 142 -12 50 57 50 216 c 3
 50 386 161 461 302 461 c 3
 349 461 407 453 425 446 c 1
 432 342 l 1
 388 335 l 1
 367 410 l 1
 352 416 320 421 297 421 c 3
EndSplineSet
Validated: 1
Ligature2: "SmallCapsClose subtable" c.smcpflag less slash s c greater
EndChar

StartChar: d.smcp
Encoding: 641 -1 641
Width: 556
VWidth: 0
Flags: HMW
LayerCount: 2
Back
Fore
SplineSet
230 413 m 1
 230 36 l 1
 273 36 l 2
 373 36 401 83.1435546875 401 235 c 3
 401 376 369 413 268 413 c 2
 230 413 l 1
54 449 m 1
 284 449 l 2
 459 449 516 394.029296875 516 239 c 3
 516 65.9970703125 442 -1.95943487864e-14 282 0 c 2
 50 0 l 1
 50 18 l 1
 120 43 l 1
 120 413 l 1
 54 431 l 1
 54 449 l 1
EndSplineSet
Validated: 1
Ligature2: "SmallCapsClose subtable" d.smcpflag less slash s c greater
EndChar

StartChar: e.smcp
Encoding: 642 -1 642
Width: 510
VWidth: -3
Flags: HMW
LayerCount: 2
Back
Fore
SplineSet
54 449 m 1
 352 449 l 1
 407 454 l 1
 427 454 l 1
 438 352 l 1
 394 348 l 1
 380 413 l 1
 230 413 l 1
 230 253 l 1
 327 253 l 1
 342 302 l 1
 375 302 l 1
 375 172 l 1
 342 172 l 1
 327 221 l 1
 230 221 l 1
 230 36 l 1
 394 36 l 1
 414 116 l 1
 457 111 l 1
 442 0 l 1
 50 0 l 1
 50 18 l 1
 120 43 l 1
 120 413 l 1
 54 431 l 1
 54 449 l 1
EndSplineSet
Validated: 1
Ligature2: "SmallCapsClose subtable" e.smcpflag less slash s c greater
EndChar

StartChar: f.smcp
Encoding: 643 -1 643
Width: 468
VWidth: -3
Flags: HMW
LayerCount: 2
Back
Fore
SplineSet
54 449 m 1
 352 449 l 1
 407 454 l 1
 427 454 l 1
 438 352 l 1
 394 348 l 1
 380 413 l 1
 230 413 l 1
 230 253 l 1
 327 253 l 1
 342 302 l 1
 375 302 l 1
 375 172 l 1
 342 172 l 1
 327 221 l 1
 230 221 l 1
 230 34 l 1
 304 18 l 1
 304 0 l 1
 50 0 l 1
 50 18 l 1
 120 43 l 1
 120 413 l 1
 54 431 l 1
 54 449 l 1
EndSplineSet
Validated: 1
Ligature2: "SmallCapsClose subtable" f.smcpflag less slash s c greater
EndChar

StartChar: g.smcp
Encoding: 644 -1 644
Width: 540
VWidth: -3
Flags: HMW
AnchorPoint: "top" 251 449 basemark 0
LayerCount: 2
Back
Fore
SplineSet
285 -12 m 3
 142 -12 50 57 50 216 c 3
 50 386 161 461 307 461 c 3
 354 461 412 453 430 446 c 1
 437 342 l 1
 393 335 l 1
 372 410 l 1
 357 416 325 421 302 421 c 3
 199 421 166 375 166 243 c 3
 166 110 200.994140625 30 311 30 c 3
 331 30 338 31 352 35 c 1
 350 176 l 1
 291 190 l 1
 291 208 l 1
 460 216 l 1
 460 30 l 1
 411 0 361 -12 285 -12 c 3
EndSplineSet
Validated: 1048577
Ligature2: "SmallCapsClose subtable" g.smcpflag less slash s c greater
EndChar

StartChar: h.smcp
Encoding: 645 -1 645
Width: 616
VWidth: -3
Flags: HMW
LayerCount: 2
Back
Fore
SplineSet
56 449 m 1
 274 449 l 1
 274 431 l 1
 230 410 l 1
 230 254 l 1
 392 254 l 1
 392 410 l 1
 348 431 l 1
 348 449 l 1
 566 449 l 1
 566 431 l 1
 502 410 l 1
 502 34 l 1
 566 18 l 1
 566 0 l 1
 342 0 l 1
 342 18 l 1
 392 43 l 1
 392 216 l 1
 230 216 l 1
 230 34 l 1
 274 18 l 1
 274 0 l 1
 50 0 l 1
 50 18 l 1
 120 43 l 1
 120 410 l 1
 56 431 l 1
 56 449 l 1
EndSplineSet
Validated: 1
Ligature2: "SmallCapsClose subtable" h.smcpflag less slash s c greater
EndChar

StartChar: i.smcp
Encoding: 646 -1 646
Width: 344
VWidth: -3
Flags: HMW
LayerCount: 2
Back
Fore
SplineSet
56 449 m 1
 294 449 l 1
 294 431 l 1
 230 410 l 1
 230 34 l 1
 294 18 l 1
 294 0 l 1
 50 0 l 1
 50 18 l 1
 120 43 l 1
 120 410 l 1
 56 431 l 1
 56 449 l 1
EndSplineSet
Validated: 1
Ligature2: "SmallCapsClose subtable" i.smcpflag less slash s c greater
EndChar

StartChar: j.smcp
Encoding: 647 -1 647
Width: 335
VWidth: -3
Flags: HMW
LayerCount: 2
Back
Fore
SplineSet
47 449 m 1
 285 449 l 5
 285 431 l 5
 221 410 l 5
 221 61 l 6
 221 -60 145 -166 32 -232 c 1
 20 -215 l 1
 93 -151 111 -41 111 22 c 2
 111 410 l 1
 47 431 l 1
 47 449 l 1
EndSplineSet
Validated: 1
Ligature2: "SmallCapsClose subtable" j.smcpflag less slash s c greater
EndChar

StartChar: k.smcp
Encoding: 648 -1 648
Width: 541
VWidth: 0
Flags: HMW
LayerCount: 2
Back
Fore
SplineSet
230 449 m 1
 230 34 l 1
 274 18 l 1
 274 0 l 1
 50 0 l 1
 50 18 l 1
 120 43 l 1
 120 410 l 1
 56 431 l 1
 56 449 l 1
 230 449 l 1
346 449 m 1
 491 449 l 1
 491 426 l 1
 424 405 l 1
 321 252 l 1
 465 63 l 1
 511 18 l 1
 511 0 l 1
 367 0 l 1
 239 203 l 1
 376 408 l 9
 346 426 l 1
 346 449 l 1
EndSplineSet
Validated: 1
Ligature2: "SmallCapsClose subtable" k.smcpflag less slash s c greater
EndChar

StartChar: l.smcp
Encoding: 649 -1 649
Width: 470
VWidth: -3
Flags: HMW
LayerCount: 2
Back
Fore
SplineSet
435 0 m 1
 451 116 l 1
 408 121 l 1
 387 36 l 1
 230 36 l 1
 230 410 l 1
 294 431 l 1
 294 449 l 1
 56 449 l 1
 56 431 l 1
 120 410 l 1
 120 43 l 1
 50 18 l 1
 50 0 l 1
 435 0 l 1
EndSplineSet
Validated: 9
Ligature2: "SmallCapsClose subtable" l.smcpflag less slash s c greater
EndChar

StartChar: m.smcp
Encoding: 650 -1 650
Width: 724
VWidth: 0
Flags: HMW
LayerCount: 2
Back
Fore
SplineSet
44 449 m 1
 261 449 l 1
 364 168 l 1
 475 449 l 1
 674 449 l 1
 674 431 l 1
 610 410 l 1
 610 34 l 1
 674 18 l 1
 674 0 l 1
 436 0 l 1
 436 18 l 1
 500 43 l 1
 500 395 l 1
 497 395 l 1
 352 32 l 1
 300 32 l 1
 162 392 l 1
 157 392 l 1
 157 36 l 1
 213 20 l 1
 213 0 l 1
 40 0 l 1
 40 20 l 1
 108 36 l 1
 108 413 l 1
 44 428 l 1
 44 449 l 1
EndSplineSet
Validated: 1
Ligature2: "SmallCapsClose subtable" m.smcpflag less slash s c greater
EndChar

StartChar: n.smcp
Encoding: 651 -1 651
Width: 578
VWidth: 0
Flags: HMW
LayerCount: 2
Back
Fore
SplineSet
44 449 m 1
 205 449 l 1
 426 154 l 1
 426 413 l 1
 370 429 l 1
 370 449 l 1
 538 449 l 1
 538 429 l 1
 475 413 l 1
 475 -5 l 1
 404 -5 l 1
 159 330 l 1
 157 330 l 1
 157 36 l 1
 213 20 l 1
 213 0 l 1
 40 0 l 1
 40 20 l 1
 108 36 l 1
 108 413 l 1
 44 428 l 1
 44 449 l 1
EndSplineSet
Validated: 1
Ligature2: "SmallCapsClose subtable" n.smcpflag less slash s c greater
EndChar

StartChar: o.smcp
Encoding: 652 -1 652
Width: 562
VWidth: -3
Flags: HMW
AnchorPoint: "top" 287 449 basemark 0
LayerCount: 2
Back
Fore
SplineSet
285 423 m 3
 187 423 166 361 166 232 c 3
 166 101 205 27 281 27 c 3
 379 27 396 90 396 219 c 3
 396 350 361 423 285 423 c 3
292 461 m 3
 414 461 512 407 512 234 c 3
 512 77 430 -12 269 -12 c 3
 150 -12 50 44 50 217 c 3
 50 374 131 461 292 461 c 3
EndSplineSet
Validated: 1048577
Ligature2: "SmallCapsClose subtable" o.smcpflag less slash s c greater
EndChar

StartChar: p.smcp
Encoding: 653 -1 653
Width: 516
VWidth: 0
Flags: HMW
LayerCount: 2
Back
Fore
SplineSet
253 184 m 1
 253 216 l 1
 328 216 350 248.967773438 350 321 c 3
 350 391.0078125 333 413 279 413 c 2
 230 413 l 1
 230 34 l 1
 304 18 l 1
 304 0 l 1
 50 0 l 1
 50 18 l 1
 120 43 l 1
 120 413 l 1
 54 431 l 1
 54 449 l 1
 312 449 l 2
 412 449 466 421.022460938 466 328 c 3
 466 244 416 184 253 184 c 1
EndSplineSet
Validated: 1
Ligature2: "SmallCapsClose subtable" p.smcpflag less slash s c greater
EndChar

StartChar: q.smcp
Encoding: 654 -1 654
Width: 562
VWidth: -3
Flags: HMW
LayerCount: 2
Back
Fore
SplineSet
215 -16 m 1
 402 -51 l 1
 402 -66 l 1
 361 -136 l 1
 204 -44 l 1
 215 -16 l 1
EndSplineSet
Refer: 652 -1 N 1 0 0 1 0 0 2
Validated: 1
Ligature2: "SmallCapsClose subtable" q.smcpflag less slash s c greater
EndChar

StartChar: r.smcp
Encoding: 655 -1 655
Width: 537
VWidth: 0
Flags: HMW
LayerCount: 2
Back
Fore
SplineSet
230 413 m 1
 230 31 l 1
 289 20 l 1
 289 0 l 1
 50 0 l 1
 50 18 l 1
 120 43 l 1
 120 413 l 1
 54 431 l 1
 54 449 l 1
 310 449 l 2
 412 449 463 432.022460938 463 343 c 3
 463 273 420 239 359 225 c 1
 465 63 l 1
 507 18 l 1
 507 0 l 1
 372 0 l 1
 253 223 l 1
 253 234 l 17
 326 234 347 273.967773438 347 337 c 3
 347 401.0078125 327 413 277 413 c 2
 230 413 l 1
EndSplineSet
Validated: 1
Ligature2: "SmallCapsClose subtable" r.smcpflag less slash s c greater
EndChar

StartChar: s.smcp
Encoding: 656 -1 656
Width: 466
VWidth: 0
Flags: HMW
AnchorPoint: "bottom" 236 0 basemark 0
AnchorPoint: "top" 243 449 basemark 0
LayerCount: 2
Back
Fore
SplineSet
235 423 m 3
 279 423 318 415 333 404 c 1
 352 332 l 1
 393 335 l 1
 391 438 l 1
 361 450 299 461 253 461 c 3
 127 461 66 404 66 327 c 3
 66 239 133.052734375 208.401367188 216 176 c 0
 280 151 322 137 322 96 c 3
 322 53 300 26 233 26 c 3
 190 26 142 41 122 54 c 1
 108 128 l 1
 60 124 l 1
 66 16 l 1
 102 1 170 -12 223 -12 c 3
 358 -12 416 48 416 131 c 3
 416 217 346.35546875 246.467773438 261 280 c 0
 205 302 151 320 151 361 c 3
 151 398 171 423 235 423 c 3
EndSplineSet
Validated: 9
Ligature2: "SmallCapsClose subtable" s.smcpflag less slash s c greater
EndChar

StartChar: t.smcp
Encoding: 657 -1 657
Width: 486
VWidth: -3
Flags: HMW
LayerCount: 2
Back
Fore
SplineSet
38 454 m 1
 57 454 l 1
 112 449 l 1
 374 449 l 5
 429 454 l 5
 448 454 l 5
 456 343 l 5
 410 339 l 5
 398 413 l 5
 298 413 l 1
 298 34 l 1
 362 18 l 1
 362 0 l 1
 118 0 l 1
 118 18 l 1
 188 43 l 1
 188 413 l 1
 88 413 l 1
 76 339 l 1
 30 343 l 1
 38 454 l 1
EndSplineSet
Validated: 1
Ligature2: "SmallCapsClose subtable" t.smcpflag less slash s c greater
EndChar

StartChar: u.smcp
Encoding: 658 -1 658
Width: 567
VWidth: 0
Flags: HMW
AnchorPoint: "top" 298 449 basemark 0
LayerCount: 2
Back
Fore
SplineSet
464 413 m 1
 464 188 l 2
 464 82 444 -12 284 -12 c 3
 137 -12 104 60 104 185 c 2
 104 410 l 1
 40 431 l 1
 40 449 l 1
 268 449 l 1
 268 431 l 1
 214 410 l 1
 214 184 l 2
 214 91 224 42 309 42 c 3
 385 42 415 74 415 187 c 2
 415 413 l 1
 359 429 l 1
 359 449 l 1
 527 449 l 1
 527 429 l 1
 464 413 l 1
EndSplineSet
Validated: 1048577
Ligature2: "SmallCapsClose subtable" u.smcpflag less slash s c greater
EndChar

StartChar: v.smcp
Encoding: 659 -1 659
Width: 479
VWidth: -3
Flags: HMW
LayerCount: 2
Back
Fore
SplineSet
436 413 m 17
 272 -12 l 1
 229 -12 l 1
 55 417 l 1
 2 431 l 1
 2 449 l 1
 223 449 l 1
 223 431 l 1
 179 415 l 1
 285 126 l 1
 388 416 l 1
 333 431 l 1
 333 449 l 1
 499 449 l 1
 499 431 l 1
 436 413 l 17
EndSplineSet
Validated: 1
Ligature2: "SmallCapsClose subtable" v.smcpflag less slash s c greater
EndChar

StartChar: w.smcp
Encoding: 660 -1 660
Width: 733
VWidth: -3
Flags: HMW
AnchorPoint: "top" 395 449 basemark 0
LayerCount: 2
Back
Fore
SplineSet
434 430 m 1
 546 123 l 1
 642 416 l 1
 587 431 l 1
 587 449 l 1
 753 449 l 1
 753 431 l 1
 690 413 l 17
 536 -12 l 1
 493 -12 l 1
 372 309 l 1
 256 -12 l 1
 213 -12 l 1
 55 417 l 1
 2 431 l 1
 2 449 l 1
 219 449 l 1
 219 431 l 1
 173 415 l 1
 266 131 l 1
 374 430 l 1
 434 430 l 1
EndSplineSet
Validated: 1048577
Ligature2: "SmallCapsClose subtable" w.smcpflag less slash s c greater
EndChar

StartChar: x.smcp
Encoding: 661 -1 661
Width: 510
VWidth: 0
Flags: HMW
LayerCount: 2
Back
Fore
SplineSet
237 250 m 1
 260 226 l 1
 141 34 l 1
 175 18 l 1
 175 0 l 1
 30 0 l 1
 30 18 l 1
 95 36 l 1
 237 250 l 1
279 234 m 1
 256 258 l 1
 353 417 l 1
 331 431 l 1
 331 449 l 1
 462 449 l 1
 462 431 l 1
 399 415 l 1
 279 234 l 1
204 417 m 1
 285 267 l 1
 424 36 l 1
 480 18 l 1
 480 0 l 1
 295 0 l 1
 295 18 l 1
 308 30 l 1
 214 204 l 1
 87 414 l 1
 31 431 l 1
 31 449 l 1
 222 449 l 1
 222 431 l 1
 204 417 l 1
EndSplineSet
Validated: 5
Ligature2: "SmallCapsClose subtable" x.smcpflag less slash s c greater
EndChar

StartChar: y.smcp
Encoding: 662 -1 662
Width: 472
VWidth: 0
Flags: HMW
LayerCount: 2
Back
Fore
SplineSet
182 194 m 1
 292 194 l 1
 292 34 l 1
 356 18 l 1
 356 0 l 1
 112 0 l 1
 112 18 l 1
 182 43 l 1
 182 194 l 1
5 449 m 1
 218 449 l 1
 218 431 l 1
 179 415 l 1
 271 231 l 1
 356 416 l 9
 306 431 l 1
 306 449 l 1
 467 449 l 1
 467 431 l 1
 404 413 l 17
 263 137 l 1
 209 137 l 1
 58 417 l 1
 5 431 l 1
 5 449 l 1
EndSplineSet
Validated: 5
Ligature2: "SmallCapsClose subtable" y.smcpflag less slash s c greater
EndChar

StartChar: z.smcp
Encoding: 663 -1 663
Width: 490
VWidth: 0
Flags: HMW
AnchorPoint: "top" 235 449 basemark 0
LayerCount: 2
Back
Fore
SplineSet
376 36 m 1
 397 121 l 1
 440 116 l 1
 424 0 l 1
 57 0 l 1
 50 28 l 1
 293 413 l 1
 128 413 l 1
 111 334 l 1
 67 338 l 1
 81 454 l 1
 101 454 l 1
 156 449 l 1
 417 449 l 1
 426 422 l 1
 183 36 l 1
 376 36 l 1
EndSplineSet
Validated: 1048577
Ligature2: "SmallCapsClose subtable" z.smcpflag less slash s c greater
EndChar

StartChar: startsc
Encoding: 552 57383 676
Width: 500
VWidth: 0
Flags: HMW
LayerCount: 2
Back
Fore
SplineSet
100 -130 m 2
 400 -130 l 2
 455.400390625 -130 500 -174.599609375 500 -230 c 3
 500 -285.400390625 455.400390625 -330 400 -330 c 2
 100 -330 l 2
 44.599609375 -330 0 -285.400390625 0 -230 c 3
 0 -174.599609375 44.599609375 -130 100 -130 c 2
215.865234375 -187.642578125 m 3
 199.545898438 -187.642578125 187.666015625 -196.762695312 187.666015625 -210.5625 c 3
 187.666015625 -223.162109375 195.225585938 -230.122070312 212.625976562 -235.522460938 c 0
 225.5859375 -239.482421875 229.065429688 -242.602539062 229.065429688 -249.5625 c 3
 229.065429688 -257.602539062 222.706054688 -261.921875 213.825195312 -261.921875 c 3
 205.185546875 -261.921875 198.5859375 -258.801757812 192.5859375 -253.642578125 c 1
 184.305664062 -262.762695312 l 1
 191.145507812 -269.482421875 200.985351562 -274.162109375 214.185546875 -274.162109375 c 3
 233.985351562 -274.162109375 245.625976562 -263.602539062 245.625976562 -248.72265625 c 3
 245.625976562 -233.122070312 235.545898438 -227.122070312 221.025390625 -222.5625 c 0
 207.225585938 -218.2421875 203.985351562 -215.602539062 203.985351562 -209.602539062 c 3
 203.985351562 -203.122070312 209.385742188 -199.762695312 216.825195312 -199.762695312 c 3
 223.666015625 -199.762695312 229.42578125 -201.921875 235.42578125 -206.841796875 c 1
 243.225585938 -197.841796875 l 1
 236.025390625 -191.2421875 227.985351562 -187.642578125 215.865234375 -187.642578125 c 3
290.69140625 -187.642578125 m 3
 270.53125 -187.642578125 254.69140625 -202.881835938 254.69140625 -230.72265625 c 3
 254.69140625 -258.921875 269.69140625 -274.162109375 291.170898438 -274.162109375 c 3
 302.451171875 -274.162109375 311.090820312 -269.2421875 316.130859375 -264.08203125 c 1
 308.69140625 -254.482421875 l 1
 303.891601562 -258.08203125 298.971679688 -261.442382812 291.891601562 -261.442382812 c 3
 280.01171875 -261.442382812 271.37109375 -252.5625 271.37109375 -230.72265625 c 3
 271.37109375 -208.282226562 280.250976562 -199.881835938 291.651367188 -199.881835938 c 3
 297.411132812 -199.881835938 302.331054688 -201.921875 307.01171875 -205.881835938 c 1
 315.170898438 -196.40234375 l 1
 308.451171875 -190.762695312 301.611328125 -187.642578125 290.69140625 -187.642578125 c 3
0 0 m 1
 500 0 l 1
 500 -44 l 1
 0 -44 l 1
 0 0 l 1
EndSplineSet
Validated: 524289
LCarets2: 3 0 0 0
Ligature2: "SmallCapsOpen subtable" less s c greater
EndChar

